<?xml version="1.0" standalone="no"?>
<!DOCTYPE svg PUBLIC "-//W3C//DTD SVG 1.1//EN" "http://www.w3.org/Graphics/SVG/1.1/DTD/svg11.dtd" >
<svg>
<metadata>
Created by FontForge 20110222 at Fri Jan 22 10:44:32 2016
 By www-data
Copyright (c) 2011 by Hoang Design melodylife195@gmail.com. All rights reserved.
</metadata>
<defs>
<font id="UVFVanitas" horiz-adv-x="1141" >
  <font-face 
    font-family="UVF Vanitas"
    font-weight="400"
    font-stretch="normal"
    units-per-em="2000"
    panose-1="2 0 5 3 0 0 0 2 0 3"
    ascent="1600"
    descent="-400"
    x-height="878"
    cap-height="1358"
    bbox="-306 -484 2266 2040.53"
    underline-thickness="70"
    underline-position="-20"
    unicode-range="U+0020-FB06"
  />
<missing-glyph horiz-adv-x="1002" 
d="M127 1358h748v-1358h-748v1358zM845 29v1300h-689v-1300h689z" />
    <glyph glyph-name=".notdef" horiz-adv-x="1002" 
d="M127 1358h748v-1358h-748v1358zM845 29v1300h-689v-1300h689z" />
    <glyph glyph-name=".null" horiz-adv-x="0" 
 />
    <glyph glyph-name="nonmarkingreturn" horiz-adv-x="457" 
 />
    <glyph glyph-name="space" unicode=" " horiz-adv-x="457" 
 />
    <glyph glyph-name="numbersign" unicode="#" horiz-adv-x="1164" 
d="M288 405h-221l49 125h221l117 298h-221l49 125h221l184 471h30l-185 -471h314l184 471h30l-185 -471h222l-49 -125h-222l-116 -298h221l-49 -125h-221l-184 -471h-30l184 471h-313l-184 -471h-30zM680 530l117 298h-314l-116 -298h313z" />
    <glyph glyph-name="dollar" unicode="$" horiz-adv-x="986" 
d="M379 -188l166 1735h29l-167 -1735h-28zM763 1267q-33 25 -73 44q-35 17 -81.5 31t-101.5 14q-53 0 -105.5 -15t-94.5 -44.5t-68 -72.5t-26 -98q0 -52 24 -94.5t64.5 -79.5t95 -72t114.5 -72q80 -50 150.5 -98.5t123 -103t82.5 -118.5t30 -145q0 -64 -19 -115t-51.5 -90.5
t-76 -67t-92 -45.5t-99.5 -26t-99 -8q-82 0 -148 19t-114 42q-55 26 -99 61v67q45 -46 101 -81q48 -30 115.5 -55t151.5 -25q68 0 128 19.5t105 55.5t71 86t26 111q0 57 -23 105.5t-63.5 93t-96 86.5t-121.5 86q-75 50 -141 96.5t-115 96t-77 105.5t-28 124q0 75 33.5 131.5
t87.5 94t122 56t137 18.5q52 0 97 -8.5t80 -19.5q40 -12 74 -28v-61z" />
    <glyph glyph-name="percent" unicode="%" horiz-adv-x="1551" 
d="M1183 1457h32l-848 -1555h-32zM390 712q-70 0 -129.5 26t-103.5 71t-69 105.5t-25 128.5t25 128.5t69 106t103.5 72t129.5 26.5t129.5 -26.5t103 -72t68.5 -106t25 -128.5t-25 -128.5t-68.5 -105.5t-103 -71t-129.5 -26zM390 738q58 0 98.5 26t66.5 68.5t38 97.5t12 113
t-12 113t-38 98t-66.5 69.5t-98.5 26.5t-98.5 -26.5t-66.5 -69.5t-38 -98t-12 -113t12 -113t38 -97.5t66.5 -68.5t98.5 -26zM835 313q0 68 25 128.5t69 106t103.5 72t129.5 26.5t129.5 -26.5t103 -72t68.5 -106t25 -128.5t-25 -128.5t-68.5 -105.5t-103 -71t-129.5 -26
t-129.5 26t-103.5 71t-69 105.5t-25 128.5zM947 313q0 -58 12 -113t38 -97.5t66.5 -68.5t98.5 -26t98.5 26t66.5 68.5t38 97.5t12 113t-12 113t-38 98t-66.5 69.5t-98.5 26.5t-98.5 -26.5t-66.5 -69.5t-38 -98t-12 -113z" />
    <glyph glyph-name="ampersand" unicode="&#x26;" horiz-adv-x="1254" 
d="M1077 0l-113 141q-77 -79 -189 -123t-267 -44q-116 0 -203.5 28t-146 77t-88 115.5t-29.5 143.5q0 80 24 144.5t71.5 121.5t117 111.5t160.5 115.5l-31 40q-36 45 -58.5 84.5t-35.5 73.5t-17.5 63t-4.5 54q0 56 18.5 100t50.5 75t75.5 47t94.5 16q65 0 110 -19.5
t73.5 -51t41 -70t12.5 -75.5q0 -50 -18 -91.5t-48.5 -77t-70 -66t-82.5 -59.5l494 -619q50 81 78.5 180t37.5 214h24q-10 -121 -39 -226.5t-83 -190.5l185 -232h-144zM526 2q140 0 243.5 42t177.5 119l-515 645q-75 -58 -126 -113.5t-82.5 -111t-45 -112.5t-13.5 -117
q0 -80 24 -144.5t70 -111t113 -71.5t154 -25zM362 1200q0 -24 2 -48.5t12.5 -54.5t33.5 -69t65 -92l33 -42q45 31 75.5 65t49 69t26 71t7.5 72q0 41 -9 75t-28.5 58.5t-49.5 38t-72 13.5q-36 0 -63.5 -13t-45.5 -34.5t-27 -50t-9 -58.5z" />
    <glyph glyph-name="quotesingle" unicode="'" horiz-adv-x="294" 
d="M127 935l-30 403q0 29 15 43t35 14t35 -14t15 -43l-40 -403h-30z" />
    <glyph glyph-name="parenleft" unicode="(" horiz-adv-x="572" 
d="M109 452q0 122 16 226t42 191t59 157t68 124q81 128 185 208h40q-83 -67 -148 -188q-28 -52 -54.5 -121t-47.5 -157.5t-33.5 -198t-12.5 -241.5v-4q0 -133 12.5 -242.5t33.5 -198t47.5 -157t54.5 -120.5q65 -121 148 -188h-40q-104 80 -185 208q-35 54 -68 124t-59 156.5
t-42 190.5t-16 227v4z" />
    <glyph glyph-name="parenright" unicode=")" horiz-adv-x="572" 
d="M463 448q0 -123 -16 -227t-42 -190.5t-59.5 -156.5t-67.5 -124q-82 -128 -185 -208h-40q83 67 148 188q28 52 54.5 120.5t47.5 157t33.5 198t12.5 242.5v4q0 132 -12.5 241.5t-33.5 198t-47.5 157.5t-54.5 121q-65 121 -148 188h40q103 -80 185 -208q34 -54 67.5 -124
t59.5 -157t42 -191t16 -226v-4z" />
    <glyph glyph-name="asterisk" unicode="*" horiz-adv-x="869" 
d="M433 688q-20 0 -33.5 15.5t-11.5 35.5l35 318q1 5 0.5 10t-0.5 10l-35 313q-2 20 11.5 35.5t33.5 15.5h2q20 0 33.5 -15.5t11.5 -35.5l-36 -313v-20l36 -318q2 -20 -11.5 -35.5t-33.5 -15.5h-2zM430 1049q3 2 8 5t9 5l293 129q14 6 20.5 17.5t6.5 24.5q0 20 -13.5 33
t-33.5 13q-15 0 -26 -8l-258 -191q-3 -2 -8 -5t-9 -5l-290 -126q-14 -6 -20.5 -17.5t-6.5 -24.5q0 -20 13.5 -33t33.5 -13q15 0 26 8zM439 1049q-3 2 -8 5t-9 5l-293 129q-14 6 -20.5 17.5t-6.5 24.5q0 20 13.5 33t33.5 13q15 0 26 -8l258 -191q3 -2 8 -5t9 -5l290 -126
q14 -6 20.5 -17.5t6.5 -24.5q0 -20 -13.5 -33t-33.5 -13q-15 0 -26 8z" />
    <glyph glyph-name="plus" unicode="+" horiz-adv-x="1096" 
d="M109 483h425v426h28v-426h425v-28h-425v-424h-28v424h-425v28z" />
    <glyph glyph-name="comma" unicode="," horiz-adv-x="414" 
d="M189 -248q25 21 44 48q17 23 31 57t14 79q0 24 -3 40.5t-7 27.5q-4 12 -9 21q-7 -12 -17 -22q-8 -8 -21 -14.5t-31 -6.5q-35 0 -59 21.5t-24 58.5q0 38 26 62.5t69 24.5q56 0 90.5 -44t34.5 -119q0 -62 -21.5 -108.5t-47.5 -77.5q-31 -37 -69 -62v14z" />
    <glyph glyph-name="hyphen" unicode="-" horiz-adv-x="811" 
d="M109 452h593v-28h-593v28z" />
    <glyph glyph-name="period" unicode="." horiz-adv-x="381" 
d="M107 65q0 35 24 58.5t59 23.5t59.5 -23.5t24.5 -58.5q0 -17 -6.5 -32.5t-18 -26.5t-26.5 -17.5t-33 -6.5q-35 0 -59 24t-24 59z" />
    <glyph glyph-name="slash" unicode="/" horiz-adv-x="813" 
d="M716 1507h30l-649 -1655h-30z" />
    <glyph glyph-name="zero" unicode="0" horiz-adv-x="1151" 
d="M575 -26q-90 0 -176 47.5t-153 138.5t-108 221.5t-41 297.5q0 166 41 297t108 221.5t153 138.5t176 48t176.5 -48t153.5 -138.5t108 -221.5t41 -297q0 -167 -41 -297.5t-108 -221.5t-153.5 -138.5t-176.5 -47.5zM575 2q79 0 144.5 42t112 126.5t72 211.5t25.5 297
q0 169 -25.5 296t-72 212t-112 127t-144.5 42t-144 -42t-111.5 -127t-72 -212t-25.5 -296q0 -170 25.5 -297t72 -211.5t111.5 -126.5t144 -42z" />
    <glyph glyph-name="one" unicode="1" horiz-adv-x="1029" 
d="M27 28h438v1234l-287 -207v35l407 294v-1356h437v-28h-995v28z" />
    <glyph glyph-name="two" unicode="2" horiz-adv-x="984" 
d="M39 0q181 148 324 316q61 72 119 155t104 173.5t74 187t28 195.5q0 85 -19.5 147.5t-54 102.5t-82 59.5t-103.5 19.5q-43 0 -79 -10t-65.5 -26.5t-53 -38t-41.5 -43.5q-42 -52 -68 -117v90q28 48 75 86q20 16 45.5 31.5t57.5 28t70.5 20t84.5 7.5q91 0 158.5 -30t112 -81
t66 -118.5t21.5 -141.5q0 -86 -26.5 -170t-69 -163.5t-97.5 -153t-112 -136.5q-134 -149 -304 -280h728l-41 -110h-852v0z" />
    <glyph glyph-name="three" unicode="3" horiz-adv-x="1036" 
d="M97 163q38 -46 92 -81q46 -30 113 -55t156 -25q85 0 154.5 26t118.5 75t76 118t27 155q0 71 -18 135t-53 115t-87.5 85t-122.5 45q-52 -18 -112.5 -28t-129.5 -10l14 28q23 13 54 23q26 8 63.5 15t86.5 8q80 41 127 118.5t47 182.5q0 68 -17.5 117.5t-49 82t-75.5 48
t-96 15.5q-42 0 -78 -10t-66 -26.5t-54 -38t-43 -43.5q-44 -52 -72 -117v91q26 48 72 86q19 16 44.5 31.5t57 27.5t70 19.5t84.5 7.5q79 0 141 -23t104.5 -62.5t65 -93t22.5 -114.5q0 -102 -50 -180t-143 -127q73 -12 136 -45t109.5 -84t73 -119t26.5 -152q0 -87 -30 -161.5
t-90.5 -130t-151 -87t-210.5 -31.5q-103 0 -175.5 19t-119.5 42q-55 26 -91 61v67z" />
    <glyph glyph-name="four" unicode="4" horiz-adv-x="1195" 
d="M817 1385v-938h317v-28h-317v-419h-120v419h-648zM697 447v737l-588 -737h588z" />
    <glyph glyph-name="five" unicode="5" horiz-adv-x="1040" 
d="M112 162q36 -45 87 -80q44 -30 107 -55t148 -25q87 0 156.5 31.5t117.5 90.5t74 142.5t26 188.5q0 108 -27 193.5t-77 145t-120 91t-155 31.5q-46 0 -91 -9.5t-85.5 -29t-75 -49.5t-58.5 -71h-25l88 600h647l-39 -110h-598l-60 -434q15 18 40.5 40.5t63.5 42.5t89.5 34
t117.5 14q106 0 196 -36t155 -100t102 -152t37 -191q0 -55 -11.5 -113t-36.5 -113t-64.5 -103t-94 -84t-125.5 -57t-160 -21q-91 0 -156.5 19t-108.5 42q-50 26 -84 61v66z" />
    <glyph glyph-name="six" unicode="6" horiz-adv-x="1093" 
d="M770 1356q-76 -20 -156.5 -68t-154.5 -123t-134.5 -176.5t-96.5 -228.5q57 89 145 136.5t194 47.5q87 0 169.5 -33t147 -95t103.5 -151.5t39 -203.5q0 -112 -41 -202t-107.5 -153.5t-151 -97.5t-170.5 -34q-89 0 -175 32.5t-153.5 99.5t-109 168t-41.5 239
q0 142 33.5 257t89 206.5t128 160.5t149.5 118.5t153 81t140 47.5v-28zM202 453q0 -107 24 -191t69.5 -141.5t110.5 -88t146 -30.5q78 0 142.5 32.5t110 92t71 144t25.5 188.5q0 106 -24 190.5t-69 143.5t-108.5 91t-142.5 32q-80 0 -145.5 -32.5t-112 -93t-72 -146
t-25.5 -191.5z" />
    <glyph glyph-name="seven" unicode="7" horiz-adv-x="1021" 
d="M821 1330h-732v28h871l-608 -1358h-128z" />
    <glyph glyph-name="eight" unicode="8" horiz-adv-x="1119" 
d="M67 341q0 82 32.5 146.5t86 114.5t122.5 88.5t143 67.5q-53 30 -99.5 63.5t-81.5 73t-55 87t-20 105.5q0 65 27.5 119.5t75.5 94t112.5 61.5t138.5 22q91 0 159 -26.5t113.5 -67.5t68 -92.5t22.5 -101.5q0 -53 -21 -98t-57 -82t-83.5 -66.5t-99.5 -51.5q74 -36 146 -77
t128.5 -93t91.5 -120t35 -158q0 -78 -30 -146.5t-91.5 -119.5t-154.5 -80.5t-219 -29.5q-107 0 -197 25t-155 72t-101.5 115.5t-36.5 154.5zM618 814q45 19 85 45.5t70.5 61t48 78t17.5 97.5q0 56 -20 103.5t-57.5 82.5t-91 54.5t-121.5 19.5q-60 0 -109 -17.5t-84 -47.5
t-54 -70t-19 -85q0 -59 28 -105t74.5 -83.5t107 -69.5t125.5 -64zM170 348q0 -94 37.5 -159.5t95 -107t125.5 -60.5t129 -19q96 0 169 26t122.5 69t75 99.5t25.5 116.5q0 55 -20 100t-54 83t-80 70t-98 61.5t-108 57.5t-109 57q-62 -28 -118.5 -65t-99 -85.5t-67.5 -109
t-25 -134.5z" />
    <glyph glyph-name="nine" unicode="9" horiz-adv-x="1093" 
d="M323 2q76 20 156.5 68t154.5 123t134.5 176.5t96.5 228.5q-57 -89 -145 -136.5t-194 -47.5q-87 0 -169.5 33t-147 95t-103.5 151.5t-39 203.5q0 112 41 202t107.5 153.5t151 97.5t170.5 34q89 0 175 -32.5t153.5 -99.5t109 -168t41.5 -239q0 -142 -33.5 -257t-89 -206.5
t-128 -160.5t-149.5 -118.5t-153 -81t-140 -47.5v28zM891 905q0 107 -24 191t-69.5 141.5t-110.5 88t-146 30.5q-78 0 -142.5 -32.5t-110 -92t-71 -144t-25.5 -188.5q0 -106 24 -190.5t69 -144t108.5 -91t142.5 -31.5q80 0 145.5 32.5t112 93t72 146t25.5 191.5z" />
    <glyph glyph-name="colon" unicode=":" horiz-adv-x="381" 
d="M190 730q-35 0 -59 24t-24 59t24 58.5t59 23.5t59.5 -23.5t24.5 -58.5q0 -17 -6.5 -32.5t-18 -26.5t-26.5 -17.5t-33 -6.5zM107 65q0 35 24 58.5t59 23.5t59.5 -23.5t24.5 -58.5q0 -17 -6.5 -32.5t-18 -26.5t-26.5 -17.5t-33 -6.5q-35 0 -59 24t-24 59z" />
    <glyph glyph-name="semicolon" unicode=";" horiz-adv-x="414" 
d="M190 730q-35 0 -59 24t-24 59t24 58.5t59 23.5t59.5 -23.5t24.5 -58.5q0 -17 -6.5 -32.5t-18 -26.5t-26.5 -17.5t-33 -6.5zM189 -248q25 21 44 48q17 23 31 57t14 79q0 24 -3 40.5t-7 27.5q-4 12 -9 21q-7 -12 -17 -22q-8 -8 -21 -14.5t-31 -6.5q-35 0 -59 21.5t-24 58.5
q0 38 26 62.5t69 24.5q56 0 90.5 -44t34.5 -119q0 -62 -21.5 -108.5t-47.5 -77.5q-31 -37 -69 -62v14z" />
    <glyph glyph-name="less" unicode="&#x3c;" horiz-adv-x="1059" 
d="M79 483l871 378v-32l-833 -360l833 -361v-32l-871 378v29z" />
    <glyph glyph-name="equal" unicode="=" horiz-adv-x="1089" 
d="M109 638h871v-28h-871v28zM109 329h871v-28h-871v28z" />
    <glyph glyph-name="greater" unicode="&#x3e;" horiz-adv-x="1059" 
d="M980 454l-871 -378v32l833 361l-833 360v32l871 -378v-29z" />
    <glyph glyph-name="question" unicode="?" horiz-adv-x="926" 
d="M335 473q111 41 199 112q37 30 73 69.5t64.5 90t45.5 111.5t17 134t-19 139.5t-59 116.5t-101 80t-146 30q-50 0 -91 -10t-74.5 -26.5t-60 -38t-46.5 -43.5q-48 -52 -74 -117v90q30 48 80 86q21 16 49.5 31.5t64 28t79.5 20t97 7.5q107 0 188.5 -32t136.5 -86t83 -126
t28 -151q0 -73 -22 -135t-57.5 -113.5t-81 -93.5t-92.5 -74q-112 -77 -253 -124v-144h-28v168zM266 65q0 35 24 58.5t59 23.5t59.5 -23.5t24.5 -58.5q0 -17 -6.5 -32.5t-18 -26.5t-26.5 -17.5t-33 -6.5q-35 0 -59 24t-24 59z" />
    <glyph glyph-name="at" unicode="@" horiz-adv-x="1599" 
d="M1349 -25q-73 -55 -165 -97q-39 -18 -85.5 -35.5t-100 -31t-113 -21.5t-123.5 -8q-145 0 -269.5 44.5t-215.5 127.5t-142.5 202t-51.5 268q0 110 28.5 213.5t81.5 194.5t126.5 166.5t164.5 130t195.5 84.5t218.5 30q144 0 258.5 -47t194.5 -128.5t122.5 -191t42.5 -234.5
q0 -102 -28 -191.5t-78.5 -155.5t-121 -104t-155.5 -38q-91 0 -136.5 43t-45.5 127v16q-21 -38 -47.5 -72t-59.5 -59.5t-72.5 -40t-87.5 -14.5q-42 0 -78.5 15.5t-63.5 47t-42.5 78.5t-15.5 109q0 92 33 177t87 150.5t123 104.5t140 39q54 0 87.5 -19.5t52 -49.5t25 -64.5
t6.5 -64.5l54 178h104l-119 -389q-13 -42 -24.5 -85.5t-11.5 -80.5q0 -21 5 -39.5t18 -32t34.5 -21t53.5 -7.5q72 0 131 38t101 101t65 145.5t23 171.5q0 124 -43.5 227t-121 176.5t-182.5 114t-228 40.5q-100 0 -192 -27t-171.5 -77t-144 -120t-110.5 -155.5t-71 -184.5
t-25 -206q0 -132 39 -245t115.5 -196t191 -130t265.5 -47q60 0 115.5 7t105 19t92.5 27.5t79 31.5q84 38 149 86zM596 408q0 -91 33 -143.5t104 -52.5q46 0 84.5 24t69 63t53 88t38 99t23 97t7.5 81q0 30 -6.5 59.5t-21.5 53t-40 37.5t-62 14q-59 0 -110.5 -37t-89.5 -96.5
t-60 -135t-22 -151.5z" />
    <glyph glyph-name="A" unicode="A" horiz-adv-x="1228" 
d="M614 1393l547 -1393h-126l-166 424h-605l-166 -424h-31zM858 452l-291 742l-292 -742h583z" />
    <glyph glyph-name="B" unicode="B" horiz-adv-x="1057" 
d="M127 1358h265q87 0 165 -16.5t137 -51.5t93.5 -90.5t34.5 -134.5q0 -59 -19.5 -105t-53.5 -81.5t-80.5 -59.5t-100.5 -39q86 -10 163 -40.5t134.5 -79.5t91.5 -116.5t34 -151.5q0 -95 -42 -168t-112.5 -123t-163 -75.5t-192.5 -25.5h-354v1358zM408 785q154 0 230.5 73.5
t76.5 199.5t-76.5 199t-230.5 73h-161v-545h161zM463 28q94 0 168 26t125 73.5t77.5 114.5t26.5 150q0 82 -26.5 149.5t-77.5 115.5t-125 74t-168 26h-216v-729h216z" />
    <glyph glyph-name="C" unicode="C" horiz-adv-x="1358" 
d="M1241 107q-89 -66 -202.5 -99.5t-246.5 -33.5q-150 0 -279.5 54t-225 148.5t-150 223.5t-54.5 279t54.5 278.5t150 223.5t225 149t279.5 54q119 0 222 -25.5t190 -70.5v-71q-83 66 -188.5 102.5t-223.5 36.5q-122 0 -226.5 -52t-181.5 -143t-120.5 -215t-43.5 -267
q0 -144 43.5 -267.5t120.5 -214.5t181.5 -143t226.5 -52q67 0 130 13.5t120 37.5t107.5 57.5t91.5 73.5v-77z" />
    <glyph glyph-name="D" unicode="D" horiz-adv-x="1282" 
d="M127 1358h350q151 0 284 -50.5t232.5 -140.5t157.5 -214.5t58 -273.5t-58 -273.5t-157.5 -214.5t-232.5 -140.5t-284 -50.5h-350v1358zM473 28q123 0 233 48t193 134.5t131.5 206t48.5 262.5t-48.5 262.5t-131.5 206t-193 134.5t-233 48h-226v-1302h226z" />
    <glyph glyph-name="E" unicode="E" horiz-adv-x="975" 
d="M127 1358h747v-28h-627v-623h530v-28h-530v-651h627v-28h-747v1358z" />
    <glyph glyph-name="F" unicode="F" horiz-adv-x="945" 
d="M127 1358h747v-28h-627v-623h530v-28h-530v-679h-120v1358z" />
    <glyph glyph-name="G" unicode="G" horiz-adv-x="1449" 
d="M1324 123q-96 -69 -225 -109t-297 -40q-100 0 -192 24.5t-172 69.5t-145.5 108.5t-112 142t-72 169.5t-25.5 191t25.5 191t72 169t112 142t145.5 109t172 69.5t192 24.5q128 0 243 -30t204 -82v-71q-85 75 -202.5 115t-244.5 40q-122 0 -228.5 -52t-185 -143t-124 -215
t-45.5 -267q0 -96 20.5 -183.5t58.5 -162.5t91 -136t117.5 -104.5t139.5 -67t156 -23.5q70 0 128 7.5t106.5 22t89.5 34.5t79 45v582h119v-570z" />
    <glyph glyph-name="H" unicode="H" horiz-adv-x="1337" 
d="M127 1358h120v-651h843v651h120v-1358h-120v679h-843v-679h-120v1358z" />
    <glyph glyph-name="I" unicode="I" horiz-adv-x="397" 
d="M139 1358h119v-1358h-119v1358z" />
    <glyph glyph-name="J" unicode="J" horiz-adv-x="397" 
d="M139 1358h119v-1080q0 -120 -17 -216.5t-44.5 -172.5t-62.5 -133t-71 -99q-85 -98 -194 -141v28q51 35 99.5 83t86.5 123.5t61 185t23 268.5v1154z" />
    <glyph glyph-name="K" unicode="K" horiz-adv-x="1178" 
d="M127 1358h120v-905l701 905h38l-416 -536l575 -822h-141l-508 726l-249 -321v-405h-120v1358z" />
    <glyph glyph-name="L" unicode="L" horiz-adv-x="880" 
d="M127 1358h120v-1330h556v-28h-676v1358z" />
    <glyph glyph-name="M" unicode="M" horiz-adv-x="1847" 
d="M311 1381l608 -1240l617 1240l204 -1381h-121l-169 1145l-579 -1168l-569 1159l-166 -1136h-29z" />
    <glyph glyph-name="N" unicode="N" horiz-adv-x="1285" 
d="M127 1381l1003 -1185v1162h28v-1381l-1003 1186v-1163h-28v1381z" />
    <glyph glyph-name="O" unicode="O" horiz-adv-x="1601" 
d="M83 679q0 100 25.5 190.5t72 169t112 142t145.5 109t171.5 70t191.5 24.5q149 0 280 -54t228 -149t153 -224t56 -278q0 -102 -25.5 -194t-72 -170t-112 -141.5t-145 -107.5t-171.5 -68t-191 -24q-149 0 -280 53t-228.5 146.5t-153.5 223t-56 282.5zM219 679
q0 -144 44.5 -267.5t122.5 -214.5t184.5 -143t230.5 -52t230.5 52t184.5 143t122.5 214.5t44.5 267.5q0 143 -44.5 266.5t-122.5 215t-184.5 143.5t-230.5 52t-230.5 -52t-184.5 -143.5t-122.5 -215t-44.5 -266.5z" />
    <glyph glyph-name="P" unicode="P" horiz-adv-x="1004" 
d="M127 1358h342q94 0 180 -22t150.5 -67t103 -114.5t38.5 -164.5t-38.5 -164t-103 -114t-150.5 -67t-180 -22h-222v-623h-120v1358zM451 651q180 0 269.5 86.5t89.5 252.5t-89.5 253t-269.5 87h-204v-679h204z" />
    <glyph glyph-name="Q" unicode="Q" horiz-adv-x="1601" 
d="M1180 0q-30 11 -53.5 14.5t-40.5 3.5q-30 0 -46 -6q-114 -38 -239 -38q-149 0 -280 53t-228.5 146.5t-153.5 223t-56 282.5q0 100 25.5 190.5t72 169t112 142t145.5 109t171.5 70t191.5 24.5q149 0 280 -54t228 -149t153 -224t56 -278q0 -109 -29 -206.5t-81.5 -179
t-126.5 -145t-163 -105.5q22 -2 37.5 -5.5t35.5 -11.5l566 -212h-86zM219 679q0 -144 44.5 -267.5t122.5 -214.5t184.5 -143t230.5 -52t230.5 52t184.5 143t122.5 214.5t44.5 267.5q0 143 -44.5 266.5t-122.5 215t-184.5 143.5t-230.5 52t-230.5 -52t-184.5 -143.5
t-122.5 -215t-44.5 -266.5z" />
    <glyph glyph-name="R" unicode="R" horiz-adv-x="1080" 
d="M127 1358h357q94 0 180 -22t150.5 -67t103 -114.5t38.5 -164.5t-38.5 -164t-103 -114t-150.5 -67t-180 -22h-224l795 -623h-44l-764 598v-598h-120v1358zM466 651q180 0 269.5 86.5t89.5 252.5t-89.5 253t-269.5 87h-219v-679h219z" />
    <glyph glyph-name="S" unicode="S" horiz-adv-x="982" 
d="M89 173q45 -46 103 -81q49 -30 118 -55t154 -25q69 0 130.5 19.5t108 55.5t73.5 85.5t27 109.5q0 59 -24 108t-66 93.5t-99 86t-123 85.5q-65 43 -130.5 86.5t-118.5 92.5t-86.5 107t-33.5 132q0 77 34 134.5t89 95t124 56t138 18.5q54 0 101.5 -8.5t82.5 -19.5
q41 -12 75 -28v-61q-34 25 -74 44q-35 17 -82.5 31t-104.5 14q-54 0 -107.5 -15t-97 -44.5t-70.5 -72.5t-27 -98q0 -51 24 -92.5t65.5 -79t97 -73t119.5 -73.5q79 -48 150.5 -96.5t125.5 -103t86 -118.5t32 -143q0 -65 -19.5 -117t-52.5 -91.5t-77 -67.5t-93.5 -46t-101 -26
t-99.5 -8q-86 0 -154.5 19t-116.5 42q-56 26 -100 61v67z" />
    <glyph glyph-name="T" unicode="T" horiz-adv-x="1149" 
d="M515 1330h-432v28h983v-28h-432v-1330h-119v1330z" />
    <glyph glyph-name="U" unicode="U" horiz-adv-x="1179" 
d="M1072 551q0 -69 -5 -131.5t-19.5 -118.5t-40.5 -106t-68 -95q-52 -56 -131 -89.5t-193 -33.5q-46 0 -93.5 6t-93 20.5t-87.5 37.5t-77 57q-47 45 -77.5 97.5t-48 118t-24.5 145.5t-7 180v719h120v-758q0 -92 4.5 -163t15.5 -126t29 -97.5t45 -76.5q103 -132 294 -132
q103 0 177 30.5t125 82.5q40 42 65 92t38.5 106t18 116t4.5 122v804h29v-807z" />
    <glyph glyph-name="V" unicode="V" horiz-adv-x="1212" 
d="M59 1358h127l467 -1181l469 1181h31l-547 -1381z" />
    <glyph glyph-name="W" unicode="W" horiz-adv-x="1992" 
d="M69 1358h125l430 -1163l426 1186l438 -1184l404 1161h31l-480 -1381l-442 1189l-423 -1189z" />
    <glyph glyph-name="X" unicode="X" horiz-adv-x="1172" 
d="M528 689l-451 669h138l381 -565l374 565h35l-391 -592l518 -766h-138l-448 663l-438 -663h-35z" />
    <glyph glyph-name="Y" unicode="Y" horiz-adv-x="1164" 
d="M519 584l-458 774h131l441 -745l437 745h33l-464 -792v-566h-120v584z" />
    <glyph glyph-name="Z" unicode="Z" horiz-adv-x="1035" 
d="M804 1330h-658v28h798l-738 -1330h758v-28h-899z" />
    <glyph glyph-name="bracketleft" unicode="[" horiz-adv-x="530" 
d="M109 1358h368v-28h-260v-1760h260v-28h-368v1816z" />
    <glyph glyph-name="backslash" unicode="\" horiz-adv-x="813" 
d="M706 -148h-30l-649 1655h30z" />
    <glyph glyph-name="bracketright" unicode="]" horiz-adv-x="530" 
d="M421 -458h-368v28h260v1760h-260v28h368v-1816z" />
    <glyph glyph-name="asciicircum" unicode="^" horiz-adv-x="575" 
d="M288 1381l206 -521h-114l-135 337l-134 -337h-30z" />
    <glyph glyph-name="underscore" unicode="_" horiz-adv-x="1145" 
d="M119 28h907v-28h-907v28z" />
    <glyph glyph-name="grave" unicode="`" horiz-adv-x="532" 
d="M402 1008l-259 196q-12 9 -22.5 21.5t-10.5 31.5q0 20 13 33t33 13q17 0 30.5 -8.5t25.5 -22.5l220 -259z" />
    <glyph glyph-name="a" unicode="a" horiz-adv-x="964" 
d="M904 23q-6 -7 -16 -12q-8 -5 -21.5 -8t-32.5 -3q-66 0 -107.5 49t-59.5 131q-11 -29 -33 -62.5t-58 -63t-88 -49t-125 -19.5q-62 0 -113.5 15.5t-89 45.5t-58.5 74.5t-21 102.5q0 64 26 109t73.5 79t113 61.5t144.5 56.5q59 22 99.5 39t65 35t35 40.5t10.5 56.5
t-10.5 64.5t-33 53t-58 35.5t-84.5 13q-68 0 -119 -21t-86.5 -47t-54 -48t-19.5 -25v74q30 26 72 47q36 18 90 33t127 15q70 0 119 -15t81 -39.5t50 -55.5t27 -62t11 -59.5t2 -48.5v-363q0 -80 10.5 -125t24.5 -67t29.5 -27t24.5 -5q11 0 21 2.5t17 5.5q8 4 15 8v-21z
M654 564v39t-1 37q-10 -23 -26 -39.5t-41 -32.5t-61 -32.5t-85 -37.5q-57 -25 -102.5 -51t-77.5 -58t-49 -72t-17 -93q0 -51 16 -90.5t43.5 -66t64 -40t78.5 -13.5q48 0 90.5 16.5t77 45t59.5 65.5t37 78q-6 45 -6 98v247z" />
    <glyph glyph-name="b" unicode="b" horiz-adv-x="1026" 
d="M123 1358h108v-647q45 85 120.5 134.5t184.5 49.5q90 0 165.5 -35.5t130 -97t85.5 -144.5t31 -179q0 -95 -31 -178t-85.5 -144t-130 -96t-165.5 -35q-109 0 -184.5 49t-120.5 133v-168h-108v1358zM231 439q0 -92 20.5 -170t60 -134.5t96 -88.5t128.5 -32t127.5 32
t94 88.5t58 134.5t19.5 170t-19.5 170.5t-58 135.5t-94 89.5t-127.5 32.5t-128.5 -32.5t-96 -89.5t-60 -135.5t-20.5 -170.5z" />
    <glyph glyph-name="c" unicode="c" horiz-adv-x="906" 
d="M807 74q-29 -25 -70 -44q-35 -17 -87.5 -30.5t-122.5 -13.5q-95 0 -176.5 32.5t-142.5 92t-95.5 143t-34.5 185.5q0 95 33.5 178.5t92 145t139 97t174.5 35.5q68 0 118 -12.5t84 -27.5q40 -18 68 -40v-77q-25 36 -63 64q-33 24 -84 44.5t-123 20.5q-77 0 -137 -32.5
t-102 -89.5t-64 -135.5t-22 -170.5q0 -97 25 -175.5t70.5 -134t110.5 -85.5t145 -30q71 0 120.5 21t81.5 47q37 30 62 69v-77z" />
    <glyph glyph-name="d" unicode="d" horiz-adv-x="1026" 
d="M795 173q-44 -86 -119.5 -136.5t-185.5 -50.5q-90 0 -165.5 35t-130 96t-85.5 144t-31 178q0 96 31 179t85.5 144.5t130 97t165.5 35.5q110 0 185.5 -51t119.5 -138v652h108v-1358h-108v173zM191 439q0 -92 19.5 -170t58 -134.5t94 -88.5t127.5 -32t128.5 32t96 88.5
t60 134.5t20.5 170t-20.5 170.5t-60 135.5t-96 89.5t-128.5 32.5t-127.5 -32.5t-94 -89.5t-58 -135.5t-19.5 -170.5z" />
    <glyph glyph-name="e" unicode="e" horiz-adv-x="940" 
d="M799 106q-29 -34 -71 -60q-36 -23 -92 -41.5t-133 -18.5q-102 0 -181 37t-133 99.5t-82.5 144.5t-28.5 172q0 95 29.5 178.5t83 145t127.5 97t164 35.5q86 0 155 -33t118 -90.5t77 -135t33 -167.5h-673v-30q0 -78 17.5 -154t55 -136.5t96.5 -97.5t142 -37q78 0 133.5 25
t91 55.5t52.5 57t19 29.5v-75zM749 497q-5 81 -22.5 148.5t-49.5 117t-80.5 77t-114.5 27.5q-63 0 -113.5 -26t-87.5 -74t-59 -116.5t-28 -153.5h555z" />
    <glyph glyph-name="f" unicode="f" horiz-adv-x="663" 
d="M215 850h-150v28h150v122q0 118 24.5 191.5t63.5 115t87.5 56t95.5 14.5q30 0 58.5 -5.5t51.5 -11.5q26 -8 51 -17v-62q-19 19 -44 34q-21 13 -51.5 23.5t-69.5 10.5q-33 0 -61.5 -11t-50.5 -39.5t-34.5 -77t-12.5 -122.5v-221h264v-28h-264v-850h-108v850z" />
    <glyph glyph-name="g" unicode="g" horiz-adv-x="1002" 
d="M440 0q-11 1 -39 3.5t-64.5 8t-76 14.5t-72 21.5t-54 29t-21.5 38.5q0 16 17.5 29.5t45.5 24t61.5 18.5t66.5 13t60.5 8.5t42.5 4.5q-64 12 -117 42t-91.5 74t-60 100t-21.5 121q0 75 28.5 138t79 109t119.5 72t149 26q90 0 166.5 -33t129.5 -93q23 19 38.5 54.5
t15.5 87.5h112q0 -27 -12.5 -53t-33 -48.5t-47 -39.5t-54.5 -26q29 -41 45.5 -89.5t16.5 -104.5q0 -77 -26.5 -136t-74 -101.5t-111.5 -68.5t-139 -37q-21 -3 -50.5 -7t-62 -9t-64.5 -12t-57.5 -16.5t-41.5 -21t-16 -26.5q0 -25 33 -42t82.5 -29t107 -20t107.5 -14
q194 -23 295.5 -85.5t101.5 -152.5q0 -53 -37.5 -97.5t-100.5 -77t-145.5 -51t-172.5 -18.5t-172.5 18.5t-145.5 51t-100.5 77t-37.5 97.5q0 47 30 88.5t81.5 72.5t121.5 49t151 18h14zM493 233q65 0 114 22t82 63.5t50 100t17 131.5t-17 131.5t-50 99.5t-82 63.5t-114 22.5
t-113.5 -22.5t-81.5 -63.5t-49.5 -99.5t-16.5 -131.5t16.5 -131.5t49.5 -100t81.5 -63.5t113.5 -22zM146 -228q0 -50 28.5 -90t77 -68t112 -43t134.5 -15q70 0 134 15t112.5 43t77 68t28.5 90t-29 90t-77.5 67.5t-112 42.5t-133.5 15t-133.5 -15t-112 -42.5t-77.5 -67.5
t-29 -90z" />
    <glyph glyph-name="h" unicode="h" horiz-adv-x="980" 
d="M123 1358h108v-823q7 36 19.5 77t32 81t47 76.5t64 64.5t82.5 44.5t104 16.5q72 0 125 -27t88.5 -72.5t52.5 -106.5t17 -129v-560h-108v560q0 51 -5.5 105.5t-25 99.5t-57.5 73.5t-104 28.5q-54 0 -99.5 -20.5t-82.5 -55.5t-65 -81.5t-47 -99t-28.5 -108t-9.5 -107.5
v-395h-108v1358z" />
    <glyph glyph-name="i" unicode="i" horiz-adv-x="378" 
d="M189 1060q-34 0 -58 24t-24 58t24 58t58 24t58 -24t24 -58t-24 -58t-58 -24zM135 878h108v-878h-108v878z" />
    <glyph glyph-name="j" unicode="j" horiz-adv-x="378" 
d="M189 1060q-34 0 -58 24t-24 58t24 58t58 24t58 -24t24 -58t-24 -58t-58 -24zM135 878h108v-574q0 -126 -14 -225t-37 -176.5t-52.5 -134t-60.5 -96.5q-72 -94 -163 -130v22q24 19 49.5 42t50 57t46 81t38 115t26 159t9.5 212v648z" />
    <glyph glyph-name="k" unicode="k" horiz-adv-x="927" 
d="M123 1358h108v-1083l515 603h39l-290 -338l407 -540h-134l-344 457l-193 -227v-230h-108v1358z" />
    <glyph glyph-name="l" unicode="l" horiz-adv-x="378" 
d="M135 1358h108v-1358h-108v1358z" />
    <glyph glyph-name="m" unicode="m" horiz-adv-x="1541" 
d="M123 878h108v-336q11 60 35.5 122.5t62.5 114t91 84t121 32.5q69 0 122.5 -24t89.5 -67.5t55 -104t19 -133.5v-24q11 60 35.5 122.5t63 114t91.5 84t121 32.5q69 0 122.5 -24t89.5 -67.5t55 -104t19 -133.5v-566h-108v566q0 63 -8.5 118t-29.5 95.5t-56 64t-88 23.5
q-75 0 -132 -44.5t-96 -113.5t-59 -152t-20 -161v-396h-108v566q0 63 -8.5 118t-29.5 95.5t-56 64t-88 23.5q-75 0 -132 -44.5t-95.5 -113.5t-58.5 -152t-20 -161v-396h-108v878z" />
    <glyph glyph-name="n" unicode="n" horiz-adv-x="980" 
d="M123 878h108v-343q7 36 19.5 77t32 81t47 76.5t64 64.5t82.5 44.5t104 16.5q72 0 125 -27t88.5 -72.5t52.5 -106.5t17 -129v-560h-108v560q0 51 -5.5 105.5t-25 99.5t-57.5 73.5t-104 28.5q-54 0 -99.5 -20.5t-82.5 -55.5t-65 -81.5t-47 -99t-28.5 -108t-9.5 -107.5v-395
h-108v878z" />
    <glyph glyph-name="o" unicode="o" horiz-adv-x="992" 
d="M78 437q0 95 31.5 178.5t87.5 145.5t132.5 98t166.5 36t166.5 -36t132.5 -98t87.5 -145.5t31.5 -178.5q0 -96 -31.5 -178t-87.5 -143t-132.5 -95.5t-166.5 -34.5t-166.5 34.5t-132.5 95.5t-87.5 143t-31.5 178zM192 437q0 -92 20.5 -170t59.5 -134t95.5 -87.5
t128.5 -31.5t128.5 31.5t96 87.5t60 134t20.5 170t-20.5 170.5t-60 136.5t-96 90.5t-128.5 32.5t-128.5 -32.5t-95.5 -90.5t-59.5 -136.5t-20.5 -170.5z" />
    <glyph glyph-name="p" unicode="p" horiz-adv-x="1026" 
d="M231 -458h-108v1336h108v-165q45 84 120.5 133t184.5 49q90 0 165.5 -35t130 -96t85.5 -144t31 -178q0 -96 -31 -179t-85.5 -144.5t-130 -97t-165.5 -35.5q-109 0 -184.5 49t-120.5 134v-627zM231 442q0 -92 20.5 -170.5t60 -135.5t96 -89.5t128.5 -32.5t127.5 32.5
t94 89.5t58 135.5t19.5 170.5t-19.5 170t-58 134.5t-94 88.5t-127.5 32t-128.5 -32t-96 -88.5t-60 -134.5t-20.5 -170z" />
    <glyph glyph-name="q" unicode="q" horiz-adv-x="1026" 
d="M795 169q-45 -85 -120.5 -134t-184.5 -49q-90 0 -165.5 35.5t-130 97t-85.5 144.5t-31 179q0 95 31 178t85.5 144t130 96t165.5 35q109 0 184.5 -49t120.5 -133v165h108v-1336h-108v627zM191 442q0 -92 19.5 -170.5t58 -135.5t94 -89.5t127.5 -32.5t128.5 32.5t96 89.5
t60 135.5t20.5 170.5t-20.5 170t-60 134.5t-96 88.5t-128.5 32t-127.5 -32t-94 -88.5t-58 -134.5t-19.5 -170z" />
    <glyph glyph-name="r" unicode="r" horiz-adv-x="650" 
d="M123 878h108v-337q11 53 34.5 110.5t69.5 116.5q46 60 109 94t141 34v-92q-83 0 -148.5 -32.5t-111 -89t-70 -133.5t-24.5 -166v-383h-108v878z" />
    <glyph glyph-name="s" unicode="s" horiz-adv-x="847" 
d="M85 158q38 -40 87 -72q42 -27 102.5 -49.5t136.5 -22.5q67 0 116 15.5t80.5 40t46.5 55.5t15 63q0 43 -25.5 77t-66 61t-90.5 49.5t-100 42.5q-67 27 -120.5 53t-90.5 56t-57 66.5t-20 84.5q0 56 25.5 97t68.5 67.5t100 39.5t119 13q63 0 113 -11t85 -25q40 -16 72 -35
v-66q-33 30 -75 54q-36 20 -86 37.5t-112 17.5q-41 0 -82.5 -9.5t-75 -28.5t-54.5 -48t-21 -68q0 -32 15 -56t44 -45t73 -41t102 -43q71 -28 135.5 -55.5t113.5 -61.5t78 -78.5t29 -105.5q0 -48 -20 -92t-63.5 -77t-111 -52.5t-161.5 -19.5q-87 0 -147.5 15t-100.5 34
q-47 21 -77 49v74z" />
    <glyph glyph-name="t" unicode="t" horiz-adv-x="636" 
d="M215 850h-150v28h150v243l108 77v-320h254v-28h-254v-549q0 -43 2 -92t15 -91t41 -70t80 -28q30 0 52 5q11 3 20 6v-28l-22 -6q-22 -5 -50 -5q-86 0 -135 29t-74 78.5t-31 115t-6 139.5v496z" />
    <glyph glyph-name="u" unicode="u" horiz-adv-x="980" 
d="M117 878h108v-560q0 -51 5.5 -105t25 -98.5t57.5 -72.5t104 -28q54 0 99.5 20t82.5 55t65 81t47 98.5t28.5 107.5t9.5 107v395h108v-878h-108v343q-7 -36 -20 -76.5t-32.5 -80.5t-46.5 -76t-63 -63.5t-82.5 -44t-103.5 -16.5q-72 0 -125.5 26.5t-89 71.5t-52.5 105.5
t-17 128.5v560z" />
    <glyph glyph-name="v" unicode="v" horiz-adv-x="908" 
d="M59 878h117l321 -727l321 727h31l-395 -899z" />
    <glyph glyph-name="w" unicode="w" horiz-adv-x="1491" 
d="M67 878h116l277 -722l336 743l321 -738l276 717h31l-346 -899l-326 752l-339 -752z" />
    <glyph glyph-name="x" unicode="x" horiz-adv-x="906" 
d="M396 438l-337 440h134l270 -352l269 352h37l-288 -376l386 -502h-135l-318 414l-316 -414h-37z" />
    <glyph glyph-name="y" unicode="y" horiz-adv-x="912" 
d="M68 878h117l321 -730l321 730h31l-587 -1336h-32l208 472z" />
    <glyph glyph-name="z" unicode="z" horiz-adv-x="806" 
d="M587 850h-477v28h615l-520 -850h538v-28h-676z" />
    <glyph glyph-name="braceleft" unicode="{" horiz-adv-x="527" 
d="M474 -458q-37 0 -78 3.5t-82 14t-78 31.5t-65 56t-45 86.5t-17 124.5q0 81 18.5 151.5t41 132.5t41 116.5t18.5 103.5q0 34 -9.5 52t-23.5 26q-21 -6 -41 -6q-11 0 -19 1t-14 3q-7 2 -12 4v16q5 2 12 4q6 2 14 3t19 1q21 0 41 -7q14 8 23.5 26.5t9.5 52.5
q0 49 -18.5 103.5t-41 116.5t-41 132.5t-18.5 151.5q0 73 17 124.5t45 86.5t65 56t78 31.5t82 14t78 3.5v-27q-75 0 -123.5 -22.5t-77 -62t-39.5 -92t-11 -112.5q0 -63 9 -119.5t19.5 -109.5t19.5 -103t9 -99q0 -70 -18.5 -107.5t-45.5 -53.5q27 -17 45.5 -54t18.5 -107
q0 -50 -9 -99.5t-19.5 -102.5t-19.5 -109.5t-9 -119.5q0 -60 11 -112.5t39.5 -92t77 -62t123.5 -22.5v-27z" />
    <glyph glyph-name="bar" unicode="|" horiz-adv-x="346" 
d="M159 1526h28v-1943h-28v1943z" />
    <glyph glyph-name="braceright" unicode="}" horiz-adv-x="527" 
d="M53 -431q75 0 123.5 22.5t77 62t39.5 92t11 112.5q0 63 -9 119.5t-19.5 109.5t-19.5 102.5t-9 99.5q0 70 18.5 107t45.5 54q-27 16 -45.5 53.5t-18.5 107.5q0 49 9 99t19.5 103t19.5 109.5t9 119.5q0 60 -11 112.5t-39.5 92t-77 62t-123.5 22.5v27q37 0 78 -3.5t82 -14
t78 -31.5t65 -56t45 -87t17 -124q0 -81 -18.5 -151.5t-41 -132.5t-41 -116.5t-18.5 -103.5q0 -34 9.5 -52.5t23.5 -26.5q20 7 41 7q11 0 19 -1t14 -3q7 -2 12 -4v-16q-5 -2 -12 -4q-6 -2 -14 -3t-19 -1q-20 0 -41 6q-14 -8 -23.5 -26t-9.5 -52q0 -49 18.5 -103.5t41 -116.5
t41 -132.5t18.5 -151.5q0 -72 -17 -124t-45 -87t-65 -56t-78 -31.5t-82 -14t-78 -3.5v27z" />
    <glyph glyph-name="asciitilde" unicode="~" horiz-adv-x="1151" 
d="M109 376q4 19 19 49.5t43 59.5t70 50t101 21q40 0 81 -11t82 -27t82 -35t80 -35t76.5 -27t71.5 -11q46 0 81 17.5t60 42t39 50t19 42.5h28q-4 -19 -19 -49.5t-43 -59.5t-70.5 -50t-100.5 -21q-40 0 -81 11t-82 27t-82 35t-80 35t-76.5 27t-71.5 11q-46 0 -81 -17.5
t-60 -42t-39.5 -50.5t-18.5 -42h-28v0z" />
    <glyph glyph-name="nonbreakingspace" unicode="&#xa0;" horiz-adv-x="457" 
 />
    <glyph glyph-name="exclamdown" unicode="&#xa1;" horiz-adv-x="381" 
d="M176 595h28l47 -1003q0 -76 -61 -76t-61 76zM107 835q0 35 24 59t59 24q18 0 33 -6.5t26.5 -18t18 -26.5t6.5 -32q0 -35 -24.5 -58.5t-59.5 -23.5t-59 23.5t-24 58.5z" />
    <glyph glyph-name="cent" unicode="&#xa2;" horiz-adv-x="906" 
d="M207 -127l506 1133h31l-506 -1133h-31zM787 738q-25 36 -63 64q-33 24 -84 44.5t-123 20.5q-77 0 -137 -32.5t-102 -89.5t-64 -135.5t-22 -170.5q0 -97 25 -175.5t70.5 -134t110.5 -85.5t145 -30q71 0 120.5 21t81.5 47q37 30 62 69v-77q-29 -25 -70 -44
q-35 -17 -87.5 -30.5t-122.5 -13.5q-95 0 -176.5 32.5t-142.5 92t-95.5 143t-34.5 185.5q0 95 33.5 178.5t92 145t139 97t174.5 35.5q68 0 118 -12.5t84 -27.5q40 -18 68 -40v-77z" />
    <glyph glyph-name="sterling" unicode="&#xa3;" horiz-adv-x="1140" 
d="M45 0q77 44 138 108q26 27 51 61t44.5 75.5t31.5 90t12 104.5q0 57 -11.5 113t-27.5 113h-166v28h157q-13 43 -26 86.5t-24 86.5t-18 85.5t-7 84.5q0 71 22.5 134.5t67 111t111.5 75t156 27.5q46 0 85 -7.5t71 -19.5t57.5 -27t45.5 -31q47 -37 75 -84v-94q-1 3 -9 21.5
t-24.5 44.5t-42 55.5t-61 55t-82.5 42t-106 16.5q-51 0 -97 -16t-81 -52.5t-55.5 -95t-20.5 -142.5q0 -52 7.5 -97.5t18 -88t23 -84.5t21.5 -87h388v-28h-383q5 -28 8 -57.5t3 -61.5q0 -55 -8 -102.5t-21 -88.5t-29.5 -75t-33.5 -61q-40 -64 -92 -109h851l-41 -110h-978v0z
" />
    <glyph glyph-name="currency" unicode="&#xa4;" horiz-adv-x="874" 
d="M119 382l150 149q-26 29 -41 67t-15 81q0 42 14.5 80t40.5 67l-149 150l21 20l149 -149q29 26 67 41t81 15t80.5 -15t67.5 -41l149 149l21 -20l-150 -150q26 -29 41 -67t15 -80q0 -43 -15 -81t-41 -67l150 -149l-21 -20l-149 149q-30 -26 -67.5 -41t-80.5 -15t-80.5 14.5
t-67.5 40.5l-149 -148zM437 477q41 0 77 16.5t62.5 44t41.5 64t15 77.5q0 40 -15 77t-41.5 64.5t-62.5 44t-77 16.5t-77 -16.5t-62.5 -44t-41.5 -64.5t-15 -77q0 -41 15 -77.5t41.5 -64t62.5 -44t77 -16.5z" />
    <glyph glyph-name="yen" unicode="&#xa5;" horiz-adv-x="1104" 
d="M489 471h-350v28h350v77l-94 172h-256v28h240l-318 582h135l407 -744l408 744h32l-319 -582h246v-28h-262l-99 -182v-67h361v-28h-361v-471h-120v471z" />
    <glyph glyph-name="brokenbar" unicode="&#xa6;" horiz-adv-x="346" 
d="M159 1526h28v-808h-28v808zM187 377v-794h-28v794h28z" />
    <glyph glyph-name="section" unicode="&#xa7;" horiz-adv-x="1021" 
d="M222 -355q33 -26 73 -45q34 -17 79 -30.5t98 -13.5q56 0 109.5 18t95 50t67 76t25.5 95q0 48 -23.5 92t-67 89.5t-106.5 96t-142 111.5q-74 57 -136 108.5t-108 105t-71.5 112.5t-25.5 130q0 48 11.5 88.5t31.5 74.5t46.5 61t56.5 47q-25 38 -38.5 79.5t-13.5 88.5
q0 74 33.5 130t87 93.5t121 56t135.5 18.5q51 0 96.5 -8.5t79.5 -19.5q40 -12 73 -28v-61q-32 25 -72 44q-34 17 -80.5 31t-101.5 14q-53 0 -105 -15t-94 -44.5t-68 -73t-26 -100.5q0 -45 19 -82.5t59.5 -78.5t105 -90t155.5 -116q78 -57 141 -109.5t107.5 -106.5t68.5 -112
t24 -127q0 -49 -12 -90.5t-32.5 -76t-48.5 -62t-59 -47.5q28 -42 43 -86.5t15 -95.5q0 -75 -33 -132.5t-87 -96.5t-122 -59t-137 -20q-51 0 -95.5 8.5t-78.5 19.5q-40 12 -73 28v61zM489 305q82 -65 152 -124t120 -122q38 33 61 77.5t23 99.5q0 57 -24.5 108t-66 98.5
t-96.5 93t-116 92.5q-85 65 -156.5 123.5t-120.5 118.5q-37 -33 -58 -77t-21 -98q0 -56 23 -105t63.5 -95.5t96 -92.5t120.5 -97z" />
    <glyph glyph-name="dieresis" unicode="&#xa8;" horiz-adv-x="691" 
d="M496 1058q-32 0 -54.5 22.5t-22.5 54.5t22.5 54.5t54.5 22.5t54.5 -22.5t22.5 -54.5t-22.5 -54.5t-54.5 -22.5zM194 1058q-32 0 -54.5 22.5t-22.5 54.5t22.5 54.5t54.5 22.5t54.5 -22.5t22.5 -54.5t-22.5 -54.5t-54.5 -22.5z" />
    <glyph glyph-name="copyright" unicode="&#xa9;" horiz-adv-x="1614" 
d="M83 679q0 102 26 194t73 170t113 141.5t146.5 107.5t173 68t192.5 24t192.5 -24t173 -68t146.5 -107.5t113 -141.5t73 -170t26 -194t-26 -194t-73 -170t-113 -141.5t-146.5 -107.5t-173 -68t-192.5 -24t-192.5 24t-173 68t-146.5 107.5t-113 141.5t-73 170t-26 194z
M112 679q0 -98 25 -187t70.5 -165t109 -138t140.5 -105.5t165.5 -67t184.5 -23.5q143 0 269.5 52t221 144t149 217.5t54.5 272.5t-54.5 272.5t-149 217.5t-221 144t-269.5 52q-96 0 -184.5 -23.5t-165.5 -67t-140.5 -105.5t-109 -138t-70.5 -165t-25 -187zM1100 344
q-51 -45 -126.5 -69t-158.5 -24q-95 0 -175.5 31.5t-139 88.5t-92 135.5t-33.5 172.5q0 93 33 171.5t92 135.5t140 88.5t176 31.5q70 0 139.5 -17t123.5 -49v-46q-50 45 -121 69.5t-142 24.5q-78 0 -144 -30t-114 -84.5t-75 -129.5t-27 -165t27 -165t75 -129.5t114 -85
t144 -30.5q38 0 78 7.5t77.5 22t70.5 36t58 50.5v-41z" />
    <glyph glyph-name="ordfeminine" unicode="&#xaa;" horiz-adv-x="710" 
d="M653 774q-4 -4 -11 -8q-6 -3 -15.5 -5.5t-23.5 -2.5q-43 0 -78 23.5t-55 74.5q-12 -21 -29 -40t-41.5 -33.5t-56.5 -23t-73 -8.5q-96 0 -144.5 45t-48.5 120q0 45 18 76t51 54.5t79 42.5t102 40q38 15 61.5 25t36.5 19.5t17.5 21.5t4.5 31q0 26 -6.5 50t-21.5 43t-38 30
t-56 11q-51 0 -84.5 -15.5t-53.5 -33.5q-24 -22 -38 -49v56q14 18 39 33q21 12 55.5 22.5t85.5 10.5q74 0 118.5 -23t68.5 -54.5t31.5 -64.5t7.5 -54v-256q0 -56 7.5 -87t17 -46t20 -18t16.5 -3q17 0 27 5l10 6v-15zM451 1184q-5 -10 -11.5 -17.5t-19.5 -16t-34.5 -19
t-56.5 -25.5q-45 -20 -75.5 -39t-49 -41t-27 -47.5t-8.5 -56.5q0 -42 12 -70t31.5 -45t43 -24.5t47.5 -7.5q49 0 92 26.5t69 72.5q-6 22 -9.5 48t-3.5 57v205z" />
    <glyph glyph-name="guillemotleft" unicode="&#xab;" horiz-adv-x="904" 
d="M775 763l20 -20l-301 -300l300 -300l-20 -20l-319 320zM79 443l320 320l20 -20l-301 -300l300 -300l-20 -20z" />
    <glyph glyph-name="logicalnot" unicode="&#xac;" horiz-adv-x="1096" 
d="M109 483h878v-341h-28v313h-850v28z" />
    <glyph glyph-name="uni00AD" unicode="&#xad;" horiz-adv-x="811" 
d="M109 452h593v-28h-593v28z" />
    <glyph glyph-name="registered" unicode="&#xae;" horiz-adv-x="714" 
d="M357 844q-56 0 -105 21t-86 58t-58 86t-21 105t21 105t58 86t86 58t105 21t105 -20.5t86 -57t58 -86t21 -106.5q0 -56 -21 -105t-58 -86t-86 -58t-105 -21zM357 861q51 0 95.5 20.5t77.5 55t52 80.5t19 97q0 50 -19 95.5t-52 80.5t-77.5 55.5t-95.5 20.5t-95.5 -20
t-77.5 -54.5t-52 -80.5t-19 -97t19 -97t52 -80.5t77.5 -55t95.5 -20.5zM271 1265h82q48 0 75.5 -23t27.5 -59q0 -35 -27.5 -57.5t-75.5 -22.5h-46l168 -136h-18l-157 127v-127h-29v298zM349 1115q39 0 56 19.5t17 48.5q0 31 -17 50.5t-56 19.5h-49v-138h49z" />
    <glyph glyph-name="macron" unicode="&#xaf;" horiz-adv-x="691" 
d="M103 1125h485v-53h-485v53z" />
    <glyph glyph-name="degree" unicode="&#xb0;" horiz-adv-x="631" 
d="M313 960q-47 0 -88.5 15.5t-72 43t-48 66t-17.5 85.5q0 46 17.5 85t48 66.5t72 43t88.5 15.5q49 0 91.5 -15.5t73.5 -43t48.5 -66.5t17.5 -85q0 -47 -17.5 -85.5t-48.5 -66t-73.5 -43t-91.5 -15.5zM313 985q31 0 59 12t49 35.5t33.5 58t12.5 79.5t-12.5 79.5t-33.5 58.5
t-49 36t-59 12t-58 -12t-47.5 -36t-32.5 -58.5t-12 -79.5t12 -79.5t32.5 -58t47.5 -35.5t58 -12z" />
    <glyph glyph-name="plusminus" unicode="&#xb1;" horiz-adv-x="1109" 
d="M119 575h421v420h28v-420h422v-28h-422v-365h-28v365h-421v28zM119 28h871v-28h-871v28z" />
    <glyph glyph-name="twosuperior" unicode="&#xb2;" horiz-adv-x="540" 
d="M39 960q83 77 148 162q28 36 54.5 78t47.5 87t34 92.5t13 95.5q0 78 -24.5 117t-81.5 39q-39 0 -67 -19t-47 -42q-22 -26 -36 -60v58q14 24 38 43q20 17 51.5 30.5t77.5 13.5q47 0 81 -15.5t56.5 -41t33 -58.5t10.5 -67q0 -41 -12 -81t-32 -78.5t-45.5 -73.5t-51.5 -66
q-62 -72 -141 -136h349l-28 -78h-428v0z" />
    <glyph glyph-name="threesuperior" unicode="&#xb3;" horiz-adv-x="594" 
d="M125 1568q12 24 34 43q19 17 51 30.5t80 13.5q43 0 75 -12.5t52 -33t30 -46.5t10 -54q0 -45 -22.5 -84t-66.5 -67q36 -8 66 -26t52 -44t34.5 -59.5t12.5 -72.5q0 -43 -16 -81t-47.5 -66.5t-78.5 -45t-108 -16.5q-51 0 -85.5 9.5t-57.5 20.5q-26 13 -43 31v44
q23 -23 51 -41q24 -15 56 -27.5t70 -12.5q80 0 123.5 49t43.5 135q0 71 -32.5 120t-86.5 60q-51 -20 -117 -21l6 27q10 6 25 11q12 4 30 7.5t41 4.5q37 20 56.5 59.5t19.5 87.5q0 54 -27.5 87t-78.5 33q-44 0 -73.5 -18.5t-46.5 -40.5q-21 -26 -32 -59v55z" />
    <glyph glyph-name="acute" unicode="&#xb4;" horiz-adv-x="532" 
d="M100 1013l220 259q12 14 25.5 22.5t30.5 8.5q20 0 33 -13t13 -33q0 -19 -10.5 -31.5t-22.5 -21.5l-259 -196z" />
    <glyph glyph-name="mu" unicode="&#xb5;" horiz-adv-x="994" 
d="M235 -458h-108v1336h108v-560q0 -51 5.5 -105t25 -98.5t57.5 -72.5t104 -28q54 0 99.5 20t82.5 55t65 81t47 98.5t28.5 107.5t9.5 107v395h108v-878h-108v343q-7 -36 -19.5 -76.5t-32.5 -80.5t-47 -76t-63 -63.5t-82.5 -44t-103.5 -16.5q-66 0 -108.5 19t-67.5 54v-517z
" />
    <glyph glyph-name="mu" unicode="&#x3bc;" horiz-adv-x="994" 
d="M235 -458h-108v1336h108v-560q0 -51 5.5 -105t25 -98.5t57.5 -72.5t104 -28q54 0 99.5 20t82.5 55t65 81t47 98.5t28.5 107.5t9.5 107v395h108v-878h-108v343q-7 -36 -19.5 -76.5t-32.5 -80.5t-47 -76t-63 -63.5t-82.5 -44t-103.5 -16.5q-66 0 -108.5 19t-67.5 54v-517z
" />
    <glyph glyph-name="paragraph" unicode="&#xb6;" horiz-adv-x="1263" 
d="M535 623q-95 0 -180.5 22t-150 67t-103 114t-38.5 164t38.5 164.5t103 114.5t150 67t180.5 22h673l-19 -28h-83v-1582l-120 -59v1641h-167v-1727l-120 -61v1788h-146q-180 0 -269.5 -87t-89.5 -253t89.5 -252.5t269.5 -86.5l-18 -28v0z" />
    <glyph glyph-name="periodcentered" unicode="&#xb7;" horiz-adv-x="381" 
d="M107 438q0 35 24 58.5t59 23.5t59.5 -23.5t24.5 -58.5q0 -17 -6.5 -32.5t-18 -26.5t-26.5 -17.5t-33 -6.5q-35 0 -59 24t-24 59z" />
    <glyph glyph-name="cedilla" unicode="&#xb8;" horiz-adv-x="499" 
d="M295 8h33l-97 -103q24 0 53 -9t54 -28t42 -47t17 -66q0 -65 -50 -105t-138 -40q-28 0 -48 2.5t-34 6.5q-16 4 -27 10l-5 24q14 -5 30 -9q14 -3 31.5 -5.5t37.5 -2.5q65 0 96.5 33t31.5 80q0 34 -15 59t-40 41.5t-56.5 25t-64.5 8.5z" />
    <glyph glyph-name="onesuperior" unicode="&#xb9;" horiz-adv-x="633" 
d="M77 984h201v570l-126 -91v30l223 162v-671h201v-24h-499v24z" />
    <glyph glyph-name="ordmasculine" unicode="&#xba;" horiz-adv-x="701" 
d="M350 745q-63 0 -116.5 24t-92.5 66.5t-61 101t-22 126.5t22 127t61 102t92.5 67.5t116.5 24.5t116.5 -24.5t92.5 -67.5t61.5 -102t22.5 -127t-22.5 -126.5t-61.5 -101t-92.5 -66.5t-116.5 -24zM350 769q51 0 85.5 23.5t56.5 63.5t31.5 93.5t9.5 113.5t-9.5 114
t-31.5 94.5t-56.5 64.5t-85.5 24t-85.5 -24t-56 -64.5t-31 -94.5t-9.5 -114t9.5 -113.5t31 -93.5t56 -63.5t85.5 -23.5z" />
    <glyph glyph-name="guillemotright" unicode="&#xbb;" horiz-adv-x="904" 
d="M449 443l-319 -320l-20 20l300 300l-301 300l20 20zM506 123l-20 20l300 300l-301 300l20 20l320 -320z" />
    <glyph glyph-name="onequarter" unicode="&#xbc;" horiz-adv-x="1557" 
d="M77 702h201v570l-126 -91v30l223 162v-671h201v-24h-499v24zM1263 175h-317l414 521v-497h136v-24h-136v-175h-97v175zM1263 199v335l-268 -335h268zM419 -98l848 1555h32l-848 -1555h-32z" />
    <glyph glyph-name="onehalf" unicode="&#xbd;" horiz-adv-x="1579" 
d="M77 702h201v570l-126 -91v30l223 162v-671h201v-24h-499v24zM419 -98l848 1555h32l-848 -1555h-32zM1078 0q83 77 148 162q28 36 54.5 78t47.5 87t34 92.5t13 95.5q0 78 -24.5 117t-81.5 39q-39 0 -67 -19t-47 -42q-22 -26 -36 -60v58q14 24 38 43q20 17 51.5 30.5
t77.5 13.5q47 0 81 -15.5t56.5 -41t33 -58.5t10.5 -67q0 -41 -12 -81t-32 -78.5t-45.5 -73.5t-51.5 -66q-62 -72 -141 -136h349l-28 -78h-428z" />
    <glyph glyph-name="threequarters" unicode="&#xbe;" horiz-adv-x="1426" 
d="M1132 175h-317l414 521v-497h136v-24h-136v-175h-97v175zM1132 199v335l-268 -335h268zM288 -98l848 1555h32l-848 -1555h-32zM125 1286q12 24 34 43q19 17 51 30.5t80 13.5q43 0 75 -12.5t52 -33t30 -46.5t10 -54q0 -45 -22.5 -84t-66.5 -67q36 -8 66 -26t52 -44
t34.5 -59.5t12.5 -72.5q0 -43 -16 -81t-47.5 -66.5t-78.5 -45t-108 -16.5q-51 0 -85.5 9.5t-57.5 20.5q-26 13 -43 31v44q23 -23 51 -41q24 -15 56 -27.5t70 -12.5q80 0 123.5 49t43.5 135q0 71 -32.5 120t-86.5 60q-51 -20 -117 -21l6 27q10 6 25 11q12 4 30 7.5t41 4.5
q37 20 56.5 59.5t19.5 87.5q0 54 -27.5 87t-78.5 33q-44 0 -73.5 -18.5t-46.5 -40.5q-21 -26 -32 -59v55z" />
    <glyph glyph-name="questiondown" unicode="&#xbf;" horiz-adv-x="926" 
d="M591 427q-112 -42 -200 -112q-38 -30 -73.5 -70t-63.5 -90t-45 -111t-17 -134t19 -139.5t58.5 -116.5t101 -80t146.5 -30q49 0 90.5 10t75 26.5t60 37.5t46.5 43q47 52 74 118v-90q-30 -49 -80 -87q-21 -16 -49.5 -31.5t-64.5 -27.5t-80 -19.5t-96 -7.5q-107 0 -188.5 32
t-136.5 86t-83 125.5t-28 151.5q0 73 21.5 134.5t57 113t81 93t93.5 74.5q111 76 253 125v144h28v-168zM660 835q0 -35 -24 -58.5t-59 -23.5t-59.5 23.5t-24.5 58.5q0 17 6.5 32t18 26.5t26.5 18t33 6.5q35 0 59 -24t24 -59z" />
    <glyph glyph-name="Agrave" unicode="&#xc0;" horiz-adv-x="1228" 
d="M614 1393l547 -1393h-126l-166 424h-605l-166 -424h-31zM858 452l-291 742l-292 -742h583zM686 1468l-259 196q-12 9 -22.5 21.5t-10.5 31.5q0 20 13 33t33 13q17 0 30.5 -8.5t25.5 -22.5l220 -259z" />
    <glyph glyph-name="Aacute" unicode="&#xc1;" horiz-adv-x="1228" 
d="M614 1393l547 -1393h-126l-166 424h-605l-166 -424h-31zM858 452l-291 742l-292 -742h583zM512 1473l220 259q12 14 25.5 22.5t30.5 8.5q20 0 33 -13t13 -33q0 -19 -10.5 -31.5t-22.5 -21.5l-259 -196z" />
    <glyph glyph-name="Acircumflex" unicode="&#xc2;" horiz-adv-x="1228" 
d="M614 1393l547 -1393h-126l-166 424h-605l-166 -424h-31zM858 452l-291 742l-292 -742h583zM390 1473l224 280l224 -280l-24 -5l-200 148l-200 -148z" />
    <glyph glyph-name="Atilde" unicode="&#xc3;" horiz-adv-x="1228" 
d="M614 1393l547 -1393h-126l-166 424h-605l-166 -424h-31zM858 452l-291 742l-292 -742h583zM338 1494q0 35 9.5 64.5t29.5 51.5t50.5 34t72.5 12q41 0 76.5 -10.5t69 -23t67 -23t71.5 -10.5q32 0 56 22t28 63h22q0 -35 -9.5 -65t-30 -52.5t-51 -35.5t-72.5 -13
q-40 0 -76 10.5t-70 23t-66 23t-64 10.5q-82 0 -91 -81h-22z" />
    <glyph glyph-name="Adieresis" unicode="&#xc4;" horiz-adv-x="1228" 
d="M614 1393l547 -1393h-126l-166 424h-605l-166 -424h-31zM858 452l-291 742l-292 -742h583zM765 1518q-32 0 -54.5 22.5t-22.5 54.5t22.5 54.5t54.5 22.5t54.5 -22.5t22.5 -54.5t-22.5 -54.5t-54.5 -22.5zM463 1518q-32 0 -54.5 22.5t-22.5 54.5t22.5 54.5t54.5 22.5
t54.5 -22.5t22.5 -54.5t-22.5 -54.5t-54.5 -22.5z" />
    <glyph glyph-name="Aring" unicode="&#xc5;" horiz-adv-x="1228" 
d="M614 1393l547 -1393h-126l-166 424h-605l-166 -424h-31zM858 452l-291 742l-292 -742h583zM614 1474q-34 0 -63.5 8.5t-52 25t-35.5 40t-13 52.5q0 30 13 54t35.5 40.5t52 25.5t63.5 9t64 -9t52.5 -25.5t35.5 -40.5t13 -54q0 -29 -13 -52.5t-35.5 -40t-52.5 -25t-64 -8.5
zM614 1496q35 0 60.5 25t25.5 79t-25.5 79.5t-60.5 25.5t-60 -25.5t-25 -79.5t25 -79t60 -25z" />
    <glyph glyph-name="AE" unicode="&#xc6;" horiz-adv-x="1602" 
d="M929 1358h572v-28h-452v-623h355v-28h-355v-651h452v-28h-572v535h-495l-344 -535h-35zM929 563v740l-477 -740h477z" />
    <glyph glyph-name="Ccedilla" unicode="&#xc7;" horiz-adv-x="1358" 
d="M754 -25q-95 5 -182 32t-161.5 73t-135 109t-103.5 139.5t-66 165t-23 185.5q0 150 54.5 278.5t150 223.5t225 149t279.5 54q119 0 222 -25.5t190 -70.5v-71q-83 66 -188.5 102.5t-223.5 36.5q-122 0 -226.5 -52t-181.5 -143t-120.5 -215t-43.5 -267q0 -144 43.5 -267.5
t120.5 -214.5t181.5 -143t226.5 -52q67 0 130 13.5t120 37.5t107.5 57.5t91.5 73.5v-77q-89 -66 -202 -99t-245 -34l-64 -69q24 0 53 -9t54 -28t42 -47t17 -66q0 -65 -50 -105t-138 -40q-28 0 -48 2.5t-34 6.5q-16 4 -27 10l-5 24q14 -5 30 -9q14 -3 31.5 -5.5t37.5 -2.5
q65 0 96.5 33t31.5 80q0 34 -15 59t-40 41.5t-56.5 25t-64.5 8.5z" />
    <glyph glyph-name="Egrave" unicode="&#xc8;" horiz-adv-x="975" 
d="M127 1358h747v-28h-627v-623h530v-28h-530v-651h627v-28h-747v1358zM581 1468l-259 196q-12 9 -22.5 21.5t-10.5 31.5q0 20 13 33t33 13q17 0 30.5 -8.5t25.5 -22.5l220 -259z" />
    <glyph glyph-name="Eacute" unicode="&#xc9;" horiz-adv-x="975" 
d="M127 1358h747v-28h-627v-623h530v-28h-530v-651h627v-28h-747v1358zM355 1473l220 259q12 14 25.5 22.5t30.5 8.5q20 0 33 -13t13 -33q0 -19 -10.5 -31.5t-22.5 -21.5l-259 -196z" />
    <glyph glyph-name="Ecircumflex" unicode="&#xca;" horiz-adv-x="975" 
d="M127 1358h747v-28h-627v-623h530v-28h-530v-651h627v-28h-747v1358zM295 1473l224 280l224 -280l-24 -5l-200 148l-200 -148z" />
    <glyph glyph-name="Edieresis" unicode="&#xcb;" horiz-adv-x="975" 
d="M127 1358h747v-28h-627v-623h530v-28h-530v-651h627v-28h-747v1358zM670 1518q-32 0 -54.5 22.5t-22.5 54.5t22.5 54.5t54.5 22.5t54.5 -22.5t22.5 -54.5t-22.5 -54.5t-54.5 -22.5zM368 1518q-32 0 -54.5 22.5t-22.5 54.5t22.5 54.5t54.5 22.5t54.5 -22.5t22.5 -54.5
t-22.5 -54.5t-54.5 -22.5z" />
    <glyph glyph-name="Igrave" unicode="&#xcc;" horiz-adv-x="397" 
d="M139 1358h119v-1358h-119v1358zM266 1468l-259 196q-12 9 -22.5 21.5t-10.5 31.5q0 20 13 33t33 13q17 0 30.5 -8.5t25.5 -22.5l220 -259z" />
    <glyph glyph-name="Iacute" unicode="&#xcd;" horiz-adv-x="397" 
d="M139 1358h119v-1358h-119v1358zM100 1473l220 259q12 14 25.5 22.5t30.5 8.5q20 0 33 -13t13 -33q0 -19 -10.5 -31.5t-22.5 -21.5l-259 -196z" />
    <glyph glyph-name="Icircumflex" unicode="&#xce;" horiz-adv-x="397" 
d="M139 1358h119v-1358h-119v1358zM-26 1473l224 280l224 -280l-24 -5l-200 148l-200 -148z" />
    <glyph glyph-name="Idieresis" unicode="&#xcf;" horiz-adv-x="397" 
d="M139 1358h119v-1358h-119v1358zM349 1518q-32 0 -54.5 22.5t-22.5 54.5t22.5 54.5t54.5 22.5t54.5 -22.5t22.5 -54.5t-22.5 -54.5t-54.5 -22.5zM47 1518q-32 0 -54.5 22.5t-22.5 54.5t22.5 54.5t54.5 22.5t54.5 -22.5t22.5 -54.5t-22.5 -54.5t-54.5 -22.5z" />
    <glyph glyph-name="Eth" unicode="&#xd0;" horiz-adv-x="1292" 
d="M137 679h-139v28h139v651h350q151 0 284 -50.5t232.5 -140.5t157.5 -214.5t58 -273.5t-58 -273.5t-157.5 -214.5t-232.5 -140.5t-284 -50.5h-350v679zM483 28q123 0 233 48t193 134.5t131.5 206t48.5 262.5t-48.5 262.5t-131.5 206t-193 134.5t-233 48h-226v-623h425v-28
h-425v-651h226z" />
    <glyph glyph-name="Ntilde" unicode="&#xd1;" horiz-adv-x="1285" 
d="M127 1381l1003 -1185v1162h28v-1381l-1003 1186v-1163h-28v1381zM382 1494q0 35 9.5 64.5t29.5 51.5t50.5 34t72.5 12q41 0 76.5 -10.5t69 -23t67 -23t71.5 -10.5q32 0 56 22t28 63h22q0 -35 -9.5 -65t-30 -52.5t-51 -35.5t-72.5 -13q-40 0 -76 10.5t-70 23t-66 23
t-64 10.5q-82 0 -91 -81h-22z" />
    <glyph glyph-name="Ograve" unicode="&#xd2;" horiz-adv-x="1601" 
d="M83 679q0 100 25.5 190.5t72 169t112 142t145.5 109t171.5 70t191.5 24.5q149 0 280 -54t228 -149t153 -224t56 -278q0 -102 -25.5 -194t-72 -170t-112 -141.5t-145 -107.5t-171.5 -68t-191 -24q-149 0 -280 53t-228.5 146.5t-153.5 223t-56 282.5zM219 679
q0 -144 44.5 -267.5t122.5 -214.5t184.5 -143t230.5 -52t230.5 52t184.5 143t122.5 214.5t44.5 267.5q0 143 -44.5 266.5t-122.5 215t-184.5 143.5t-230.5 52t-230.5 -52t-184.5 -143.5t-122.5 -215t-44.5 -266.5zM898 1468l-259 196q-12 9 -22.5 21.5t-10.5 31.5
q0 20 13 33t33 13q17 0 30.5 -8.5t25.5 -22.5l220 -259z" />
    <glyph glyph-name="Oacute" unicode="&#xd3;" horiz-adv-x="1601" 
d="M83 679q0 100 25.5 190.5t72 169t112 142t145.5 109t171.5 70t191.5 24.5q149 0 280 -54t228 -149t153 -224t56 -278q0 -102 -25.5 -194t-72 -170t-112 -141.5t-145 -107.5t-171.5 -68t-191 -24q-149 0 -280 53t-228.5 146.5t-153.5 223t-56 282.5zM219 679
q0 -144 44.5 -267.5t122.5 -214.5t184.5 -143t230.5 -52t230.5 52t184.5 143t122.5 214.5t44.5 267.5q0 143 -44.5 266.5t-122.5 215t-184.5 143.5t-230.5 52t-230.5 -52t-184.5 -143.5t-122.5 -215t-44.5 -266.5zM672 1473l220 259q12 14 25.5 22.5t30.5 8.5q20 0 33 -13
t13 -33q0 -19 -10.5 -31.5t-22.5 -21.5l-259 -196z" />
    <glyph glyph-name="Ocircumflex" unicode="&#xd4;" horiz-adv-x="1601" 
d="M83 679q0 100 25.5 190.5t72 169t112 142t145.5 109t171.5 70t191.5 24.5q149 0 280 -54t228 -149t153 -224t56 -278q0 -102 -25.5 -194t-72 -170t-112 -141.5t-145 -107.5t-171.5 -68t-191 -24q-149 0 -280 53t-228.5 146.5t-153.5 223t-56 282.5zM219 679
q0 -144 44.5 -267.5t122.5 -214.5t184.5 -143t230.5 -52t230.5 52t184.5 143t122.5 214.5t44.5 267.5q0 143 -44.5 266.5t-122.5 215t-184.5 143.5t-230.5 52t-230.5 -52t-184.5 -143.5t-122.5 -215t-44.5 -266.5zM576 1473l224 280l224 -280l-24 -5l-200 148l-200 -148z
" />
    <glyph glyph-name="Otilde" unicode="&#xd5;" horiz-adv-x="1601" 
d="M83 679q0 100 25.5 190.5t72 169t112 142t145.5 109t171.5 70t191.5 24.5q149 0 280 -54t228 -149t153 -224t56 -278q0 -102 -25.5 -194t-72 -170t-112 -141.5t-145 -107.5t-171.5 -68t-191 -24q-149 0 -280 53t-228.5 146.5t-153.5 223t-56 282.5zM219 679
q0 -144 44.5 -267.5t122.5 -214.5t184.5 -143t230.5 -52t230.5 52t184.5 143t122.5 214.5t44.5 267.5q0 143 -44.5 266.5t-122.5 215t-184.5 143.5t-230.5 52t-230.5 -52t-184.5 -143.5t-122.5 -215t-44.5 -266.5zM524 1494q0 35 9.5 64.5t29.5 51.5t50.5 34t72.5 12
q41 0 76.5 -10.5t69 -23t67 -23t71.5 -10.5q32 0 56 22t28 63h22q0 -35 -9.5 -65t-30 -52.5t-51 -35.5t-72.5 -13q-40 0 -76 10.5t-70 23t-66 23t-64 10.5q-82 0 -91 -81h-22z" />
    <glyph glyph-name="Odieresis" unicode="&#xd6;" horiz-adv-x="1601" 
d="M83 679q0 100 25.5 190.5t72 169t112 142t145.5 109t171.5 70t191.5 24.5q149 0 280 -54t228 -149t153 -224t56 -278q0 -102 -25.5 -194t-72 -170t-112 -141.5t-145 -107.5t-171.5 -68t-191 -24q-149 0 -280 53t-228.5 146.5t-153.5 223t-56 282.5zM219 679
q0 -144 44.5 -267.5t122.5 -214.5t184.5 -143t230.5 -52t230.5 52t184.5 143t122.5 214.5t44.5 267.5q0 143 -44.5 266.5t-122.5 215t-184.5 143.5t-230.5 52t-230.5 -52t-184.5 -143.5t-122.5 -215t-44.5 -266.5zM951 1518q-32 0 -54.5 22.5t-22.5 54.5t22.5 54.5
t54.5 22.5t54.5 -22.5t22.5 -54.5t-22.5 -54.5t-54.5 -22.5zM649 1518q-32 0 -54.5 22.5t-22.5 54.5t22.5 54.5t54.5 22.5t54.5 -22.5t22.5 -54.5t-22.5 -54.5t-54.5 -22.5z" />
    <glyph glyph-name="multiply" unicode="&#xd7;" horiz-adv-x="930" 
d="M109 808l18 19l694 -695l-19 -20zM109 132l693 695l19 -19l-694 -696z" />
    <glyph glyph-name="Oslash" unicode="&#xd8;" horiz-adv-x="1601" 
d="M465 -147l648 1655h31l-648 -1655h-31zM1518 679q0 -102 -25.5 -194t-72 -170t-112 -141.5t-145 -107.5t-171.5 -68t-191 -24q-149 0 -280 53t-228.5 146.5t-153.5 223t-56 282.5q0 100 25.5 190.5t72 169t112 142t145.5 109t171.5 70t191.5 24.5q149 0 280 -54t228 -149
t153 -224t56 -278zM801 2q124 0 230.5 52t184.5 143t122.5 214.5t44.5 267.5q0 143 -44.5 266.5t-122.5 215t-184.5 143.5t-230.5 52t-230.5 -52t-184.5 -143.5t-122.5 -215t-44.5 -266.5q0 -144 44.5 -267.5t122.5 -214.5t184.5 -143t230.5 -52z" />
    <glyph glyph-name="Ugrave" unicode="&#xd9;" horiz-adv-x="1179" 
d="M1072 551q0 -69 -5 -131.5t-19.5 -118.5t-40.5 -106t-68 -95q-52 -56 -131 -89.5t-193 -33.5q-46 0 -93.5 6t-93 20.5t-87.5 37.5t-77 57q-47 45 -77.5 97.5t-48 118t-24.5 145.5t-7 180v719h120v-758q0 -92 4.5 -163t15.5 -126t29 -97.5t45 -76.5q103 -132 294 -132
q103 0 177 30.5t125 82.5q40 42 65 92t38.5 106t18 116t4.5 122v804h29v-807zM664 1468l-259 196q-12 9 -22.5 21.5t-10.5 31.5q0 20 13 33t33 13q17 0 30.5 -8.5t25.5 -22.5l220 -259z" />
    <glyph glyph-name="Uacute" unicode="&#xda;" horiz-adv-x="1179" 
d="M1072 551q0 -69 -5 -131.5t-19.5 -118.5t-40.5 -106t-68 -95q-52 -56 -131 -89.5t-193 -33.5q-46 0 -93.5 6t-93 20.5t-87.5 37.5t-77 57q-47 45 -77.5 97.5t-48 118t-24.5 145.5t-7 180v719h120v-758q0 -92 4.5 -163t15.5 -126t29 -97.5t45 -76.5q103 -132 294 -132
q103 0 177 30.5t125 82.5q40 42 65 92t38.5 106t18 116t4.5 122v804h29v-807zM485 1473l220 259q12 14 25.5 22.5t30.5 8.5q20 0 33 -13t13 -33q0 -19 -10.5 -31.5t-22.5 -21.5l-259 -196z" />
    <glyph glyph-name="Ucircumflex" unicode="&#xdb;" horiz-adv-x="1179" 
d="M1072 551q0 -69 -5 -131.5t-19.5 -118.5t-40.5 -106t-68 -95q-52 -56 -131 -89.5t-193 -33.5q-46 0 -93.5 6t-93 20.5t-87.5 37.5t-77 57q-47 45 -77.5 97.5t-48 118t-24.5 145.5t-7 180v719h120v-758q0 -92 4.5 -163t15.5 -126t29 -97.5t45 -76.5q103 -132 294 -132
q103 0 177 30.5t125 82.5q40 42 65 92t38.5 106t18 116t4.5 122v804h29v-807zM404 1473l224 280l224 -280l-24 -5l-200 148l-200 -148z" />
    <glyph glyph-name="Udieresis" unicode="&#xdc;" horiz-adv-x="1179" 
d="M1072 551q0 -69 -5 -131.5t-19.5 -118.5t-40.5 -106t-68 -95q-52 -56 -131 -89.5t-193 -33.5q-46 0 -93.5 6t-93 20.5t-87.5 37.5t-77 57q-47 45 -77.5 97.5t-48 118t-24.5 145.5t-7 180v719h120v-758q0 -92 4.5 -163t15.5 -126t29 -97.5t45 -76.5q103 -132 294 -132
q103 0 177 30.5t125 82.5q40 42 65 92t38.5 106t18 116t4.5 122v804h29v-807zM779 1518q-32 0 -54.5 22.5t-22.5 54.5t22.5 54.5t54.5 22.5t54.5 -22.5t22.5 -54.5t-22.5 -54.5t-54.5 -22.5zM477 1518q-32 0 -54.5 22.5t-22.5 54.5t22.5 54.5t54.5 22.5t54.5 -22.5
t22.5 -54.5t-22.5 -54.5t-54.5 -22.5z" />
    <glyph glyph-name="Yacute" unicode="&#xdd;" horiz-adv-x="1164" 
d="M519 584l-458 774h131l441 -745l437 745h33l-464 -792v-566h-120v584zM539 1473l220 259q12 14 25.5 22.5t30.5 8.5q20 0 33 -13t13 -33q0 -19 -10.5 -31.5t-22.5 -21.5l-259 -196z" />
    <glyph glyph-name="Thorn" unicode="&#xde;" horiz-adv-x="1004" 
d="M127 1358h120v-249h222q94 0 180 -22t150.5 -67t103 -114.5t38.5 -164.5t-38.5 -164t-103 -114t-150.5 -67t-180 -22h-222v-374h-120v1358zM451 402q180 0 269.5 86.5t89.5 252.5t-89.5 253t-269.5 87h-204v-679h204z" />
    <glyph glyph-name="germandbls" unicode="&#xdf;" horiz-adv-x="1019" 
d="M123 903q0 103 24.5 190t73 150t121.5 98.5t170 35.5q69 0 117.5 -17.5t78.5 -46.5t44 -67t14 -79q0 -47 -15 -82.5t-38 -64t-49 -52t-49 -48t-38 -51.5t-15 -61q0 -47 28.5 -85t71.5 -73t93 -72t93 -82.5t71.5 -103.5t28.5 -135q0 -69 -23.5 -120.5t-65.5 -86
t-99.5 -51.5t-124.5 -17q-74 0 -124 17t-81 38q-36 24 -57 55v74q24 -44 60 -78q15 -15 35 -29t44 -25t53 -17.5t63 -6.5q95 0 151 53.5t56 152.5q0 69 -26.5 122.5t-66 98.5t-86 84.5t-86 78.5t-66 81.5t-26.5 94.5q0 44 19.5 76.5t48 59.5t62.5 52t62.5 54t48 65t19.5 86
q0 41 -14.5 74t-41 56.5t-65 36.5t-86.5 13q-52 0 -105 -18t-96.5 -65.5t-71 -129.5t-27.5 -209v-927h-108v903z" />
    <glyph glyph-name="agrave" unicode="&#xe0;" horiz-adv-x="964" 
d="M904 23q-6 -7 -16 -12q-8 -5 -21.5 -8t-32.5 -3q-66 0 -107.5 49t-59.5 131q-11 -29 -33 -62.5t-58 -63t-88 -49t-125 -19.5q-62 0 -113.5 15.5t-89 45.5t-58.5 74.5t-21 102.5q0 64 26 109t73.5 79t113 61.5t144.5 56.5q59 22 99.5 39t65 35t35 40.5t10.5 56.5
t-10.5 64.5t-33 53t-58 35.5t-84.5 13q-68 0 -119 -21t-86.5 -47t-54 -48t-19.5 -25v74q30 26 72 47q36 18 90 33t127 15q70 0 119 -15t81 -39.5t50 -55.5t27 -62t11 -59.5t2 -48.5v-363q0 -80 10.5 -125t24.5 -67t29.5 -27t24.5 -5q11 0 21 2.5t17 5.5q8 4 15 8v-21z
M654 564v39t-1 37q-10 -23 -26 -39.5t-41 -32.5t-61 -32.5t-85 -37.5q-57 -25 -102.5 -51t-77.5 -58t-49 -72t-17 -93q0 -51 16 -90.5t43.5 -66t64 -40t78.5 -13.5q48 0 90.5 16.5t77 45t59.5 65.5t37 78q-6 45 -6 98v247zM559 1008l-259 196q-12 9 -22.5 21.5t-10.5 31.5
q0 20 13 33t33 13q17 0 30.5 -8.5t25.5 -22.5l220 -259z" />
    <glyph glyph-name="aacute" unicode="&#xe1;" horiz-adv-x="964" 
d="M904 23q-6 -7 -16 -12q-8 -5 -21.5 -8t-32.5 -3q-66 0 -107.5 49t-59.5 131q-11 -29 -33 -62.5t-58 -63t-88 -49t-125 -19.5q-62 0 -113.5 15.5t-89 45.5t-58.5 74.5t-21 102.5q0 64 26 109t73.5 79t113 61.5t144.5 56.5q59 22 99.5 39t65 35t35 40.5t10.5 56.5
t-10.5 64.5t-33 53t-58 35.5t-84.5 13q-68 0 -119 -21t-86.5 -47t-54 -48t-19.5 -25v74q30 26 72 47q36 18 90 33t127 15q70 0 119 -15t81 -39.5t50 -55.5t27 -62t11 -59.5t2 -48.5v-363q0 -80 10.5 -125t24.5 -67t29.5 -27t24.5 -5q11 0 21 2.5t17 5.5q8 4 15 8v-21z
M654 564v39t-1 37q-10 -23 -26 -39.5t-41 -32.5t-61 -32.5t-85 -37.5q-57 -25 -102.5 -51t-77.5 -58t-49 -72t-17 -93q0 -51 16 -90.5t43.5 -66t64 -40t78.5 -13.5q48 0 90.5 16.5t77 45t59.5 65.5t37 78q-6 45 -6 98v247zM330 1013l220 259q12 14 25.5 22.5t30.5 8.5
q20 0 33 -13t13 -33q0 -19 -10.5 -31.5t-22.5 -21.5l-259 -196z" />
    <glyph glyph-name="acircumflex" unicode="&#xe2;" horiz-adv-x="964" 
d="M904 23q-6 -7 -16 -12q-8 -5 -21.5 -8t-32.5 -3q-66 0 -107.5 49t-59.5 131q-11 -29 -33 -62.5t-58 -63t-88 -49t-125 -19.5q-62 0 -113.5 15.5t-89 45.5t-58.5 74.5t-21 102.5q0 64 26 109t73.5 79t113 61.5t144.5 56.5q59 22 99.5 39t65 35t35 40.5t10.5 56.5
t-10.5 64.5t-33 53t-58 35.5t-84.5 13q-68 0 -119 -21t-86.5 -47t-54 -48t-19.5 -25v74q30 26 72 47q36 18 90 33t127 15q70 0 119 -15t81 -39.5t50 -55.5t27 -62t11 -59.5t2 -48.5v-363q0 -80 10.5 -125t24.5 -67t29.5 -27t24.5 -5q11 0 21 2.5t17 5.5q8 4 15 8v-21z
M654 564v39t-1 37q-10 -23 -26 -39.5t-41 -32.5t-61 -32.5t-85 -37.5q-57 -25 -102.5 -51t-77.5 -58t-49 -72t-17 -93q0 -51 16 -90.5t43.5 -66t64 -40t78.5 -13.5q48 0 90.5 16.5t77 45t59.5 65.5t37 78q-6 45 -6 98v247zM238 1013l224 280l224 -280l-24 -5l-200 148
l-200 -148z" />
    <glyph glyph-name="atilde" unicode="&#xe3;" horiz-adv-x="964" 
d="M904 23q-6 -7 -16 -12q-8 -5 -21.5 -8t-32.5 -3q-66 0 -107.5 49t-59.5 131q-11 -29 -33 -62.5t-58 -63t-88 -49t-125 -19.5q-62 0 -113.5 15.5t-89 45.5t-58.5 74.5t-21 102.5q0 64 26 109t73.5 79t113 61.5t144.5 56.5q59 22 99.5 39t65 35t35 40.5t10.5 56.5
t-10.5 64.5t-33 53t-58 35.5t-84.5 13q-68 0 -119 -21t-86.5 -47t-54 -48t-19.5 -25v74q30 26 72 47q36 18 90 33t127 15q70 0 119 -15t81 -39.5t50 -55.5t27 -62t11 -59.5t2 -48.5v-363q0 -80 10.5 -125t24.5 -67t29.5 -27t24.5 -5q11 0 21 2.5t17 5.5q8 4 15 8v-21z
M654 564v39t-1 37q-10 -23 -26 -39.5t-41 -32.5t-61 -32.5t-85 -37.5q-57 -25 -102.5 -51t-77.5 -58t-49 -72t-17 -93q0 -51 16 -90.5t43.5 -66t64 -40t78.5 -13.5q48 0 90.5 16.5t77 45t59.5 65.5t37 78q-6 45 -6 98v247zM202 1035q0 35 9.5 64.5t29.5 51.5t50.5 34
t72.5 12q41 0 76.5 -10.5t69 -23t67 -23t71.5 -10.5q32 0 56 22t28 63h22q0 -35 -9.5 -65t-30 -52.5t-51 -35.5t-72.5 -13q-40 0 -76 10.5t-70 23t-66 23t-64 10.5q-82 0 -91 -81h-22z" />
    <glyph glyph-name="adieresis" unicode="&#xe4;" horiz-adv-x="964" 
d="M904 23q-6 -7 -16 -12q-8 -5 -21.5 -8t-32.5 -3q-66 0 -107.5 49t-59.5 131q-11 -29 -33 -62.5t-58 -63t-88 -49t-125 -19.5q-62 0 -113.5 15.5t-89 45.5t-58.5 74.5t-21 102.5q0 64 26 109t73.5 79t113 61.5t144.5 56.5q59 22 99.5 39t65 35t35 40.5t10.5 56.5
t-10.5 64.5t-33 53t-58 35.5t-84.5 13q-68 0 -119 -21t-86.5 -47t-54 -48t-19.5 -25v74q30 26 72 47q36 18 90 33t127 15q70 0 119 -15t81 -39.5t50 -55.5t27 -62t11 -59.5t2 -48.5v-363q0 -80 10.5 -125t24.5 -67t29.5 -27t24.5 -5q11 0 21 2.5t17 5.5q8 4 15 8v-21z
M654 564v39t-1 37q-10 -23 -26 -39.5t-41 -32.5t-61 -32.5t-85 -37.5q-57 -25 -102.5 -51t-77.5 -58t-49 -72t-17 -93q0 -51 16 -90.5t43.5 -66t64 -40t78.5 -13.5q48 0 90.5 16.5t77 45t59.5 65.5t37 78q-6 45 -6 98v247zM613 1058q-32 0 -54.5 22.5t-22.5 54.5t22.5 54.5
t54.5 22.5t54.5 -22.5t22.5 -54.5t-22.5 -54.5t-54.5 -22.5zM311 1058q-32 0 -54.5 22.5t-22.5 54.5t22.5 54.5t54.5 22.5t54.5 -22.5t22.5 -54.5t-22.5 -54.5t-54.5 -22.5z" />
    <glyph glyph-name="aring" unicode="&#xe5;" horiz-adv-x="964" 
d="M904 23q-6 -7 -16 -12q-8 -5 -21.5 -8t-32.5 -3q-66 0 -107.5 49t-59.5 131q-11 -29 -33 -62.5t-58 -63t-88 -49t-125 -19.5q-62 0 -113.5 15.5t-89 45.5t-58.5 74.5t-21 102.5q0 64 26 109t73.5 79t113 61.5t144.5 56.5q59 22 99.5 39t65 35t35 40.5t10.5 56.5
t-10.5 64.5t-33 53t-58 35.5t-84.5 13q-68 0 -119 -21t-86.5 -47t-54 -48t-19.5 -25v74q30 26 72 47q36 18 90 33t127 15q70 0 119 -15t81 -39.5t50 -55.5t27 -62t11 -59.5t2 -48.5v-363q0 -80 10.5 -125t24.5 -67t29.5 -27t24.5 -5q11 0 21 2.5t17 5.5q8 4 15 8v-21z
M654 564v39t-1 37q-10 -23 -26 -39.5t-41 -32.5t-61 -32.5t-85 -37.5q-57 -25 -102.5 -51t-77.5 -58t-49 -72t-17 -93q0 -51 16 -90.5t43.5 -66t64 -40t78.5 -13.5q48 0 90.5 16.5t77 45t59.5 65.5t37 78q-6 45 -6 98v247zM462 1014q-34 0 -63.5 8.5t-52 25t-35.5 40
t-13 52.5q0 30 13 54t35.5 40.5t52 25.5t63.5 9t64 -9t52.5 -25.5t35.5 -40.5t13 -54q0 -29 -13 -52.5t-35.5 -40t-52.5 -25t-64 -8.5zM462 1036q35 0 60.5 25t25.5 79t-25.5 79.5t-60.5 25.5t-60 -25.5t-25 -79.5t25 -79t60 -25z" />
    <glyph glyph-name="ae" unicode="&#xe6;" horiz-adv-x="1470" 
d="M1323 106q-26 -34 -66 -60q-34 -23 -86 -41.5t-124 -18.5q-143 0 -232.5 67.5t-129.5 190.5q-8 -37 -28 -82t-57.5 -84t-95 -65.5t-141.5 -26.5q-62 0 -113.5 15.5t-89 46t-58.5 74.5t-21 101q0 64 26.5 109.5t74 79.5t113 61.5t143.5 56.5q59 22 99.5 39t65 35t35 40.5
t10.5 56.5t-10.5 64.5t-33 53t-58 35.5t-84.5 13q-68 0 -119 -21t-86.5 -47t-54 -48t-19.5 -25v74q30 26 72 47q36 18 90 33t127 15q62 0 107 -12t76.5 -32t51.5 -46t31 -53q51 69 124.5 106t160.5 37q80 0 146 -32t114 -88.5t74.5 -134.5t27.5 -171h-633v-30
q0 -78 15.5 -154t50 -136.5t91 -97.5t138.5 -37q74 0 125.5 25t84.5 55.5t48.5 57t17.5 29.5v-75zM1269 497q-1 83 -16.5 151.5t-46 117t-77 75t-109.5 26.5q-61 0 -108.5 -26.5t-81 -74.5t-53 -116.5t-24.5 -152.5h516zM654 564v39t-1 37q-10 -23 -26 -39.5t-41 -32.5
t-61 -32.5t-85 -37.5q-57 -25 -102.5 -51t-77.5 -58t-49 -72.5t-17 -92.5q0 -51 16 -90.5t43 -66t64 -40t79 -13.5q50 0 97 18.5t84.5 53.5t62.5 86.5t32 116.5q-18 79 -18 178v97z" />
    <glyph glyph-name="ccedilla" unicode="&#xe7;" horiz-adv-x="906" 
d="M488 -12q-87 6 -162 41.5t-130 94t-86.5 139t-31.5 176.5q0 95 33.5 178.5t92 145t139 97t174.5 35.5q68 0 118 -12.5t84 -27.5q40 -18 68 -40v-77q-25 36 -63 64q-33 24 -84 44.5t-123 20.5q-77 0 -137 -32.5t-102 -89.5t-64 -135.5t-22 -170.5q0 -97 25 -175.5
t70.5 -134t110.5 -85.5t145 -30q71 0 120.5 21t81.5 47q37 30 62 69v-77q-29 -25 -70 -44q-35 -17 -88 -30.5t-125 -13.5l-76 -81q24 0 53 -9t54 -28t42 -47t17 -66q0 -65 -50 -105t-138 -40q-28 0 -48 2.5t-34 6.5q-16 4 -27 10l-5 24q14 -5 30 -9q14 -3 31.5 -5.5
t37.5 -2.5q65 0 96.5 33t31.5 80q0 34 -15 59t-40 41.5t-56.5 25t-64.5 8.5z" />
    <glyph glyph-name="egrave" unicode="&#xe8;" horiz-adv-x="940" 
d="M799 106q-29 -34 -71 -60q-36 -23 -92 -41.5t-133 -18.5q-102 0 -181 37t-133 99.5t-82.5 144.5t-28.5 172q0 95 29.5 178.5t83 145t127.5 97t164 35.5q86 0 155 -33t118 -90.5t77 -135t33 -167.5h-673v-30q0 -78 17.5 -154t55 -136.5t96.5 -97.5t142 -37q78 0 133.5 25
t91 55.5t52.5 57t19 29.5v-75zM749 497q-5 81 -22.5 148.5t-49.5 117t-80.5 77t-114.5 27.5q-63 0 -113.5 -26t-87.5 -74t-59 -116.5t-28 -153.5h555zM581 1008l-259 196q-12 9 -22.5 21.5t-10.5 31.5q0 20 13 33t33 13q17 0 30.5 -8.5t25.5 -22.5l220 -259z" />
    <glyph glyph-name="eacute" unicode="&#xe9;" horiz-adv-x="940" 
d="M799 106q-29 -34 -71 -60q-36 -23 -92 -41.5t-133 -18.5q-102 0 -181 37t-133 99.5t-82.5 144.5t-28.5 172q0 95 29.5 178.5t83 145t127.5 97t164 35.5q86 0 155 -33t118 -90.5t77 -135t33 -167.5h-673v-30q0 -78 17.5 -154t55 -136.5t96.5 -97.5t142 -37q78 0 133.5 25
t91 55.5t52.5 57t19 29.5v-75zM749 497q-5 81 -22.5 148.5t-49.5 117t-80.5 77t-114.5 27.5q-63 0 -113.5 -26t-87.5 -74t-59 -116.5t-28 -153.5h555zM341 1013l220 259q12 14 25.5 22.5t30.5 8.5q20 0 33 -13t13 -33q0 -19 -10.5 -31.5t-22.5 -21.5l-259 -196z" />
    <glyph glyph-name="ecircumflex" unicode="&#xea;" horiz-adv-x="940" 
d="M799 106q-29 -34 -71 -60q-36 -23 -92 -41.5t-133 -18.5q-102 0 -181 37t-133 99.5t-82.5 144.5t-28.5 172q0 95 29.5 178.5t83 145t127.5 97t164 35.5q86 0 155 -33t118 -90.5t77 -135t33 -167.5h-673v-30q0 -78 17.5 -154t55 -136.5t96.5 -97.5t142 -37q78 0 133.5 25
t91 55.5t52.5 57t19 29.5v-75zM749 497q-5 81 -22.5 148.5t-49.5 117t-80.5 77t-114.5 27.5q-63 0 -113.5 -26t-87.5 -74t-59 -116.5t-28 -153.5h555zM677 1008l-200 148l-200 -148l-24 5l224 280l224 -280z" />
    <glyph glyph-name="edieresis" unicode="&#xeb;" horiz-adv-x="940" 
d="M799 106q-29 -34 -71 -60q-36 -23 -92 -41.5t-133 -18.5q-102 0 -181 37t-133 99.5t-82.5 144.5t-28.5 172q0 95 29.5 178.5t83 145t127.5 97t164 35.5q86 0 155 -33t118 -90.5t77 -135t33 -167.5h-673v-30q0 -78 17.5 -154t55 -136.5t96.5 -97.5t142 -37q78 0 133.5 25
t91 55.5t52.5 57t19 29.5v-75zM749 497q-5 81 -22.5 148.5t-49.5 117t-80.5 77t-114.5 27.5q-63 0 -113.5 -26t-87.5 -74t-59 -116.5t-28 -153.5h555zM327 1058q-32 0 -54.5 22.5t-22.5 54.5t22.5 54.5t54.5 22.5t54.5 -22.5t22.5 -54.5t-22.5 -54.5t-54.5 -22.5zM629 1058
q-32 0 -54.5 22.5t-22.5 54.5t22.5 54.5t54.5 22.5t54.5 -22.5t22.5 -54.5t-22.5 -54.5t-54.5 -22.5z" />
    <glyph glyph-name="igrave" unicode="&#xec;" horiz-adv-x="378" 
d="M135 878h108v-878h-108v878zM294 1008l-259 196q-12 9 -22.5 21.5t-10.5 31.5q0 20 13 33t33 13q17 0 30.5 -8.5t25.5 -22.5l220 -259z" />
    <glyph glyph-name="iacute" unicode="&#xed;" horiz-adv-x="378" 
d="M135 878h108v-878h-108v878zM54 1013l220 259q12 14 25.5 22.5t30.5 8.5q20 0 33 -13t13 -33q0 -19 -10.5 -31.5t-22.5 -21.5l-259 -196z" />
    <glyph glyph-name="icircumflex" unicode="&#xee;" horiz-adv-x="378" 
d="M135 878h108v-878h-108v878zM-35 1013l224 280l224 -280l-24 -5l-200 148l-200 -148z" />
    <glyph glyph-name="idieresis" unicode="&#xef;" horiz-adv-x="378" 
d="M135 878h108v-878h-108v878zM340 1058q-32 0 -54.5 22.5t-22.5 54.5t22.5 54.5t54.5 22.5t54.5 -22.5t22.5 -54.5t-22.5 -54.5t-54.5 -22.5zM38 1058q-32 0 -54.5 22.5t-22.5 54.5t22.5 54.5t54.5 22.5t54.5 -22.5t22.5 -54.5t-22.5 -54.5t-54.5 -22.5z" />
    <glyph glyph-name="eth" unicode="&#xf0;" horiz-adv-x="989" 
d="M556 1187q64 -51 126.5 -121t111.5 -161.5t79.5 -207.5t30.5 -258q0 -95 -31 -178t-86 -144t-130.5 -96t-165.5 -35t-165.5 35t-130.5 96t-86 144t-31 178q0 96 31 179t86 144.5t130.5 97t165.5 35.5q66 0 124 -19.5t107 -54.5q-44 111 -102.5 193t-120.5 142l-277 -147
l-14 25l269 143q-51 45 -97.5 76t-82.5 51q-42 23 -79 37l21 16q41 -13 89 -34q41 -18 93.5 -46.5t109.5 -70.5l284 151l14 -25zM193 439q0 -92 19.5 -170t57.5 -134.5t93.5 -88.5t127.5 -32t127.5 32t93.5 88.5t57.5 134.5t19.5 170t-19.5 170.5t-57.5 135.5t-93.5 89.5
t-127.5 32.5t-127.5 -32.5t-93.5 -89.5t-57.5 -135.5t-19.5 -170.5z" />
    <glyph glyph-name="ntilde" unicode="&#xf1;" horiz-adv-x="980" 
d="M123 878h108v-343q7 36 19.5 77t32 81t47 76.5t64 64.5t82.5 44.5t104 16.5q72 0 125 -27t88.5 -72.5t52.5 -106.5t17 -129v-560h-108v560q0 51 -5.5 105.5t-25 99.5t-57.5 73.5t-104 28.5q-54 0 -99.5 -20.5t-82.5 -55.5t-65 -81.5t-47 -99t-28.5 -108t-9.5 -107.5v-395
h-108v878zM226 1034q0 35 9.5 64.5t29.5 51.5t50.5 34t72.5 12q41 0 76.5 -10.5t69 -23t67 -23t71.5 -10.5q32 0 56 22t28 63h22q0 -35 -9.5 -65t-30 -52.5t-51 -35.5t-72.5 -13q-40 0 -76 10.5t-70 23t-66 23t-64 10.5q-82 0 -91 -81h-22z" />
    <glyph glyph-name="ograve" unicode="&#xf2;" horiz-adv-x="992" 
d="M78 437q0 95 31.5 178.5t87.5 145.5t132.5 98t166.5 36t166.5 -36t132.5 -98t87.5 -145.5t31.5 -178.5q0 -96 -31.5 -178t-87.5 -143t-132.5 -95.5t-166.5 -34.5t-166.5 34.5t-132.5 95.5t-87.5 143t-31.5 178zM192 437q0 -92 20.5 -170t59.5 -134t95.5 -87.5
t128.5 -31.5t128.5 31.5t96 87.5t60 134t20.5 170t-20.5 170.5t-60 136.5t-96 90.5t-128.5 32.5t-128.5 -32.5t-95.5 -90.5t-59.5 -136.5t-20.5 -170.5zM624 1008l-259 196q-12 9 -22.5 21.5t-10.5 31.5q0 20 13 33t33 13q17 0 30.5 -8.5t25.5 -22.5l220 -259z" />
    <glyph glyph-name="oacute" unicode="&#xf3;" horiz-adv-x="992" 
d="M78 437q0 95 31.5 178.5t87.5 145.5t132.5 98t166.5 36t166.5 -36t132.5 -98t87.5 -145.5t31.5 -178.5q0 -96 -31.5 -178t-87.5 -143t-132.5 -95.5t-166.5 -34.5t-166.5 34.5t-132.5 95.5t-87.5 143t-31.5 178zM192 437q0 -92 20.5 -170t59.5 -134t95.5 -87.5
t128.5 -31.5t128.5 31.5t96 87.5t60 134t20.5 170t-20.5 170.5t-60 136.5t-96 90.5t-128.5 32.5t-128.5 -32.5t-95.5 -90.5t-59.5 -136.5t-20.5 -170.5zM329 1013l220 259q12 14 25.5 22.5t30.5 8.5q20 0 33 -13t13 -33q0 -19 -10.5 -31.5t-22.5 -21.5l-259 -196z" />
    <glyph glyph-name="ocircumflex" unicode="&#xf4;" horiz-adv-x="992" 
d="M78 437q0 95 31.5 178.5t87.5 145.5t132.5 98t166.5 36t166.5 -36t132.5 -98t87.5 -145.5t31.5 -178.5q0 -96 -31.5 -178t-87.5 -143t-132.5 -95.5t-166.5 -34.5t-166.5 34.5t-132.5 95.5t-87.5 143t-31.5 178zM192 437q0 -92 20.5 -170t59.5 -134t95.5 -87.5
t128.5 -31.5t128.5 31.5t96 87.5t60 134t20.5 170t-20.5 170.5t-60 136.5t-96 90.5t-128.5 32.5t-128.5 -32.5t-95.5 -90.5t-59.5 -136.5t-20.5 -170.5zM272 1013l224 280l224 -280l-24 -5l-200 148l-200 -148z" />
    <glyph glyph-name="otilde" unicode="&#xf5;" horiz-adv-x="992" 
d="M78 437q0 95 31.5 178.5t87.5 145.5t132.5 98t166.5 36t166.5 -36t132.5 -98t87.5 -145.5t31.5 -178.5q0 -96 -31.5 -178t-87.5 -143t-132.5 -95.5t-166.5 -34.5t-166.5 34.5t-132.5 95.5t-87.5 143t-31.5 178zM192 437q0 -92 20.5 -170t59.5 -134t95.5 -87.5
t128.5 -31.5t128.5 31.5t96 87.5t60 134t20.5 170t-20.5 170.5t-60 136.5t-96 90.5t-128.5 32.5t-128.5 -32.5t-95.5 -90.5t-59.5 -136.5t-20.5 -170.5zM226 1034q0 35 9.5 64.5t29.5 51.5t50.5 34t72.5 12q41 0 76.5 -10.5t69 -23t67 -23t71.5 -10.5q32 0 56 22t28 63h22
q0 -35 -9.5 -65t-30 -52.5t-51 -35.5t-72.5 -13q-40 0 -76 10.5t-70 23t-66 23t-64 10.5q-82 0 -91 -81h-22z" />
    <glyph glyph-name="odieresis" unicode="&#xf6;" horiz-adv-x="992" 
d="M78 437q0 95 31.5 178.5t87.5 145.5t132.5 98t166.5 36t166.5 -36t132.5 -98t87.5 -145.5t31.5 -178.5q0 -96 -31.5 -178t-87.5 -143t-132.5 -95.5t-166.5 -34.5t-166.5 34.5t-132.5 95.5t-87.5 143t-31.5 178zM192 437q0 -92 20.5 -170t59.5 -134t95.5 -87.5
t128.5 -31.5t128.5 31.5t96 87.5t60 134t20.5 170t-20.5 170.5t-60 136.5t-96 90.5t-128.5 32.5t-128.5 -32.5t-95.5 -90.5t-59.5 -136.5t-20.5 -170.5zM647 1058q-32 0 -54.5 22.5t-22.5 54.5t22.5 54.5t54.5 22.5t54.5 -22.5t22.5 -54.5t-22.5 -54.5t-54.5 -22.5z
M345 1058q-32 0 -54.5 22.5t-22.5 54.5t22.5 54.5t54.5 22.5t54.5 -22.5t22.5 -54.5t-22.5 -54.5t-54.5 -22.5z" />
    <glyph glyph-name="divide" unicode="&#xf7;" horiz-adv-x="1096" 
d="M547 692q-38 0 -63.5 26t-25.5 63q0 38 25.5 63.5t63.5 25.5q37 0 63 -25.5t26 -63.5q0 -37 -26 -63t-63 -26zM109 483h878v-28h-878v28zM458 155q0 37 25.5 63t63.5 26q37 0 63 -26t26 -63q0 -38 -26 -64t-63 -26q-38 0 -63.5 26t-25.5 64z" />
    <glyph glyph-name="oslash" unicode="&#xf8;" horiz-adv-x="992" 
d="M153 -127l653 1133h33l-653 -1133h-33zM78 437q0 95 31.5 178.5t87.5 145.5t132.5 98t166.5 36t166.5 -36t132.5 -98t87.5 -145.5t31.5 -178.5q0 -96 -31.5 -178t-87.5 -143t-132.5 -95.5t-166.5 -34.5t-166.5 34.5t-132.5 95.5t-87.5 143t-31.5 178zM192 437
q0 -92 20.5 -170t59.5 -134t95.5 -87.5t128.5 -31.5t128.5 31.5t96 87.5t60 134t20.5 170t-20.5 170.5t-60 136.5t-96 90.5t-128.5 32.5t-128.5 -32.5t-95.5 -90.5t-59.5 -136.5t-20.5 -170.5z" />
    <glyph glyph-name="ugrave" unicode="&#xf9;" horiz-adv-x="980" 
d="M117 878h108v-560q0 -51 5.5 -105t25 -98.5t57.5 -72.5t104 -28q54 0 99.5 20t82.5 55t65 81t47 98.5t28.5 107.5t9.5 107v395h108v-878h-108v343q-7 -36 -20 -76.5t-32.5 -80.5t-46.5 -76t-63 -63.5t-82.5 -44t-103.5 -16.5q-72 0 -125.5 26.5t-89 71.5t-52.5 105.5
t-17 128.5v560zM631 1008l-259 196q-12 9 -22.5 21.5t-10.5 31.5q0 20 13 33t33 13q17 0 30.5 -8.5t25.5 -22.5l220 -259z" />
    <glyph glyph-name="uacute" unicode="&#xfa;" horiz-adv-x="980" 
d="M117 878h108v-560q0 -51 5.5 -105t25 -98.5t57.5 -72.5t104 -28q54 0 99.5 20t82.5 55t65 81t47 98.5t28.5 107.5t9.5 107v395h108v-878h-108v343q-7 -36 -20 -76.5t-32.5 -80.5t-46.5 -76t-63 -63.5t-82.5 -44t-103.5 -16.5q-72 0 -125.5 26.5t-89 71.5t-52.5 105.5
t-17 128.5v560zM339 1013l220 259q12 14 25.5 22.5t30.5 8.5q20 0 33 -13t13 -33q0 -19 -10.5 -31.5t-22.5 -21.5l-259 -196z" />
    <glyph glyph-name="ucircumflex" unicode="&#xfb;" horiz-adv-x="980" 
d="M117 878h108v-560q0 -51 5.5 -105t25 -98.5t57.5 -72.5t104 -28q54 0 99.5 20t82.5 55t65 81t47 98.5t28.5 107.5t9.5 107v395h108v-878h-108v343q-7 -36 -20 -76.5t-32.5 -80.5t-46.5 -76t-63 -63.5t-82.5 -44t-103.5 -16.5q-72 0 -125.5 26.5t-89 71.5t-52.5 105.5
t-17 128.5v560zM263 1013l224 280l224 -280l-24 -5l-200 148l-200 -148z" />
    <glyph glyph-name="udieresis" unicode="&#xfc;" horiz-adv-x="980" 
d="M117 878h108v-560q0 -51 5.5 -105t25 -98.5t57.5 -72.5t104 -28q54 0 99.5 20t82.5 55t65 81t47 98.5t28.5 107.5t9.5 107v395h108v-878h-108v343q-7 -36 -20 -76.5t-32.5 -80.5t-46.5 -76t-63 -63.5t-82.5 -44t-103.5 -16.5q-72 0 -125.5 26.5t-89 71.5t-52.5 105.5
t-17 128.5v560zM638 1058q-32 0 -54.5 22.5t-22.5 54.5t22.5 54.5t54.5 22.5t54.5 -22.5t22.5 -54.5t-22.5 -54.5t-54.5 -22.5zM336 1058q-32 0 -54.5 22.5t-22.5 54.5t22.5 54.5t54.5 22.5t54.5 -22.5t22.5 -54.5t-22.5 -54.5t-54.5 -22.5z" />
    <glyph glyph-name="yacute" unicode="&#xfd;" horiz-adv-x="912" 
d="M68 878h117l321 -730l321 730h31l-587 -1336h-32l208 472zM398 1013l220 259q12 14 25.5 22.5t30.5 8.5q20 0 33 -13t13 -33q0 -19 -10.5 -31.5t-22.5 -21.5l-259 -196z" />
    <glyph glyph-name="thorn" unicode="&#xfe;" horiz-adv-x="1026" 
d="M231 -458h-108v1816h108v-647q45 85 120.5 134.5t184.5 49.5q90 0 165.5 -35.5t130 -97t85.5 -144.5t31 -179q0 -95 -31 -178t-85.5 -144t-130 -96t-165.5 -35q-109 0 -184.5 49t-120.5 133v-626zM231 439q0 -92 20.5 -170t60 -134.5t96 -88.5t128.5 -32t127.5 32
t94 88.5t58 134.5t19.5 170t-19.5 170.5t-58 135.5t-94 89.5t-127.5 32.5t-128.5 -32.5t-96 -89.5t-60 -135.5t-20.5 -170.5z" />
    <glyph glyph-name="ydieresis" unicode="&#xff;" horiz-adv-x="912" 
d="M68 878h117l321 -730l321 730h31l-587 -1336h-32l208 472zM645 1058q-32 0 -54.5 22.5t-22.5 54.5t22.5 54.5t54.5 22.5t54.5 -22.5t22.5 -54.5t-22.5 -54.5t-54.5 -22.5zM343 1058q-32 0 -54.5 22.5t-22.5 54.5t22.5 54.5t54.5 22.5t54.5 -22.5t22.5 -54.5t-22.5 -54.5
t-54.5 -22.5z" />
    <glyph glyph-name="Amacron" unicode="&#x100;" horiz-adv-x="1228" 
d="M614 1393l547 -1393h-126l-166 424h-605l-166 -424h-31zM858 452l-291 742l-292 -742h583zM372 1585h485v-53h-485v53z" />
    <glyph glyph-name="amacron" unicode="&#x101;" horiz-adv-x="964" 
d="M904 23q-6 -7 -16 -12q-8 -5 -21.5 -8t-32.5 -3q-66 0 -107.5 49t-59.5 131q-11 -29 -33 -62.5t-58 -63t-88 -49t-125 -19.5q-62 0 -113.5 15.5t-89 45.5t-58.5 74.5t-21 102.5q0 64 26 109t73.5 79t113 61.5t144.5 56.5q59 22 99.5 39t65 35t35 40.5t10.5 56.5
t-10.5 64.5t-33 53t-58 35.5t-84.5 13q-68 0 -119 -21t-86.5 -47t-54 -48t-19.5 -25v74q30 26 72 47q36 18 90 33t127 15q70 0 119 -15t81 -39.5t50 -55.5t27 -62t11 -59.5t2 -48.5v-363q0 -80 10.5 -125t24.5 -67t29.5 -27t24.5 -5q11 0 21 2.5t17 5.5q8 4 15 8v-21z
M654 564v39t-1 37q-10 -23 -26 -39.5t-41 -32.5t-61 -32.5t-85 -37.5q-57 -25 -102.5 -51t-77.5 -58t-49 -72t-17 -93q0 -51 16 -90.5t43.5 -66t64 -40t78.5 -13.5q48 0 90.5 16.5t77 45t59.5 65.5t37 78q-6 45 -6 98v247zM220 1125h485v-53h-485v53z" />
    <glyph glyph-name="Abreve" unicode="&#x102;" horiz-adv-x="1228" 
d="M614 1393l547 -1393h-126l-166 424h-605l-166 -424h-31zM858 452l-291 742l-292 -742h583zM837 1708q0 -54 -17.5 -98t-47.5 -75.5t-70.5 -48.5t-87.5 -17t-87.5 17t-70.5 48.5t-47.5 75.5t-17.5 98l22 -12q5 -27 20.5 -51.5t41 -44t60.5 -31t79 -11.5t79 11.5t60.5 31
t41 44t20.5 51.5z" />
    <glyph glyph-name="abreve" unicode="&#x103;" horiz-adv-x="964" 
d="M904 23q-6 -7 -16 -12q-8 -5 -21.5 -8t-32.5 -3q-66 0 -107.5 49t-59.5 131q-11 -29 -33 -62.5t-58 -63t-88 -49t-125 -19.5q-62 0 -113.5 15.5t-89 45.5t-58.5 74.5t-21 102.5q0 64 26 109t73.5 79t113 61.5t144.5 56.5q59 22 99.5 39t65 35t35 40.5t10.5 56.5
t-10.5 64.5t-33 53t-58 35.5t-84.5 13q-68 0 -119 -21t-86.5 -47t-54 -48t-19.5 -25v74q30 26 72 47q36 18 90 33t127 15q70 0 119 -15t81 -39.5t50 -55.5t27 -62t11 -59.5t2 -48.5v-363q0 -80 10.5 -125t24.5 -67t29.5 -27t24.5 -5q11 0 21 2.5t17 5.5q8 4 15 8v-21z
M654 564v39t-1 37q-10 -23 -26 -39.5t-41 -32.5t-61 -32.5t-85 -37.5q-57 -25 -102.5 -51t-77.5 -58t-49 -72t-17 -93q0 -51 16 -90.5t43.5 -66t64 -40t78.5 -13.5q48 0 90.5 16.5t77 45t59.5 65.5t37 78q-6 45 -6 98v247zM685 1248q0 -54 -17.5 -98t-47.5 -75.5
t-70.5 -48.5t-87.5 -17t-87.5 17t-70.5 48.5t-47.5 75.5t-17.5 98l22 -12q5 -27 20.5 -51.5t41 -44t60.5 -31t79 -11.5t79 11.5t60.5 31t41 44t20.5 51.5z" />
    <glyph glyph-name="Aogonek" unicode="&#x104;" horiz-adv-x="1228" 
d="M614 1393l547 -1393h-84q-44 -17 -82.5 -42t-67.5 -55t-46 -65.5t-17 -73.5q0 -45 22.5 -67.5t60.5 -22.5q21 0 37.5 5.5t28.5 13.5q14 9 25 20v-28q-16 -13 -35 -24q-17 -9 -41 -16t-54 -7q-57 0 -88 28.5t-31 78.5q0 40 21.5 77t56 69.5t78.5 60t90 48.5l-166 424h-605
l-166 -424h-31zM858 452l-291 742l-292 -742h583z" />
    <glyph glyph-name="aogonek" unicode="&#x105;" horiz-adv-x="964" 
d="M819 -315q-16 -13 -35 -24q-17 -9 -41 -16t-54 -7q-57 0 -88 28.5t-31 78.5q0 40 21.5 77.5t57 70t80 60t90.5 48.5q-59 5 -97 53.5t-55 125.5q-11 -29 -33 -62.5t-58 -63t-88 -49t-125 -19.5q-62 0 -113.5 15.5t-89 45.5t-58.5 74.5t-21 102.5q0 64 26 109t73.5 79
t113 61.5t144.5 56.5q59 22 99.5 39t65 35t35 40.5t10.5 56.5t-10.5 64.5t-33 53t-58 35.5t-84.5 13q-68 0 -119 -21t-86.5 -47t-54 -48t-19.5 -25v74q30 26 72 47q36 18 90 33t127 15q70 0 119 -15t81 -39.5t50 -55.5t27 -62t11 -59.5t2 -48.5v-363q0 -80 10.5 -125
t24.5 -67t29.5 -27t24.5 -5q11 0 21 2.5t17 5.5q8 4 15 8v-21q-4 -2 -8 -6q-4 -3 -10.5 -6.5t-14.5 -5.5q-46 -17 -87 -42t-72 -56t-49 -67.5t-18 -75.5q0 -45 22.5 -67.5t60.5 -22.5q21 0 37.5 5.5t28.5 13.5q14 9 25 20v-28zM654 564v39t-1 37q-10 -23 -26 -39.5
t-41 -32.5t-61 -32.5t-85 -37.5q-57 -25 -102.5 -51t-77.5 -58t-49 -72t-17 -93q0 -51 16 -90.5t43.5 -66t64 -40t78.5 -13.5q48 0 90.5 16.5t77 45t59.5 65.5t37 78q-6 45 -6 98v247z" />
    <glyph glyph-name="Cacute" unicode="&#x106;" horiz-adv-x="1358" 
d="M1241 107q-89 -66 -202.5 -99.5t-246.5 -33.5q-150 0 -279.5 54t-225 148.5t-150 223.5t-54.5 279t54.5 278.5t150 223.5t225 149t279.5 54q119 0 222 -25.5t190 -70.5v-71q-83 66 -188.5 102.5t-223.5 36.5q-122 0 -226.5 -52t-181.5 -143t-120.5 -215t-43.5 -267
q0 -144 43.5 -267.5t120.5 -214.5t181.5 -143t226.5 -52q67 0 130 13.5t120 37.5t107.5 57.5t91.5 73.5v-77zM649 1473l220 259q12 14 25.5 22.5t30.5 8.5q20 0 33 -13t13 -33q0 -19 -10.5 -31.5t-22.5 -21.5l-259 -196z" />
    <glyph glyph-name="cacute" unicode="&#x107;" horiz-adv-x="906" 
d="M807 74q-29 -25 -70 -44q-35 -17 -87.5 -30.5t-122.5 -13.5q-95 0 -176.5 32.5t-142.5 92t-95.5 143t-34.5 185.5q0 95 33.5 178.5t92 145t139 97t174.5 35.5q68 0 118 -12.5t84 -27.5q40 -18 68 -40v-77q-25 36 -63 64q-33 24 -84 44.5t-123 20.5q-77 0 -137 -32.5
t-102 -89.5t-64 -135.5t-22 -170.5q0 -97 25 -175.5t70.5 -134t110.5 -85.5t145 -30q71 0 120.5 21t81.5 47q37 30 62 69v-77zM364 1013l220 259q12 14 25.5 22.5t30.5 8.5q20 0 33 -13t13 -33q0 -19 -10.5 -31.5t-22.5 -21.5l-259 -196z" />
    <glyph glyph-name="Ccircumflex" unicode="&#x108;" horiz-adv-x="1358" 
d="M1241 107q-89 -66 -202.5 -99.5t-246.5 -33.5q-150 0 -279.5 54t-225 148.5t-150 223.5t-54.5 279t54.5 278.5t150 223.5t225 149t279.5 54q119 0 222 -25.5t190 -70.5v-71q-83 66 -188.5 102.5t-223.5 36.5q-122 0 -226.5 -52t-181.5 -143t-120.5 -215t-43.5 -267
q0 -144 43.5 -267.5t120.5 -214.5t181.5 -143t226.5 -52q67 0 130 13.5t120 37.5t107.5 57.5t91.5 73.5v-77zM551 1473l224 280l224 -280l-24 -5l-200 148l-200 -148z" />
    <glyph glyph-name="ccircumflex" unicode="&#x109;" horiz-adv-x="906" 
d="M807 74q-29 -25 -70 -44q-35 -17 -87.5 -30.5t-122.5 -13.5q-95 0 -176.5 32.5t-142.5 92t-95.5 143t-34.5 185.5q0 95 33.5 178.5t92 145t139 97t174.5 35.5q68 0 118 -12.5t84 -27.5q40 -18 68 -40v-77q-25 36 -63 64q-33 24 -84 44.5t-123 20.5q-77 0 -137 -32.5
t-102 -89.5t-64 -135.5t-22 -170.5q0 -97 25 -175.5t70.5 -134t110.5 -85.5t145 -30q71 0 120.5 21t81.5 47q37 30 62 69v-77zM264 1013l224 280l224 -280l-24 -5l-200 148l-200 -148z" />
    <glyph glyph-name="Cdotaccent" unicode="&#x10a;" horiz-adv-x="1358" 
d="M1241 107q-89 -66 -202.5 -99.5t-246.5 -33.5q-150 0 -279.5 54t-225 148.5t-150 223.5t-54.5 279t54.5 278.5t150 223.5t225 149t279.5 54q119 0 222 -25.5t190 -70.5v-71q-83 66 -188.5 102.5t-223.5 36.5q-122 0 -226.5 -52t-181.5 -143t-120.5 -215t-43.5 -267
q0 -144 43.5 -267.5t120.5 -214.5t181.5 -143t226.5 -52q67 0 130 13.5t120 37.5t107.5 57.5t91.5 73.5v-77zM775 1537q-32 0 -54.5 22.5t-22.5 54.5t22.5 54.5t54.5 22.5t54.5 -22.5t22.5 -54.5t-22.5 -54.5t-54.5 -22.5z" />
    <glyph glyph-name="cdotaccent" unicode="&#x10b;" horiz-adv-x="906" 
d="M807 74q-29 -25 -70 -44q-35 -17 -87.5 -30.5t-122.5 -13.5q-95 0 -176.5 32.5t-142.5 92t-95.5 143t-34.5 185.5q0 95 33.5 178.5t92 145t139 97t174.5 35.5q68 0 118 -12.5t84 -27.5q40 -18 68 -40v-77q-25 36 -63 64q-33 24 -84 44.5t-123 20.5q-77 0 -137 -32.5
t-102 -89.5t-64 -135.5t-22 -170.5q0 -97 25 -175.5t70.5 -134t110.5 -85.5t145 -30q71 0 120.5 21t81.5 47q37 30 62 69v-77zM488 1077q-32 0 -54.5 22.5t-22.5 54.5t22.5 54.5t54.5 22.5t54.5 -22.5t22.5 -54.5t-22.5 -54.5t-54.5 -22.5z" />
    <glyph glyph-name="Ccaron" unicode="&#x10c;" horiz-adv-x="1358" 
d="M1241 107q-89 -66 -202.5 -99.5t-246.5 -33.5q-150 0 -279.5 54t-225 148.5t-150 223.5t-54.5 279t54.5 278.5t150 223.5t225 149t279.5 54q119 0 222 -25.5t190 -70.5v-71q-83 66 -188.5 102.5t-223.5 36.5q-122 0 -226.5 -52t-181.5 -143t-120.5 -215t-43.5 -267
q0 -144 43.5 -267.5t120.5 -214.5t181.5 -143t226.5 -52q67 0 130 13.5t120 37.5t107.5 57.5t91.5 73.5v-77zM551 1748l24 5l200 -148l200 148l24 -5l-224 -280z" />
    <glyph glyph-name="ccaron" unicode="&#x10d;" horiz-adv-x="906" 
d="M807 74q-29 -25 -70 -44q-35 -17 -87.5 -30.5t-122.5 -13.5q-95 0 -176.5 32.5t-142.5 92t-95.5 143t-34.5 185.5q0 95 33.5 178.5t92 145t139 97t174.5 35.5q68 0 118 -12.5t84 -27.5q40 -18 68 -40v-77q-25 36 -63 64q-33 24 -84 44.5t-123 20.5q-77 0 -137 -32.5
t-102 -89.5t-64 -135.5t-22 -170.5q0 -97 25 -175.5t70.5 -134t110.5 -85.5t145 -30q71 0 120.5 21t81.5 47q37 30 62 69v-77zM264 1288l24 5l200 -148l200 148l24 -5l-224 -280z" />
    <glyph glyph-name="Dcaron" unicode="&#x10e;" horiz-adv-x="1282" 
d="M127 1358h350q151 0 284 -50.5t232.5 -140.5t157.5 -214.5t58 -273.5t-58 -273.5t-157.5 -214.5t-232.5 -140.5t-284 -50.5h-350v1358zM473 28q123 0 233 48t193 134.5t131.5 206t48.5 262.5t-48.5 262.5t-131.5 206t-193 134.5t-233 48h-226v-1302h226zM323 1748l24 5
l200 -148l200 148l24 -5l-224 -280z" />
    <glyph glyph-name="dcaron" unicode="&#x10f;" horiz-adv-x="1026" 
d="M1071 1338q5 32 18.5 44.5t32.5 12.5q22 0 35.5 -12.5t13.5 -32.5q0 -5 -1.5 -14.5t-7.5 -26.5l-114 -299h-30zM795 173q-44 -86 -119.5 -136.5t-185.5 -50.5q-90 0 -165.5 35t-130 96t-85.5 144t-31 178q0 96 31 179t85.5 144.5t130 97t165.5 35.5q110 0 185.5 -51
t119.5 -138v652h108v-1358h-108v173zM191 439q0 -92 19.5 -170t58 -134.5t94 -88.5t127.5 -32t128.5 32t96 88.5t60 134.5t20.5 170t-20.5 170.5t-60 135.5t-96 89.5t-128.5 32.5t-127.5 -32.5t-94 -89.5t-58 -135.5t-19.5 -170.5z" />
    <glyph glyph-name="Dcroat" unicode="&#x110;" horiz-adv-x="1292" 
d="M137 679h-139v28h139v651h350q151 0 284 -50.5t232.5 -140.5t157.5 -214.5t58 -273.5t-58 -273.5t-157.5 -214.5t-232.5 -140.5t-284 -50.5h-350v679zM483 28q123 0 233 48t193 134.5t131.5 206t48.5 262.5t-48.5 262.5t-131.5 206t-193 134.5t-233 48h-226v-623h425v-28
h-425v-651h226z" />
    <glyph glyph-name="dcroat" unicode="&#x111;" horiz-adv-x="1026" 
d="M795 168q-45 -84 -120.5 -133t-184.5 -49q-90 0 -165.5 35t-130 96t-85.5 144t-31 178q0 96 31 179t85.5 144.5t130 97t165.5 35.5q109 0 184.5 -49.5t120.5 -134.5v401h-306v28h306v218h108v-218h154v-28h-154v-1112h-108v168zM191 439q0 -92 19.5 -170t58 -134.5
t94 -88.5t127.5 -32t128.5 32t96 88.5t60 134.5t20.5 170t-20.5 170.5t-60 135.5t-96 89.5t-128.5 32.5t-127.5 -32.5t-94 -89.5t-58 -135.5t-19.5 -170.5z" />
    <glyph glyph-name="Emacron" unicode="&#x112;" horiz-adv-x="975" 
d="M127 1358h747v-28h-627v-623h530v-28h-530v-651h627v-28h-747v1358zM277 1585h485v-53h-485v53z" />
    <glyph glyph-name="emacron" unicode="&#x113;" horiz-adv-x="940" 
d="M799 106q-29 -34 -71 -60q-36 -23 -92 -41.5t-133 -18.5q-102 0 -181 37t-133 99.5t-82.5 144.5t-28.5 172q0 95 29.5 178.5t83 145t127.5 97t164 35.5q86 0 155 -33t118 -90.5t77 -135t33 -167.5h-673v-30q0 -78 17.5 -154t55 -136.5t96.5 -97.5t142 -37q78 0 133.5 25
t91 55.5t52.5 57t19 29.5v-75zM749 497q-5 81 -22.5 148.5t-49.5 117t-80.5 77t-114.5 27.5q-63 0 -113.5 -26t-87.5 -74t-59 -116.5t-28 -153.5h555zM720 1072h-485v53h485v-53z" />
    <glyph glyph-name="Ebreve" unicode="&#x114;" horiz-adv-x="975" 
d="M127 1358h747v-28h-627v-623h530v-28h-530v-651h627v-28h-747v1358zM754 1708q0 -54 -17.5 -98t-47.5 -75.5t-70.5 -48.5t-87.5 -17t-87.5 17t-70.5 48.5t-47.5 75.5t-17.5 98l22 -12q5 -27 20.5 -51.5t41 -44t60.5 -31t79 -11.5t79 11.5t60.5 31t41 44t20.5 51.5z" />
    <glyph glyph-name="ebreve" unicode="&#x115;" horiz-adv-x="940" 
d="M799 106q-29 -34 -71 -60q-36 -23 -92 -41.5t-133 -18.5q-102 0 -181 37t-133 99.5t-82.5 144.5t-28.5 172q0 95 29.5 178.5t83 145t127.5 97t164 35.5q86 0 155 -33t118 -90.5t77 -135t33 -167.5h-673v-30q0 -78 17.5 -154t55 -136.5t96.5 -97.5t142 -37q78 0 133.5 25
t91 55.5t52.5 57t19 29.5v-75zM749 497q-5 81 -22.5 148.5t-49.5 117t-80.5 77t-114.5 27.5q-63 0 -113.5 -26t-87.5 -74t-59 -116.5t-28 -153.5h555zM276 1236q5 -27 20.5 -51.5t41 -44t60.5 -31t79 -11.5t79 11.5t60.5 31t41 44t20.5 51.5l22 12q0 -54 -17.5 -98
t-47.5 -75.5t-70.5 -48.5t-87.5 -17t-87.5 17t-70.5 48.5t-47.5 75.5t-17.5 98z" />
    <glyph glyph-name="Edotaccent" unicode="&#x116;" horiz-adv-x="975" 
d="M127 1358h747v-28h-627v-623h530v-28h-530v-651h627v-28h-747v1358zM519 1537q-32 0 -54.5 22.5t-22.5 54.5t22.5 54.5t54.5 22.5t54.5 -22.5t22.5 -54.5t-22.5 -54.5t-54.5 -22.5z" />
    <glyph glyph-name="edotaccent" unicode="&#x117;" horiz-adv-x="940" 
d="M799 106q-29 -34 -71 -60q-36 -23 -92 -41.5t-133 -18.5q-102 0 -181 37t-133 99.5t-82.5 144.5t-28.5 172q0 95 29.5 178.5t83 145t127.5 97t164 35.5q86 0 155 -33t118 -90.5t77 -135t33 -167.5h-673v-30q0 -78 17.5 -154t55 -136.5t96.5 -97.5t142 -37q78 0 133.5 25
t91 55.5t52.5 57t19 29.5v-75zM749 497q-5 81 -22.5 148.5t-49.5 117t-80.5 77t-114.5 27.5q-63 0 -113.5 -26t-87.5 -74t-59 -116.5t-28 -153.5h555zM477 1077q-32 0 -54.5 22.5t-22.5 54.5t22.5 54.5t54.5 22.5t54.5 -22.5t22.5 -54.5t-22.5 -54.5t-54.5 -22.5z" />
    <glyph glyph-name="Eogonek" unicode="&#x118;" horiz-adv-x="975" 
d="M127 1358h747v-28h-627v-623h530v-28h-530v-651h627v-28q-44 -17 -82.5 -42t-67.5 -55t-46 -65.5t-17 -73.5q0 -45 22.5 -67.5t60.5 -22.5q21 0 37.5 5.5t28.5 13.5q14 9 25 20v-28q-16 -13 -35 -24q-17 -9 -41 -16t-54 -7q-57 0 -88 28.5t-31 78.5q0 40 21.5 77t56 69.5
t78.5 60t90 48.5h-705v1358z" />
    <glyph glyph-name="eogonek" unicode="&#x119;" horiz-adv-x="940" 
d="M591 -315q-16 -13 -35 -24q-17 -9 -41 -16t-54 -7q-57 0 -88 28.5t-31 78.5q0 36 19 71t50.5 66.5t72 59t83.5 48.5q-15 -2 -31 -3t-33 -1q-102 0 -181 37t-133 99.5t-82.5 144.5t-28.5 172q0 95 29.5 178.5t83 145t127.5 97t164 35.5q86 0 155 -33t118 -90.5t77 -135
t33 -167.5h-673v-30q0 -78 17.5 -154t55 -136.5t96.5 -97.5t142 -37q40 0 74 7t62.5 19t51.5 27t41 31q41 37 67 84v-76q-15 -18 -36 -35q-18 -15 -45.5 -31t-65.5 -30q-46 -17 -88.5 -42.5t-75 -57.5t-52 -69.5t-19.5 -76.5q0 -45 22.5 -67.5t60.5 -22.5q21 0 37.5 5.5
t28.5 13.5q14 9 25 20v-28zM749 497q-5 81 -22.5 148.5t-49.5 117t-80.5 77t-114.5 27.5q-63 0 -113.5 -26t-87.5 -74t-59 -116.5t-28 -153.5h555z" />
    <glyph glyph-name="Ecaron" unicode="&#x11a;" horiz-adv-x="975" 
d="M127 1358h747v-28h-627v-623h530v-28h-530v-651h627v-28h-747v1358zM307 1748l24 5l200 -148l200 148l24 -5l-224 -280z" />
    <glyph glyph-name="ecaron" unicode="&#x11b;" horiz-adv-x="940" 
d="M799 106q-29 -34 -71 -60q-36 -23 -92 -41.5t-133 -18.5q-102 0 -181 37t-133 99.5t-82.5 144.5t-28.5 172q0 95 29.5 178.5t83 145t127.5 97t164 35.5q86 0 155 -33t118 -90.5t77 -135t33 -167.5h-673v-30q0 -78 17.5 -154t55 -136.5t96.5 -97.5t142 -37q78 0 133.5 25
t91 55.5t52.5 57t19 29.5v-75zM749 497q-5 81 -22.5 148.5t-49.5 117t-80.5 77t-114.5 27.5q-63 0 -113.5 -26t-87.5 -74t-59 -116.5t-28 -153.5h555zM477 1008l-224 280l24 5l200 -148l200 148l24 -5z" />
    <glyph glyph-name="Gcircumflex" unicode="&#x11c;" horiz-adv-x="1449" 
d="M1324 123q-96 -69 -225 -109t-297 -40q-100 0 -192 24.5t-172 69.5t-145.5 108.5t-112 142t-72 169.5t-25.5 191t25.5 191t72 169t112 142t145.5 109t172 69.5t192 24.5q128 0 243 -30t204 -82v-71q-85 75 -202.5 115t-244.5 40q-122 0 -228.5 -52t-185 -143t-124 -215
t-45.5 -267q0 -96 20.5 -183.5t58.5 -162.5t91 -136t117.5 -104.5t139.5 -67t156 -23.5q70 0 128 7.5t106.5 22t89.5 34.5t79 45v582h119v-570zM551 1473l224 280l224 -280l-24 -5l-200 148l-200 -148z" />
    <glyph glyph-name="gcircumflex" unicode="&#x11d;" horiz-adv-x="1002" 
d="M440 0q-11 1 -39 3.5t-64.5 8t-76 14.5t-72 21.5t-54 29t-21.5 38.5q0 16 17.5 29.5t45.5 24t61.5 18.5t66.5 13t60.5 8.5t42.5 4.5q-64 12 -117 42t-91.5 74t-60 100t-21.5 121q0 75 28.5 138t79 109t119.5 72t149 26q90 0 166.5 -33t129.5 -93q23 19 38.5 54.5
t15.5 87.5h112q0 -27 -12.5 -53t-33 -48.5t-47 -39.5t-54.5 -26q29 -41 45.5 -89.5t16.5 -104.5q0 -77 -26.5 -136t-74 -101.5t-111.5 -68.5t-139 -37q-21 -3 -50.5 -7t-62 -9t-64.5 -12t-57.5 -16.5t-41.5 -21t-16 -26.5q0 -25 33 -42t82.5 -29t107 -20t107.5 -14
q194 -23 295.5 -85.5t101.5 -152.5q0 -53 -37.5 -97.5t-100.5 -77t-145.5 -51t-172.5 -18.5t-172.5 18.5t-145.5 51t-100.5 77t-37.5 97.5q0 47 30 88.5t81.5 72.5t121.5 49t151 18h14zM493 233q65 0 114 22t82 63.5t50 100t17 131.5t-17 131.5t-50 99.5t-82 63.5t-114 22.5
t-113.5 -22.5t-81.5 -63.5t-49.5 -99.5t-16.5 -131.5t16.5 -131.5t49.5 -100t81.5 -63.5t113.5 -22zM146 -228q0 -50 28.5 -90t77 -68t112 -43t134.5 -15q70 0 134 15t112.5 43t77 68t28.5 90t-29 90t-77.5 67.5t-112 42.5t-133.5 15t-133.5 -15t-112 -42.5t-77.5 -67.5
t-29 -90zM268 1013l224 280l224 -280l-24 -5l-200 148l-200 -148z" />
    <glyph glyph-name="Gbreve" unicode="&#x11e;" horiz-adv-x="1449" 
d="M1324 123q-96 -69 -225 -109t-297 -40q-100 0 -192 24.5t-172 69.5t-145.5 108.5t-112 142t-72 169.5t-25.5 191t25.5 191t72 169t112 142t145.5 109t172 69.5t192 24.5q128 0 243 -30t204 -82v-71q-85 75 -202.5 115t-244.5 40q-122 0 -228.5 -52t-185 -143t-124 -215
t-45.5 -267q0 -96 20.5 -183.5t58.5 -162.5t91 -136t117.5 -104.5t139.5 -67t156 -23.5q70 0 128 7.5t106.5 22t89.5 34.5t79 45v582h119v-570zM998 1708q0 -54 -17.5 -98t-47.5 -75.5t-70.5 -48.5t-87.5 -17t-87.5 17t-70.5 48.5t-47.5 75.5t-17.5 98l22 -12
q5 -27 20.5 -51.5t41 -44t60.5 -31t79 -11.5t79 11.5t60.5 31t41 44t20.5 51.5z" />
    <glyph glyph-name="gbreve" unicode="&#x11f;" horiz-adv-x="1002" 
d="M440 0q-11 1 -39 3.5t-64.5 8t-76 14.5t-72 21.5t-54 29t-21.5 38.5q0 16 17.5 29.5t45.5 24t61.5 18.5t66.5 13t60.5 8.5t42.5 4.5q-64 12 -117 42t-91.5 74t-60 100t-21.5 121q0 75 28.5 138t79 109t119.5 72t149 26q90 0 166.5 -33t129.5 -93q23 19 38.5 54.5
t15.5 87.5h112q0 -27 -12.5 -53t-33 -48.5t-47 -39.5t-54.5 -26q29 -41 45.5 -89.5t16.5 -104.5q0 -77 -26.5 -136t-74 -101.5t-111.5 -68.5t-139 -37q-21 -3 -50.5 -7t-62 -9t-64.5 -12t-57.5 -16.5t-41.5 -21t-16 -26.5q0 -25 33 -42t82.5 -29t107 -20t107.5 -14
q194 -23 295.5 -85.5t101.5 -152.5q0 -53 -37.5 -97.5t-100.5 -77t-145.5 -51t-172.5 -18.5t-172.5 18.5t-145.5 51t-100.5 77t-37.5 97.5q0 47 30 88.5t81.5 72.5t121.5 49t151 18h14zM493 233q65 0 114 22t82 63.5t50 100t17 131.5t-17 131.5t-50 99.5t-82 63.5t-114 22.5
t-113.5 -22.5t-81.5 -63.5t-49.5 -99.5t-16.5 -131.5t16.5 -131.5t49.5 -100t81.5 -63.5t113.5 -22zM146 -228q0 -50 28.5 -90t77 -68t112 -43t134.5 -15q70 0 134 15t112.5 43t77 68t28.5 90t-29 90t-77.5 67.5t-112 42.5t-133.5 15t-133.5 -15t-112 -42.5t-77.5 -67.5
t-29 -90zM714 1248q0 -54 -17.5 -98t-47.5 -75.5t-70.5 -48.5t-87.5 -17t-87.5 17t-70.5 48.5t-47.5 75.5t-17.5 98l22 -12q5 -27 20.5 -51.5t41 -44t60.5 -31t79 -11.5t79 11.5t60.5 31t41 44t20.5 51.5z" />
    <glyph glyph-name="Gdotaccent" unicode="&#x120;" horiz-adv-x="1449" 
d="M1324 123q-96 -69 -225 -109t-297 -40q-100 0 -192 24.5t-172 69.5t-145.5 108.5t-112 142t-72 169.5t-25.5 191t25.5 191t72 169t112 142t145.5 109t172 69.5t192 24.5q128 0 243 -30t204 -82v-71q-85 75 -202.5 115t-244.5 40q-122 0 -228.5 -52t-185 -143t-124 -215
t-45.5 -267q0 -96 20.5 -183.5t58.5 -162.5t91 -136t117.5 -104.5t139.5 -67t156 -23.5q70 0 128 7.5t106.5 22t89.5 34.5t79 45v582h119v-570zM775 1537q-32 0 -54.5 22.5t-22.5 54.5t22.5 54.5t54.5 22.5t54.5 -22.5t22.5 -54.5t-22.5 -54.5t-54.5 -22.5z" />
    <glyph glyph-name="gdotaccent" unicode="&#x121;" horiz-adv-x="1002" 
d="M440 0q-11 1 -39 3.5t-64.5 8t-76 14.5t-72 21.5t-54 29t-21.5 38.5q0 16 17.5 29.5t45.5 24t61.5 18.5t66.5 13t60.5 8.5t42.5 4.5q-64 12 -117 42t-91.5 74t-60 100t-21.5 121q0 75 28.5 138t79 109t119.5 72t149 26q90 0 166.5 -33t129.5 -93q23 19 38.5 54.5
t15.5 87.5h112q0 -27 -12.5 -53t-33 -48.5t-47 -39.5t-54.5 -26q29 -41 45.5 -89.5t16.5 -104.5q0 -77 -26.5 -136t-74 -101.5t-111.5 -68.5t-139 -37q-21 -3 -50.5 -7t-62 -9t-64.5 -12t-57.5 -16.5t-41.5 -21t-16 -26.5q0 -25 33 -42t82.5 -29t107 -20t107.5 -14
q194 -23 295.5 -85.5t101.5 -152.5q0 -53 -37.5 -97.5t-100.5 -77t-145.5 -51t-172.5 -18.5t-172.5 18.5t-145.5 51t-100.5 77t-37.5 97.5q0 47 30 88.5t81.5 72.5t121.5 49t151 18h14zM493 233q65 0 114 22t82 63.5t50 100t17 131.5t-17 131.5t-50 99.5t-82 63.5t-114 22.5
t-113.5 -22.5t-81.5 -63.5t-49.5 -99.5t-16.5 -131.5t16.5 -131.5t49.5 -100t81.5 -63.5t113.5 -22zM146 -228q0 -50 28.5 -90t77 -68t112 -43t134.5 -15q70 0 134 15t112.5 43t77 68t28.5 90t-29 90t-77.5 67.5t-112 42.5t-133.5 15t-133.5 -15t-112 -42.5t-77.5 -67.5
t-29 -90zM492 1077q-32 0 -54.5 22.5t-22.5 54.5t22.5 54.5t54.5 22.5t54.5 -22.5t22.5 -54.5t-22.5 -54.5t-54.5 -22.5z" />
    <glyph glyph-name="Gcommaaccent" unicode="&#x122;" horiz-adv-x="1449" 
d="M1324 123q-96 -69 -225 -109t-297 -40q-100 0 -192 24.5t-172 69.5t-145.5 108.5t-112 142t-72 169.5t-25.5 191t25.5 191t72 169t112 142t145.5 109t172 69.5t192 24.5q128 0 243 -30t204 -82v-71q-85 75 -202.5 115t-244.5 40q-122 0 -228.5 -52t-185 -143t-124 -215
t-45.5 -267q0 -96 20.5 -183.5t58.5 -162.5t91 -136t117.5 -104.5t139.5 -67t156 -23.5q70 0 128 7.5t106.5 22t89.5 34.5t79 45v582h119v-570zM750 -380q20 10 37 26q14 13 25.5 33t11.5 47q0 14 -2.5 24t-5.5 16q-4 7 -7 11q-6 -9 -14 -15t-18.5 -10.5t-25.5 -4.5
q-30 0 -50.5 19t-20.5 51t22.5 52.5t58.5 20.5q24 0 43.5 -10t33.5 -27t21.5 -40t7.5 -48q0 -45 -18.5 -75t-40.5 -48q-26 -22 -58 -34v12z" />
    <glyph glyph-name="gcommaaccent" unicode="&#x123;" horiz-adv-x="1002" 
d="M440 0q-11 1 -39 3.5t-64.5 8t-76 14.5t-72 21.5t-54 29t-21.5 38.5q0 16 17.5 29.5t45.5 24t61.5 18.5t66.5 13t60.5 8.5t42.5 4.5q-64 12 -117 42t-91.5 74t-60 100t-21.5 121q0 75 28.5 138t79 109t119.5 72t149 26q90 0 166.5 -33t129.5 -93q23 19 38.5 54.5
t15.5 87.5h112q0 -27 -12.5 -53t-33 -48.5t-47 -39.5t-54.5 -26q29 -41 45.5 -89.5t16.5 -104.5q0 -77 -26.5 -136t-74 -101.5t-111.5 -68.5t-139 -37q-21 -3 -50.5 -7t-62 -9t-64.5 -12t-57.5 -16.5t-41.5 -21t-16 -26.5q0 -25 33 -42t82.5 -29t107 -20t107.5 -14
q194 -23 295.5 -85.5t101.5 -152.5q0 -53 -37.5 -97.5t-100.5 -77t-145.5 -51t-172.5 -18.5t-172.5 18.5t-145.5 51t-100.5 77t-37.5 97.5q0 47 30 88.5t81.5 72.5t121.5 49t151 18h14zM493 233q65 0 114 22t82 63.5t50 100t17 131.5t-17 131.5t-50 99.5t-82 63.5t-114 22.5
t-113.5 -22.5t-81.5 -63.5t-49.5 -99.5t-16.5 -131.5t16.5 -131.5t49.5 -100t81.5 -63.5t113.5 -22zM146 -228q0 -50 28.5 -90t77 -68t112 -43t134.5 -15q70 0 134 15t112.5 43t77 68t28.5 90t-29 90t-77.5 67.5t-112 42.5t-133.5 15t-133.5 -15t-112 -42.5t-77.5 -67.5
t-29 -90zM524 1252q-21 -11 -37 -26q-14 -14 -25.5 -33.5t-11.5 -46.5q0 -26 7 -40q4 -7 8 -11q5 8 14 15q7 5 18 10t26 5q30 0 50.5 -19t20.5 -51t-22.5 -52.5t-58.5 -20.5q-24 0 -43.5 10t-33.5 27t-21.5 39.5t-7.5 48.5q0 45 18 74.5t40 48.5q26 21 59 34v-12z" />
    <glyph glyph-name="Hcircumflex" unicode="&#x124;" horiz-adv-x="1337" 
d="M127 1358h120v-651h843v651h120v-1358h-120v679h-843v-679h-120v1358zM444 1473l224 280l224 -280l-24 -5l-200 148l-200 -148z" />
    <glyph glyph-name="hcircumflex" unicode="&#x125;" horiz-adv-x="980" 
d="M123 1358h108v-823q7 36 19.5 77t32 81t47 76.5t64 64.5t82.5 44.5t104 16.5q72 0 125 -27t88.5 -72.5t52.5 -106.5t17 -129v-560h-108v560q0 51 -5.5 105.5t-25 99.5t-57.5 73.5t-104 28.5q-54 0 -99.5 -20.5t-82.5 -55.5t-65 -81.5t-47 -99t-28.5 -108t-9.5 -107.5
v-395h-108v1358zM-47 1473l224 280l224 -280l-24 -5l-200 148l-200 -148z" />
    <glyph glyph-name="Hbar" unicode="&#x126;" horiz-adv-x="1337" 
d="M127 1018h-159v28h159v312h120v-312h843v312h120v-312h159v-28h-159v-1018h-120v679h-843v-679h-120v1018zM1090 707v311h-843v-311h843z" />
    <glyph glyph-name="hbar" unicode="&#x127;" horiz-adv-x="980" 
d="M123 1358h108v-1358h-108v1358zM-31 1140h568v-28h-568v28zM231 535q7 36 19.5 77t32 81t47 76.5t64 64.5t82.5 44.5t104 16.5q72 0 125 -27t88.5 -72.5t52.5 -106.5t17 -129v-560h-108v560q0 51 -5.5 105.5t-25 99.5t-57.5 73.5t-104 28.5q-54 0 -99.5 -20.5
t-82.5 -55.5t-65 -81.5t-47 -99t-28.5 -108t-9.5 -107.5v140z" />
    <glyph glyph-name="Itilde" unicode="&#x128;" horiz-adv-x="397" 
d="M139 1358h119v-1358h-119v1358zM-78 1494q0 35 9.5 64.5t29.5 51.5t50.5 34t72.5 12q41 0 76.5 -10.5t69 -23t67 -23t71.5 -10.5q32 0 56 22t28 63h22q0 -35 -9.5 -65t-30 -52.5t-51 -35.5t-72.5 -13q-40 0 -76 10.5t-70 23t-66 23t-64 10.5q-82 0 -91 -81h-22z" />
    <glyph glyph-name="itilde" unicode="&#x129;" horiz-adv-x="378" 
d="M135 878h108v-878h-108v878zM-87 1034q0 35 9.5 64.5t29.5 51.5t50.5 34t72.5 12q41 0 76.5 -10.5t69 -23t67 -23t71.5 -10.5q32 0 56 22t28 63h22q0 -35 -9.5 -65t-30 -52.5t-51 -35.5t-72.5 -13q-40 0 -76 10.5t-70 23t-66 23t-64 10.5q-82 0 -91 -81h-22z" />
    <glyph glyph-name="Imacron" unicode="&#x12a;" horiz-adv-x="397" 
d="M139 1358h119v-1358h-119v1358zM-44 1585h485v-53h-485v53z" />
    <glyph glyph-name="imacron" unicode="&#x12b;" horiz-adv-x="378" 
d="M135 878h108v-878h-108v878zM-53 1125h485v-53h-485v53z" />
    <glyph glyph-name="Ibreve" unicode="&#x12c;" horiz-adv-x="397" 
d="M139 1358h119v-1358h-119v1358zM421 1708q0 -54 -17.5 -98t-47.5 -75.5t-70.5 -48.5t-87.5 -17t-87.5 17t-70.5 48.5t-47.5 75.5t-17.5 98l22 -12q5 -27 20.5 -51.5t41 -44t60.5 -31t79 -11.5t79 11.5t60.5 31t41 44t20.5 51.5z" />
    <glyph glyph-name="ibreve" unicode="&#x12d;" horiz-adv-x="378" 
d="M135 878h108v-878h-108v878zM412 1248q0 -54 -17.5 -98t-47.5 -75.5t-70.5 -48.5t-87.5 -17t-87.5 17t-70.5 48.5t-47.5 75.5t-17.5 98l22 -12q5 -27 20.5 -51.5t41 -44t60.5 -31t79 -11.5t79 11.5t60.5 31t41 44t20.5 51.5z" />
    <glyph glyph-name="Iogonek" unicode="&#x12e;" horiz-adv-x="397" 
d="M139 1358h119v-1358q-44 -17 -82.5 -42t-67.5 -55t-46 -65.5t-17 -73.5q0 -45 22.5 -67.5t60.5 -22.5q21 0 37.5 5.5t28.5 13.5q14 9 25 20v-28q-16 -13 -35 -24q-17 -9 -41 -16t-54 -7q-57 0 -88 28.5t-31 78.5q0 40 21.5 77t56 69.5t78.5 60t90 48.5h-77v1358z" />
    <glyph glyph-name="iogonek" unicode="&#x12f;" horiz-adv-x="378" 
d="M189 1060q-34 0 -58 24t-24 58t24 58t58 24t58 -24t24 -58t-24 -58t-58 -24zM135 878h108v-878q-44 -17 -82.5 -42t-67.5 -55t-46 -65.5t-17 -73.5q0 -45 22.5 -67.5t60.5 -22.5q21 0 37.5 5.5t28.5 13.5q14 9 25 20v-28q-16 -13 -35 -24q-17 -9 -41 -16t-54 -7
q-57 0 -88 28.5t-31 78.5q0 40 21.5 77t56 69.5t78.5 60t90 48.5h-66v878z" />
    <glyph glyph-name="Idotaccent" unicode="&#x130;" horiz-adv-x="397" 
d="M139 1358h119v-1358h-119v1358zM198 1537q-32 0 -54.5 22.5t-22.5 54.5t22.5 54.5t54.5 22.5t54.5 -22.5t22.5 -54.5t-22.5 -54.5t-54.5 -22.5z" />
    <glyph glyph-name="dotlessi" unicode="&#x131;" horiz-adv-x="378" 
d="M135 878h108v-878h-108v878z" />
    <glyph glyph-name="IJ" unicode="&#x132;" horiz-adv-x="794" 
d="M139 1358h119v-1358h-119v1358zM536 1358h119v-1080q0 -120 -17 -216.5t-44.5 -172.5t-62.5 -133t-71 -99q-85 -98 -194 -141v28q51 35 99.5 83t86.5 123.5t61 185t23 268.5v1154z" />
    <glyph glyph-name="ij" unicode="&#x133;" horiz-adv-x="756" 
d="M189 1060q-34 0 -58 24t-24 58t24 58t58 24t58 -24t24 -58t-24 -58t-58 -24zM135 878h108v-878h-108v878zM567 1060q-34 0 -58 24t-24 58t24 58t58 24t58 -24t24 -58t-24 -58t-58 -24zM513 878h108v-574q0 -126 -14 -225t-37 -176.5t-52.5 -134t-60.5 -96.5
q-72 -94 -163 -130v22q24 19 49.5 42t50 57t46 81t38 115t26 159t9.5 212v648z" />
    <glyph glyph-name="Jcircumflex" unicode="&#x134;" horiz-adv-x="397" 
d="M139 1358h119v-1080q0 -120 -17 -216.5t-44.5 -172.5t-62.5 -133t-71 -99q-85 -98 -194 -141v28q51 35 99.5 83t86.5 123.5t61 185t23 268.5v1154zM-26 1473l224 280l224 -280l-24 -5l-200 148l-200 -148z" />
    <glyph glyph-name="jcircumflex" unicode="&#x135;" horiz-adv-x="378" 
d="M135 878h108v-574q0 -126 -14 -225t-37 -176.5t-52.5 -134t-60.5 -96.5q-72 -94 -163 -130v22q24 19 49.5 42t50 57t46 81t38 115t26 159t9.5 212v648zM-35 1013l224 280l224 -280l-24 -5l-200 148l-200 -148z" />
    <glyph glyph-name="Kcommaaccent" unicode="&#x136;" horiz-adv-x="1178" 
d="M127 1358h120v-905l701 905h38l-416 -536l575 -822h-141l-508 726l-249 -321v-405h-120v1358zM559 -380q20 10 37 26q14 13 25.5 33t11.5 47q0 14 -2.5 24t-5.5 16q-4 7 -7 11q-6 -9 -14 -15t-18.5 -10.5t-25.5 -4.5q-30 0 -50.5 19t-20.5 51t22.5 52.5t58.5 20.5
q24 0 43.5 -10t33.5 -27t21.5 -40t7.5 -48q0 -45 -18.5 -75t-40.5 -48q-26 -22 -58 -34v12z" />
    <glyph glyph-name="kcommaaccent" unicode="&#x137;" horiz-adv-x="893" 
d="M123 1358h108v-1083l515 603h39l-290 -338l407 -540h-134l-344 457l-193 -227v-230h-108v1358zM430 -380q20 10 37 26q14 13 25.5 33t11.5 47q0 14 -2.5 24t-5.5 16q-4 7 -7 11q-6 -9 -14 -15t-18.5 -10.5t-25.5 -4.5q-30 0 -50.5 19t-20.5 51t22.5 52.5t58.5 20.5
q24 0 43.5 -10t33.5 -27t21.5 -40t7.5 -48q0 -45 -18.5 -75t-40.5 -48q-26 -22 -58 -34v12z" />
    <glyph glyph-name="kgreenlandic" unicode="&#x138;" horiz-adv-x="927" 
d="M123 878h108v-603l515 603h39l-290 -338l407 -540h-134l-344 457l-193 -227v-230h-108v878z" />
    <glyph glyph-name="Lacute" unicode="&#x139;" horiz-adv-x="880" 
d="M127 1358h120v-1330h556v-28h-676v1358zM123 1473l220 259q12 14 25.5 22.5t30.5 8.5q20 0 33 -13t13 -33q0 -19 -10.5 -31.5t-22.5 -21.5l-259 -196z" />
    <glyph glyph-name="lacute" unicode="&#x13a;" horiz-adv-x="378" 
d="M135 1358h108v-1358h-108v1358zM96 1473l220 259q12 14 25.5 22.5t30.5 8.5q20 0 33 -13t13 -33q0 -19 -10.5 -31.5t-22.5 -21.5l-259 -196z" />
    <glyph glyph-name="Lcommaaccent" unicode="&#x13b;" horiz-adv-x="880" 
d="M127 1358h120v-1330h556v-28h-676v1358zM451 -380q20 10 37 26q14 13 25.5 33t11.5 47q0 14 -2.5 24t-5.5 16q-4 7 -7 11q-6 -9 -14 -15t-18.5 -10.5t-25.5 -4.5q-30 0 -50.5 19t-20.5 51t22.5 52.5t58.5 20.5q24 0 43.5 -10t33.5 -27t21.5 -40t7.5 -48q0 -45 -18.5 -75
t-40.5 -48q-26 -22 -58 -34v12z" />
    <glyph glyph-name="lcommaaccent" unicode="&#x13c;" horiz-adv-x="378" 
d="M135 1358h108v-1358h-108v1358zM166 -380q20 10 37 26q14 13 25.5 33t11.5 47q0 14 -2.5 24t-5.5 16q-4 7 -7 11q-6 -9 -14 -15t-18.5 -10.5t-25.5 -4.5q-30 0 -50.5 19t-20.5 51t22.5 52.5t58.5 20.5q24 0 43.5 -10t33.5 -27t21.5 -40t7.5 -48q0 -45 -18.5 -75
t-40.5 -48q-26 -22 -58 -34v12z" />
    <glyph glyph-name="Lcaron" unicode="&#x13d;" horiz-adv-x="880" 
d="M508 1338q5 32 18.5 44.5t32.5 12.5q22 0 35.5 -12.5t13.5 -32.5q0 -5 -1.5 -14.5t-7.5 -26.5l-114 -299h-30zM127 1358h120v-1330h556v-28h-676v1358z" />
    <glyph glyph-name="lcaron" unicode="&#x13e;" horiz-adv-x="378" 
d="M393 1338q5 32 18.5 44.5t32.5 12.5q22 0 35.5 -12.5t13.5 -32.5q0 -5 -1.5 -14.5t-7.5 -26.5l-114 -299h-30zM135 1358h108v-1358h-108v1358z" />
    <glyph glyph-name="Ldot" unicode="&#x13f;" horiz-adv-x="880" 
d="M664 602q-32 0 -54.5 22.5t-22.5 54.5t22.5 54.5t54.5 22.5t54.5 -22.5t22.5 -54.5t-22.5 -54.5t-54.5 -22.5zM127 1358h120v-1330h556v-28h-676v1358z" />
    <glyph glyph-name="ldot" unicode="&#x140;" horiz-adv-x="425" 
d="M400 602q-32 0 -54.5 22.5t-22.5 54.5t22.5 54.5t54.5 22.5t54.5 -22.5t22.5 -54.5t-22.5 -54.5t-54.5 -22.5zM135 1358h108v-1358h-108v1358z" />
    <glyph glyph-name="Lslash" unicode="&#x141;" horiz-adv-x="880" 
d="M127 582l-158 -77v31l158 77v745h120v-687l371 182v-31l-371 -182v-612h556v-28h-676v582z" />
    <glyph glyph-name="lslash" unicode="&#x142;" horiz-adv-x="376" 
d="M135 717l-153 -108v34l153 108v607h106v-532l153 109v-34l-153 -109v-792h-106v717z" />
    <glyph glyph-name="Nacute" unicode="&#x143;" horiz-adv-x="1285" 
d="M127 1381l1003 -1185v1162h28v-1381l-1003 1186v-1163h-28v1381zM558 1473l220 259q12 14 25.5 22.5t30.5 8.5q20 0 33 -13t13 -33q0 -19 -10.5 -31.5t-22.5 -21.5l-259 -196z" />
    <glyph glyph-name="nacute" unicode="&#x144;" horiz-adv-x="980" 
d="M123 878h108v-343q7 36 19.5 77t32 81t47 76.5t64 64.5t82.5 44.5t104 16.5q72 0 125 -27t88.5 -72.5t52.5 -106.5t17 -129v-560h-108v560q0 51 -5.5 105.5t-25 99.5t-57.5 73.5t-104 28.5q-54 0 -99.5 -20.5t-82.5 -55.5t-65 -81.5t-47 -99t-28.5 -108t-9.5 -107.5v-395
h-108v878zM370 1013l220 259q12 14 25.5 22.5t30.5 8.5q20 0 33 -13t13 -33q0 -19 -10.5 -31.5t-22.5 -21.5l-259 -196z" />
    <glyph glyph-name="Ncommaaccent" unicode="&#x145;" horiz-adv-x="1285" 
d="M127 1381l1003 -1185v1162h28v-1381l-1003 1186v-1163h-28v1381zM617 -380q20 10 37 26q14 13 25.5 33t11.5 47q0 14 -2.5 24t-5.5 16q-4 7 -7 11q-6 -9 -14 -15t-18.5 -10.5t-25.5 -4.5q-30 0 -50.5 19t-20.5 51t22.5 52.5t58.5 20.5q24 0 43.5 -10t33.5 -27t21.5 -40
t7.5 -48q0 -45 -18.5 -75t-40.5 -48q-26 -22 -58 -34v12z" />
    <glyph glyph-name="ncommaaccent" unicode="&#x146;" horiz-adv-x="980" 
d="M123 878h108v-343q7 36 19.5 77t32 81t47 76.5t64 64.5t82.5 44.5t104 16.5q72 0 125 -27t88.5 -72.5t52.5 -106.5t17 -129v-560h-108v560q0 51 -5.5 105.5t-25 99.5t-57.5 73.5t-104 28.5q-54 0 -99.5 -20.5t-82.5 -55.5t-65 -81.5t-47 -99t-28.5 -108t-9.5 -107.5v-395
h-108v878zM480 -380q20 10 37 26q14 13 25.5 33t11.5 47q0 14 -2.5 24t-5.5 16q-4 7 -7 11q-6 -9 -14 -15t-18.5 -10.5t-25.5 -4.5q-30 0 -50.5 19t-20.5 51t22.5 52.5t58.5 20.5q24 0 43.5 -10t33.5 -27t21.5 -40t7.5 -48q0 -45 -18.5 -75t-40.5 -48q-26 -22 -58 -34v12z
" />
    <glyph glyph-name="Ncaron" unicode="&#x147;" horiz-adv-x="1285" 
d="M127 1381l1003 -1185v1162h28v-1381l-1003 1186v-1163h-28v1381zM434 1748l24 5l200 -148l200 148l24 -5l-224 -280z" />
    <glyph glyph-name="ncaron" unicode="&#x148;" horiz-adv-x="980" 
d="M123 878h108v-343q7 36 19.5 77t32 81t47 76.5t64 64.5t82.5 44.5t104 16.5q72 0 125 -27t88.5 -72.5t52.5 -106.5t17 -129v-560h-108v560q0 51 -5.5 105.5t-25 99.5t-57.5 73.5t-104 28.5q-54 0 -99.5 -20.5t-82.5 -55.5t-65 -81.5t-47 -99t-28.5 -108t-9.5 -107.5v-395
h-108v878zM278 1288l24 5l200 -148l200 148l24 -5l-224 -280z" />
    <glyph glyph-name="Eng" unicode="&#x14a;" horiz-adv-x="1285" 
d="M127 1381l912 -1078v1055h119v-1080q0 -120 -17 -216.5t-44.5 -172.5t-62.5 -133t-71 -99q-85 -98 -194 -141v28q47 33 92.5 76.5t82 110t62 161t31.5 228.5l-882 1043v-1163h-28v1381z" />
    <glyph glyph-name="eng" unicode="&#x14b;" horiz-adv-x="980" 
d="M123 878h108v-343q7 36 19.5 77t32 81t47 76.5t64 64.5t82.5 44.5t104 16.5q72 0 125 -27t88.5 -72.5t52.5 -106.5t17 -129v-276q0 -154 -21.5 -268t-54.5 -195t-73 -133t-76 -83t-64 -45t-38 -18v23q52 26 88.5 69t61 97t38 116.5t20.5 127t9 128.5t2 122v335
q0 51 -5.5 105.5t-25 99.5t-57.5 73.5t-104 28.5q-54 0 -99.5 -20.5t-82.5 -55.5t-65 -81.5t-47 -99t-28.5 -108t-9.5 -107.5v-395h-108v878z" />
    <glyph glyph-name="Omacron" unicode="&#x14c;" horiz-adv-x="1601" 
d="M83 679q0 100 25.5 190.5t72 169t112 142t145.5 109t171.5 70t191.5 24.5q149 0 280 -54t228 -149t153 -224t56 -278q0 -102 -25.5 -194t-72 -170t-112 -141.5t-145 -107.5t-171.5 -68t-191 -24q-149 0 -280 53t-228.5 146.5t-153.5 223t-56 282.5zM219 679
q0 -144 44.5 -267.5t122.5 -214.5t184.5 -143t230.5 -52t230.5 52t184.5 143t122.5 214.5t44.5 267.5q0 143 -44.5 266.5t-122.5 215t-184.5 143.5t-230.5 52t-230.5 -52t-184.5 -143.5t-122.5 -215t-44.5 -266.5zM558 1585h485v-53h-485v53z" />
    <glyph glyph-name="omacron" unicode="&#x14d;" horiz-adv-x="992" 
d="M78 437q0 95 31.5 178.5t87.5 145.5t132.5 98t166.5 36t166.5 -36t132.5 -98t87.5 -145.5t31.5 -178.5q0 -96 -31.5 -178t-87.5 -143t-132.5 -95.5t-166.5 -34.5t-166.5 34.5t-132.5 95.5t-87.5 143t-31.5 178zM192 437q0 -92 20.5 -170t59.5 -134t95.5 -87.5
t128.5 -31.5t128.5 31.5t96 87.5t60 134t20.5 170t-20.5 170.5t-60 136.5t-96 90.5t-128.5 32.5t-128.5 -32.5t-95.5 -90.5t-59.5 -136.5t-20.5 -170.5zM254 1125h485v-53h-485v53z" />
    <glyph glyph-name="Obreve" unicode="&#x14e;" horiz-adv-x="1601" 
d="M83 679q0 100 25.5 190.5t72 169t112 142t145.5 109t171.5 70t191.5 24.5q149 0 280 -54t228 -149t153 -224t56 -278q0 -102 -25.5 -194t-72 -170t-112 -141.5t-145 -107.5t-171.5 -68t-191 -24q-149 0 -280 53t-228.5 146.5t-153.5 223t-56 282.5zM219 679
q0 -144 44.5 -267.5t122.5 -214.5t184.5 -143t230.5 -52t230.5 52t184.5 143t122.5 214.5t44.5 267.5q0 143 -44.5 266.5t-122.5 215t-184.5 143.5t-230.5 52t-230.5 -52t-184.5 -143.5t-122.5 -215t-44.5 -266.5zM1023 1708q0 -54 -17.5 -98t-47.5 -75.5t-70.5 -48.5
t-87.5 -17t-87.5 17t-70.5 48.5t-47.5 75.5t-17.5 98l22 -12q5 -27 20.5 -51.5t41 -44t60.5 -31t79 -11.5t79 11.5t60.5 31t41 44t20.5 51.5z" />
    <glyph glyph-name="obreve" unicode="&#x14f;" horiz-adv-x="992" 
d="M78 437q0 95 31.5 178.5t87.5 145.5t132.5 98t166.5 36t166.5 -36t132.5 -98t87.5 -145.5t31.5 -178.5q0 -96 -31.5 -178t-87.5 -143t-132.5 -95.5t-166.5 -34.5t-166.5 34.5t-132.5 95.5t-87.5 143t-31.5 178zM192 437q0 -92 20.5 -170t59.5 -134t95.5 -87.5
t128.5 -31.5t128.5 31.5t96 87.5t60 134t20.5 170t-20.5 170.5t-60 136.5t-96 90.5t-128.5 32.5t-128.5 -32.5t-95.5 -90.5t-59.5 -136.5t-20.5 -170.5zM719 1248q0 -54 -17.5 -98t-47.5 -75.5t-70.5 -48.5t-87.5 -17t-87.5 17t-70.5 48.5t-47.5 75.5t-17.5 98l22 -12
q5 -27 20.5 -51.5t41 -44t60.5 -31t79 -11.5t79 11.5t60.5 31t41 44t20.5 51.5z" />
    <glyph glyph-name="Ohungarumlaut" unicode="&#x150;" horiz-adv-x="1601" 
d="M83 679q0 100 25.5 190.5t72 169t112 142t145.5 109t171.5 70t191.5 24.5q149 0 280 -54t228 -149t153 -224t56 -278q0 -102 -25.5 -194t-72 -170t-112 -141.5t-145 -107.5t-171.5 -68t-191 -24q-149 0 -280 53t-228.5 146.5t-153.5 223t-56 282.5zM219 679
q0 -144 44.5 -267.5t122.5 -214.5t184.5 -143t230.5 -52t230.5 52t184.5 143t122.5 214.5t44.5 267.5q0 143 -44.5 266.5t-122.5 215t-184.5 143.5t-230.5 52t-230.5 -52t-184.5 -143.5t-122.5 -215t-44.5 -266.5zM1003 1732q12 14 25.5 22.5t30.5 8.5q20 0 33 -13t13 -33
q0 -19 -10.5 -31.5t-22.5 -21.5l-259 -196l-30 5zM542 1473l220 259q12 14 25.5 22.5t30.5 8.5q20 0 33 -13t13 -33q0 -19 -10.5 -31.5t-22.5 -21.5l-259 -196z" />
    <glyph glyph-name="ohungarumlaut" unicode="&#x151;" horiz-adv-x="992" 
d="M78 437q0 95 31.5 178.5t87.5 145.5t132.5 98t166.5 36t166.5 -36t132.5 -98t87.5 -145.5t31.5 -178.5q0 -96 -31.5 -178t-87.5 -143t-132.5 -95.5t-166.5 -34.5t-166.5 34.5t-132.5 95.5t-87.5 143t-31.5 178zM192 437q0 -92 20.5 -170t59.5 -134t95.5 -87.5
t128.5 -31.5t128.5 31.5t96 87.5t60 134t20.5 170t-20.5 170.5t-60 136.5t-96 90.5t-128.5 32.5t-128.5 -32.5t-95.5 -90.5t-59.5 -136.5t-20.5 -170.5zM693 1272q12 14 25.5 22.5t30.5 8.5q20 0 33 -13t13 -33q0 -19 -10.5 -31.5t-22.5 -21.5l-259 -196l-30 5zM232 1013
l220 259q12 14 25.5 22.5t30.5 8.5q20 0 33 -13t13 -33q0 -19 -10.5 -31.5t-22.5 -21.5l-259 -196z" />
    <glyph glyph-name="OE" unicode="&#x152;" horiz-adv-x="2231" 
d="M1383 289q-52 -88 -134 -158q-35 -30 -80 -58t-100.5 -50t-122.5 -35.5t-145 -13.5q-150 0 -280.5 54.5t-228 150t-153.5 224t-56 276.5q0 98 25.5 188.5t72 169t112 142.5t145 109.5t171.5 70.5t192 25q78 0 145 -13.5t122.5 -36t100.5 -50.5t80 -58q82 -70 134 -158
v290h747v-28h-627v-623h530v-28h-530v-651h627v-28h-747v289zM219 679q0 -94 20.5 -181t58.5 -162t90.5 -136.5t117.5 -105.5t139.5 -68t155.5 -24t156 24t139.5 68t117.5 105.5t90.5 136.5t58 162t20.5 181q0 141 -45 264.5t-124 215t-185 144.5t-228 53q-81 0 -155.5 -24
t-139.5 -68t-117.5 -105.5t-90.5 -137t-58.5 -162t-20.5 -180.5z" />
    <glyph glyph-name="oe" unicode="&#x153;" horiz-adv-x="1577" 
d="M1430 106q-26 -34 -66 -60q-34 -23 -86 -41.5t-124 -18.5q-149 0 -240.5 73.5t-128.5 207.5q-3 -18 -11 -46t-22.5 -59t-38 -62.5t-57 -56.5t-78.5 -41t-104 -16q-89 0 -160.5 33.5t-121.5 93.5t-77 143t-27 182q0 100 29.5 183.5t82.5 144.5t127 95t164 34
q68 0 120.5 -20t90.5 -50t64 -66t42 -68q48 98 132.5 151t189.5 53q80 0 146 -32t114 -88.5t74.5 -134.5t27.5 -171h-633v-30q0 -78 15.5 -154t50 -136.5t91 -97.5t138.5 -37q38 0 70 7t58.5 19t47.5 27t38 31q39 37 62 84v-76zM1376 497q-1 83 -16.5 151.5t-46 117t-77 75
t-109.5 26.5q-61 0 -108.5 -26.5t-81 -74.5t-53 -116.5t-24.5 -152.5h516zM481 14q64 0 115.5 23.5t89 64.5t59.5 98t27 125q-5 33 -8 68.5t-3 73.5q0 68 -15.5 139t-49.5 129t-87 95t-128 37q-68 0 -120 -31.5t-87.5 -88.5t-53.5 -136t-18 -174t18 -173t53.5 -133.5
t87.5 -86t120 -30.5z" />
    <glyph glyph-name="Racute" unicode="&#x154;" horiz-adv-x="1080" 
d="M127 1358h357q94 0 180 -22t150.5 -67t103 -114.5t38.5 -164.5t-38.5 -164t-103 -114t-150.5 -67t-180 -22h-224l795 -623h-44l-764 598v-598h-120v1358zM466 651q180 0 269.5 86.5t89.5 252.5t-89.5 253t-269.5 87h-219v-679h219zM367 1473l220 259q12 14 25.5 22.5
t30.5 8.5q20 0 33 -13t13 -33q0 -19 -10.5 -31.5t-22.5 -21.5l-259 -196z" />
    <glyph glyph-name="racute" unicode="&#x155;" horiz-adv-x="650" 
d="M123 878h108v-337q11 53 34.5 110.5t69.5 116.5q46 60 109 94t141 34v-92q-83 0 -148.5 -32.5t-111 -89t-70 -133.5t-24.5 -166v-383h-108v878zM197 1013l220 259q12 14 25.5 22.5t30.5 8.5q20 0 33 -13t13 -33q0 -19 -10.5 -31.5t-22.5 -21.5l-259 -196z" />
    <glyph glyph-name="Rcommaaccent" unicode="&#x156;" horiz-adv-x="1080" 
d="M127 1358h357q94 0 180 -22t150.5 -67t103 -114.5t38.5 -164.5t-38.5 -164t-103 -114t-150.5 -67t-180 -22h-224l795 -623h-44l-764 598v-598h-120v1358zM466 651q180 0 269.5 86.5t89.5 252.5t-89.5 253t-269.5 87h-219v-679h219zM514 -380q20 10 37 26q14 13 25.5 33
t11.5 47q0 14 -2.5 24t-5.5 16q-4 7 -7 11q-6 -9 -14 -15t-18.5 -10.5t-25.5 -4.5q-30 0 -50.5 19t-20.5 51t22.5 52.5t58.5 20.5q24 0 43.5 -10t33.5 -27t21.5 -40t7.5 -48q0 -45 -18.5 -75t-40.5 -48q-26 -22 -58 -34v12z" />
    <glyph glyph-name="rcommaaccent" unicode="&#x157;" horiz-adv-x="650" 
d="M123 878h108v-337q11 53 34.5 110.5t69.5 116.5q46 60 109 94t141 34v-92q-83 0 -148.5 -32.5t-111 -89t-70 -133.5t-24.5 -166v-383h-108v878zM158 -380q20 10 37 26q14 13 25.5 33t11.5 47q0 14 -2.5 24t-5.5 16q-4 7 -7 11q-6 -9 -14 -15t-18.5 -10.5t-25.5 -4.5
q-30 0 -50.5 19t-20.5 51t22.5 52.5t58.5 20.5q24 0 43.5 -10t33.5 -27t21.5 -40t7.5 -48q0 -45 -18.5 -75t-40.5 -48q-26 -22 -58 -34v12z" />
    <glyph glyph-name="Rcaron" unicode="&#x158;" horiz-adv-x="1080" 
d="M127 1358h357q94 0 180 -22t150.5 -67t103 -114.5t38.5 -164.5t-38.5 -164t-103 -114t-150.5 -67t-180 -22h-224l795 -623h-44l-764 598v-598h-120v1358zM466 651q180 0 269.5 86.5t89.5 252.5t-89.5 253t-269.5 87h-219v-679h219zM255 1748l24 5l200 -148l200 148l24 -5
l-224 -280z" />
    <glyph glyph-name="rcaron" unicode="&#x159;" horiz-adv-x="650" 
d="M123 878h108v-337q11 53 34.5 110.5t69.5 116.5q46 60 109 94t141 34v-92q-83 0 -148.5 -32.5t-111 -89t-70 -133.5t-24.5 -166v-383h-108v878zM130 1288l24 5l200 -148l200 148l24 -5l-224 -280z" />
    <glyph glyph-name="Sacute" unicode="&#x15a;" horiz-adv-x="982" 
d="M89 173q45 -46 103 -81q49 -30 118 -55t154 -25q69 0 130.5 19.5t108 55.5t73.5 85.5t27 109.5q0 59 -24 108t-66 93.5t-99 86t-123 85.5q-65 43 -130.5 86.5t-118.5 92.5t-86.5 107t-33.5 132q0 77 34 134.5t89 95t124 56t138 18.5q54 0 101.5 -8.5t82.5 -19.5
q41 -12 75 -28v-61q-34 25 -74 44q-35 17 -82.5 31t-104.5 14q-54 0 -107.5 -15t-97 -44.5t-70.5 -72.5t-27 -98q0 -51 24 -92.5t65.5 -79t97 -73t119.5 -73.5q79 -48 150.5 -96.5t125.5 -103t86 -118.5t32 -143q0 -65 -19.5 -117t-52.5 -91.5t-77 -67.5t-93.5 -46t-101 -26
t-99.5 -8q-86 0 -154.5 19t-116.5 42q-56 26 -100 61v67zM359 1473l220 259q12 14 25.5 22.5t30.5 8.5q20 0 33 -13t13 -33q0 -19 -10.5 -31.5t-22.5 -21.5l-259 -196z" />
    <glyph glyph-name="sacute" unicode="&#x15b;" horiz-adv-x="847" 
d="M85 158q38 -40 87 -72q42 -27 102.5 -49.5t136.5 -22.5q67 0 116 15.5t80.5 40t46.5 55.5t15 63q0 43 -25.5 77t-66 61t-90.5 49.5t-100 42.5q-67 27 -120.5 53t-90.5 56t-57 66.5t-20 84.5q0 56 25.5 97t68.5 67.5t100 39.5t119 13q63 0 113 -11t85 -25q40 -16 72 -35
v-66q-33 30 -75 54q-36 20 -86 37.5t-112 17.5q-41 0 -82.5 -9.5t-75 -28.5t-54.5 -48t-21 -68q0 -32 15 -56t44 -45t73 -41t102 -43q71 -28 135.5 -55.5t113.5 -61.5t78 -78.5t29 -105.5q0 -48 -20 -92t-63.5 -77t-111 -52.5t-161.5 -19.5q-87 0 -147.5 15t-100.5 34
q-47 21 -77 49v74zM305 1013l220 259q12 14 25.5 22.5t30.5 8.5q20 0 33 -13t13 -33q0 -19 -10.5 -31.5t-22.5 -21.5l-259 -196z" />
    <glyph glyph-name="Scircumflex" unicode="&#x15c;" horiz-adv-x="982" 
d="M89 173q45 -46 103 -81q49 -30 118 -55t154 -25q69 0 130.5 19.5t108 55.5t73.5 85.5t27 109.5q0 59 -24 108t-66 93.5t-99 86t-123 85.5q-65 43 -130.5 86.5t-118.5 92.5t-86.5 107t-33.5 132q0 77 34 134.5t89 95t124 56t138 18.5q54 0 101.5 -8.5t82.5 -19.5
q41 -12 75 -28v-61q-34 25 -74 44q-35 17 -82.5 31t-104.5 14q-54 0 -107.5 -15t-97 -44.5t-70.5 -72.5t-27 -98q0 -51 24 -92.5t65.5 -79t97 -73t119.5 -73.5q79 -48 150.5 -96.5t125.5 -103t86 -118.5t32 -143q0 -65 -19.5 -117t-52.5 -91.5t-77 -67.5t-93.5 -46t-101 -26
t-99.5 -8q-86 0 -154.5 19t-116.5 42q-56 26 -100 61v67zM250 1473l224 280l224 -280l-24 -5l-200 148l-200 -148z" />
    <glyph glyph-name="scircumflex" unicode="&#x15d;" horiz-adv-x="847" 
d="M85 158q38 -40 87 -72q42 -27 102.5 -49.5t136.5 -22.5q67 0 116 15.5t80.5 40t46.5 55.5t15 63q0 43 -25.5 77t-66 61t-90.5 49.5t-100 42.5q-67 27 -120.5 53t-90.5 56t-57 66.5t-20 84.5q0 56 25.5 97t68.5 67.5t100 39.5t119 13q63 0 113 -11t85 -25q40 -16 72 -35
v-66q-33 30 -75 54q-36 20 -86 37.5t-112 17.5q-41 0 -82.5 -9.5t-75 -28.5t-54.5 -48t-21 -68q0 -32 15 -56t44 -45t73 -41t102 -43q71 -28 135.5 -55.5t113.5 -61.5t78 -78.5t29 -105.5q0 -48 -20 -92t-63.5 -77t-111 -52.5t-161.5 -19.5q-87 0 -147.5 15t-100.5 34
q-47 21 -77 49v74zM187 1013l224 280l224 -280l-24 -5l-200 148l-200 -148z" />
    <glyph glyph-name="Scedilla" unicode="&#x15e;" horiz-adv-x="982" 
d="M89 173q45 -46 103 -81q49 -30 118 -55t154 -25q69 0 130.5 19.5t108 55.5t73.5 85.5t27 109.5q0 59 -24 108t-66 93.5t-99 86t-123 85.5q-65 43 -130.5 86.5t-118.5 92.5t-86.5 107t-33.5 132q0 77 34 134.5t89 95t124 56t138 18.5q54 0 101.5 -8.5t82.5 -19.5
q41 -12 75 -28v-61q-34 25 -74 44q-35 17 -82.5 31t-104.5 14q-54 0 -107.5 -15t-97 -44.5t-70.5 -72.5t-27 -98q0 -51 24 -92.5t65.5 -79t97 -73t119.5 -73.5q79 -48 150.5 -96.5t125.5 -103t86 -118.5t32 -143q0 -86 -32.5 -148.5t-85 -105t-118.5 -66t-132 -31.5l-78 -84
q24 0 53 -9t54 -28t42 -47t17 -66q0 -65 -50 -105t-138 -40q-28 0 -48 2.5t-34 6.5q-16 4 -27 10l-5 24q14 -5 30 -9q14 -3 31.5 -5.5t37.5 -2.5q65 0 96.5 33t31.5 80q0 34 -15 59t-40 41.5t-56.5 25t-64.5 8.5l121 102q-8 -1 -16.5 -1h-16.5q-86 0 -154.5 19t-116.5 42
q-56 26 -100 61v67z" />
    <glyph glyph-name="scedilla" unicode="&#x15f;" horiz-adv-x="847" 
d="M85 157q38 -40 87 -72q42 -27 102.5 -49t136.5 -22q67 0 116 15.5t80.5 40t46.5 55.5t15 63q0 43 -25.5 77t-66 61t-90.5 49.5t-100 42.5q-67 27 -120.5 53t-90.5 56t-57 66.5t-20 84.5q0 56 25.5 97t68.5 67.5t100 39.5t119 13q63 0 113 -11t85 -25q40 -16 72 -35v-66
q-33 30 -75 54q-36 20 -86 37.5t-112 17.5q-41 0 -82.5 -9.5t-75 -28.5t-54.5 -48t-21 -68q0 -32 15 -56t44 -45t73 -41t102 -43q71 -28 135.5 -55.5t113.5 -61.5t78 -78.5t29 -105.5q0 -45 -17.5 -86.5t-55 -73.5t-96 -53t-139.5 -26l-78 -83q24 0 53 -9t54 -28t42 -47
t17 -66q0 -65 -50 -105t-138 -40q-28 0 -48 2.5t-34 6.5q-16 4 -27 10l-5 24q14 -5 30 -9q14 -3 31.5 -5.5t37.5 -2.5q65 0 96.5 33t31.5 80q0 34 -15 59t-40 41.5t-56.5 25t-64.5 8.5l123 103q-91 0 -154 15t-103 34q-47 21 -76 49v73z" />
    <glyph glyph-name="Scaron" unicode="&#x160;" horiz-adv-x="982" 
d="M89 173q45 -46 103 -81q49 -30 118 -55t154 -25q69 0 130.5 19.5t108 55.5t73.5 85.5t27 109.5q0 59 -24 108t-66 93.5t-99 86t-123 85.5q-65 43 -130.5 86.5t-118.5 92.5t-86.5 107t-33.5 132q0 77 34 134.5t89 95t124 56t138 18.5q54 0 101.5 -8.5t82.5 -19.5
q41 -12 75 -28v-61q-34 25 -74 44q-35 17 -82.5 31t-104.5 14q-54 0 -107.5 -15t-97 -44.5t-70.5 -72.5t-27 -98q0 -51 24 -92.5t65.5 -79t97 -73t119.5 -73.5q79 -48 150.5 -96.5t125.5 -103t86 -118.5t32 -143q0 -65 -19.5 -117t-52.5 -91.5t-77 -67.5t-93.5 -46t-101 -26
t-99.5 -8q-86 0 -154.5 19t-116.5 42q-56 26 -100 61v67zM250 1748l24 5l200 -148l200 148l24 -5l-224 -280z" />
    <glyph glyph-name="scaron" unicode="&#x161;" horiz-adv-x="847" 
d="M85 158q38 -40 87 -72q42 -27 102.5 -49.5t136.5 -22.5q67 0 116 15.5t80.5 40t46.5 55.5t15 63q0 43 -25.5 77t-66 61t-90.5 49.5t-100 42.5q-67 27 -120.5 53t-90.5 56t-57 66.5t-20 84.5q0 56 25.5 97t68.5 67.5t100 39.5t119 13q63 0 113 -11t85 -25q40 -16 72 -35
v-66q-33 30 -75 54q-36 20 -86 37.5t-112 17.5q-41 0 -82.5 -9.5t-75 -28.5t-54.5 -48t-21 -68q0 -32 15 -56t44 -45t73 -41t102 -43q71 -28 135.5 -55.5t113.5 -61.5t78 -78.5t29 -105.5q0 -48 -20 -92t-63.5 -77t-111 -52.5t-161.5 -19.5q-87 0 -147.5 15t-100.5 34
q-47 21 -77 49v74zM187 1288l24 5l200 -148l200 148l24 -5l-224 -280z" />
    <glyph glyph-name="Tcommaaccent" unicode="&#x162;" horiz-adv-x="1149" 
d="M515 1330h-432v28h983v-28h-432v-1330h-119v1330zM544 -380q20 10 37 26q14 13 25.5 33t11.5 47q0 14 -2.5 24t-5.5 16q-4 7 -7 11q-6 -9 -14 -15t-18.5 -10.5t-25.5 -4.5q-30 0 -50.5 19t-20.5 51t22.5 52.5t58.5 20.5q24 0 43.5 -10t33.5 -27t21.5 -40t7.5 -48
q0 -45 -18.5 -75t-40.5 -48q-26 -22 -58 -34v12z" />
    <glyph glyph-name="tcommaaccent" unicode="&#x163;" horiz-adv-x="636" 
d="M215 850h-150v28h150v243l108 77v-320h254v-28h-254v-549q0 -43 2 -92t15 -91t41 -70t80 -28q30 0 52 5q11 3 20 6v-28l-22 -6q-22 -5 -50 -5q-86 0 -135 29t-74 78.5t-31 115t-6 139.5v496zM328 -380q20 10 37 26q14 13 25.5 33t11.5 47q0 14 -2.5 24t-5.5 16
q-4 7 -7 11q-6 -9 -14 -15t-18.5 -10.5t-25.5 -4.5q-30 0 -50.5 19t-20.5 51t22.5 52.5t58.5 20.5q24 0 43.5 -10t33.5 -27t21.5 -40t7.5 -48q0 -45 -18.5 -75t-40.5 -48q-26 -22 -58 -34v12z" />
    <glyph glyph-name="Tcaron" unicode="&#x164;" horiz-adv-x="1149" 
d="M515 1330h-432v28h983v-28h-432v-1330h-119v1330zM350 1748l24 5l200 -148l200 148l24 -5l-224 -280z" />
    <glyph glyph-name="tcaron" unicode="&#x165;" horiz-adv-x="636" 
d="M486 1338q5 32 18.5 44.5t32.5 12.5q22 0 35.5 -12.5t13.5 -32.5q0 -5 -1.5 -14.5t-7.5 -26.5l-114 -299h-30zM215 850h-150v28h150v243l108 77v-320h254v-28h-254v-549q0 -43 2 -92t15 -91t41 -70t80 -28q30 0 52 5q11 3 20 6v-28l-22 -6q-22 -5 -50 -5q-86 0 -135 29
t-74 78.5t-31 115t-6 139.5v496z" />
    <glyph glyph-name="Tbar" unicode="&#x166;" horiz-adv-x="1149" 
d="M515 777h-332v28h332v525h-432v28h983v-28h-432v-525h332v-28h-332v-777h-119v777z" />
    <glyph glyph-name="tbar" unicode="&#x167;" horiz-adv-x="636" 
d="M215 541h-179v28h179v281h-150v28h150v243l108 77v-320h254v-28h-254v-281h254v-28h-254v-240q0 -43 2 -92t15 -91t41 -70t80 -28q30 0 52 5q11 3 20 6v-28l-22 -6q-22 -5 -50 -5q-86 0 -135 29t-74 78.5t-31 115t-6 139.5v187z" />
    <glyph glyph-name="Utilde" unicode="&#x168;" horiz-adv-x="1179" 
d="M1072 551q0 -69 -5 -131.5t-19.5 -118.5t-40.5 -106t-68 -95q-52 -56 -131 -89.5t-193 -33.5q-46 0 -93.5 6t-93 20.5t-87.5 37.5t-77 57q-47 45 -77.5 97.5t-48 118t-24.5 145.5t-7 180v719h120v-758q0 -92 4.5 -163t15.5 -126t29 -97.5t45 -76.5q103 -132 294 -132
q103 0 177 30.5t125 82.5q40 42 65 92t38.5 106t18 116t4.5 122v804h29v-807zM352 1494q0 35 9.5 64.5t29.5 51.5t50.5 34t72.5 12q41 0 76.5 -10.5t69 -23t67 -23t71.5 -10.5q32 0 56 22t28 63h22q0 -35 -9.5 -65t-30 -52.5t-51 -35.5t-72.5 -13q-40 0 -76 10.5t-70 23
t-66 23t-64 10.5q-82 0 -91 -81h-22z" />
    <glyph glyph-name="utilde" unicode="&#x169;" horiz-adv-x="980" 
d="M117 878h108v-560q0 -51 5.5 -105t25 -98.5t57.5 -72.5t104 -28q54 0 99.5 20t82.5 55t65 81t47 98.5t28.5 107.5t9.5 107v395h108v-878h-108v343q-7 -36 -20 -76.5t-32.5 -80.5t-46.5 -76t-63 -63.5t-82.5 -44t-103.5 -16.5q-72 0 -125.5 26.5t-89 71.5t-52.5 105.5
t-17 128.5v560zM220 1034q0 35 9.5 64.5t29.5 51.5t50.5 34t72.5 12q41 0 76.5 -10.5t69 -23t67 -23t71.5 -10.5q32 0 56 22t28 63h22q0 -35 -9.5 -65t-30 -52.5t-51 -35.5t-72.5 -13q-40 0 -76 10.5t-70 23t-66 23t-64 10.5q-82 0 -91 -81h-22z" />
    <glyph glyph-name="Umacron" unicode="&#x16a;" horiz-adv-x="1179" 
d="M1072 551q0 -69 -5 -131.5t-19.5 -118.5t-40.5 -106t-68 -95q-52 -56 -131 -89.5t-193 -33.5q-46 0 -93.5 6t-93 20.5t-87.5 37.5t-77 57q-47 45 -77.5 97.5t-48 118t-24.5 145.5t-7 180v719h120v-758q0 -92 4.5 -163t15.5 -126t29 -97.5t45 -76.5q103 -132 294 -132
q103 0 177 30.5t125 82.5q40 42 65 92t38.5 106t18 116t4.5 122v804h29v-807zM386 1585h485v-53h-485v53z" />
    <glyph glyph-name="umacron" unicode="&#x16b;" horiz-adv-x="980" 
d="M117 878h108v-560q0 -51 5.5 -105t25 -98.5t57.5 -72.5t104 -28q54 0 99.5 20t82.5 55t65 81t47 98.5t28.5 107.5t9.5 107v395h108v-878h-108v343q-7 -36 -20 -76.5t-32.5 -80.5t-46.5 -76t-63 -63.5t-82.5 -44t-103.5 -16.5q-72 0 -125.5 26.5t-89 71.5t-52.5 105.5
t-17 128.5v560zM245 1125h485v-53h-485v53z" />
    <glyph glyph-name="Ubreve" unicode="&#x16c;" horiz-adv-x="1179" 
d="M1072 551q0 -69 -5 -131.5t-19.5 -118.5t-40.5 -106t-68 -95q-52 -56 -131 -89.5t-193 -33.5q-46 0 -93.5 6t-93 20.5t-87.5 37.5t-77 57q-47 45 -77.5 97.5t-48 118t-24.5 145.5t-7 180v719h120v-758q0 -92 4.5 -163t15.5 -126t29 -97.5t45 -76.5q103 -132 294 -132
q103 0 177 30.5t125 82.5q40 42 65 92t38.5 106t18 116t4.5 122v804h29v-807zM851 1708q0 -54 -17.5 -98t-47.5 -75.5t-70.5 -48.5t-87.5 -17t-87.5 17t-70.5 48.5t-47.5 75.5t-17.5 98l22 -12q5 -27 20.5 -51.5t41 -44t60.5 -31t79 -11.5t79 11.5t60.5 31t41 44t20.5 51.5z
" />
    <glyph glyph-name="ubreve" unicode="&#x16d;" horiz-adv-x="980" 
d="M117 878h108v-560q0 -51 5.5 -105t25 -98.5t57.5 -72.5t104 -28q54 0 99.5 20t82.5 55t65 81t47 98.5t28.5 107.5t9.5 107v395h108v-878h-108v343q-7 -36 -20 -76.5t-32.5 -80.5t-46.5 -76t-63 -63.5t-82.5 -44t-103.5 -16.5q-72 0 -125.5 26.5t-89 71.5t-52.5 105.5
t-17 128.5v560zM710 1248q0 -54 -17.5 -98t-47.5 -75.5t-70.5 -48.5t-87.5 -17t-87.5 17t-70.5 48.5t-47.5 75.5t-17.5 98l22 -12q5 -27 20.5 -51.5t41 -44t60.5 -31t79 -11.5t79 11.5t60.5 31t41 44t20.5 51.5z" />
    <glyph glyph-name="Uring" unicode="&#x16e;" horiz-adv-x="1179" 
d="M1072 551q0 -69 -5 -131.5t-19.5 -118.5t-40.5 -106t-68 -95q-52 -56 -131 -89.5t-193 -33.5q-46 0 -93.5 6t-93 20.5t-87.5 37.5t-77 57q-47 45 -77.5 97.5t-48 118t-24.5 145.5t-7 180v719h120v-758q0 -92 4.5 -163t15.5 -126t29 -97.5t45 -76.5q103 -132 294 -132
q103 0 177 30.5t125 82.5q40 42 65 92t38.5 106t18 116t4.5 122v804h29v-807zM628 1474q-34 0 -63.5 8.5t-52 25t-35.5 40t-13 52.5q0 30 13 54t35.5 40.5t52 25.5t63.5 9t64 -9t52.5 -25.5t35.5 -40.5t13 -54q0 -29 -13 -52.5t-35.5 -40t-52.5 -25t-64 -8.5zM628 1496
q35 0 60.5 25t25.5 79t-25.5 79.5t-60.5 25.5t-60 -25.5t-25 -79.5t25 -79t60 -25z" />
    <glyph glyph-name="uring" unicode="&#x16f;" horiz-adv-x="980" 
d="M117 878h108v-560q0 -51 5.5 -105t25 -98.5t57.5 -72.5t104 -28q54 0 99.5 20t82.5 55t65 81t47 98.5t28.5 107.5t9.5 107v395h108v-878h-108v343q-7 -36 -20 -76.5t-32.5 -80.5t-46.5 -76t-63 -63.5t-82.5 -44t-103.5 -16.5q-72 0 -125.5 26.5t-89 71.5t-52.5 105.5
t-17 128.5v560zM487 1014q-34 0 -63.5 8.5t-52 25t-35.5 40t-13 52.5q0 30 13 54t35.5 40.5t52 25.5t63.5 9t64 -9t52.5 -25.5t35.5 -40.5t13 -54q0 -29 -13 -52.5t-35.5 -40t-52.5 -25t-64 -8.5zM487 1036q35 0 60.5 25t25.5 79t-25.5 79.5t-60.5 25.5t-60 -25.5t-25 -79.5
t25 -79t60 -25z" />
    <glyph glyph-name="Uhungarumlaut" unicode="&#x170;" horiz-adv-x="1179" 
d="M1072 551q0 -69 -5 -131.5t-19.5 -118.5t-40.5 -106t-68 -95q-52 -56 -131 -89.5t-193 -33.5q-46 0 -93.5 6t-93 20.5t-87.5 37.5t-77 57q-47 45 -77.5 97.5t-48 118t-24.5 145.5t-7 180v719h120v-758q0 -92 4.5 -163t15.5 -126t29 -97.5t45 -76.5q103 -132 294 -132
q103 0 177 30.5t125 82.5q40 42 65 92t38.5 106t18 116t4.5 122v804h29v-807zM835 1732q12 14 25.5 22.5t30.5 8.5q20 0 33 -13t13 -33q0 -19 -10.5 -31.5t-22.5 -21.5l-259 -196l-30 5zM374 1473l220 259q12 14 25.5 22.5t30.5 8.5q20 0 33 -13t13 -33q0 -19 -10.5 -31.5
t-22.5 -21.5l-259 -196z" />
    <glyph glyph-name="uhungarumlaut" unicode="&#x171;" horiz-adv-x="980" 
d="M117 878h108v-560q0 -51 5.5 -105t25 -98.5t57.5 -72.5t104 -28q54 0 99.5 20t82.5 55t65 81t47 98.5t28.5 107.5t9.5 107v395h108v-878h-108v343q-7 -36 -20 -76.5t-32.5 -80.5t-46.5 -76t-63 -63.5t-82.5 -44t-103.5 -16.5q-72 0 -125.5 26.5t-89 71.5t-52.5 105.5
t-17 128.5v560zM683 1272q12 14 25.5 22.5t30.5 8.5q20 0 33 -13t13 -33q0 -19 -10.5 -31.5t-22.5 -21.5l-259 -196l-30 5zM222 1013l220 259q12 14 25.5 22.5t30.5 8.5q20 0 33 -13t13 -33q0 -19 -10.5 -31.5t-22.5 -21.5l-259 -196z" />
    <glyph glyph-name="Uogonek" unicode="&#x172;" horiz-adv-x="1179" 
d="M745 -315q-16 -13 -35 -24q-17 -9 -41 -16t-54 -7q-57 0 -88 28.5t-31 78.5q0 35 18 68.5t47.5 64t68 57.5t79.5 49q-22 -4 -45.5 -5.5t-48.5 -1.5q-46 0 -93.5 6t-93 20.5t-87.5 37.5t-77 57q-47 45 -77.5 97.5t-48 118t-24.5 145.5t-7 180v719h120v-758q0 -92 4.5 -163
t15.5 -126t29 -97.5t45 -76.5q103 -132 294 -132q103 0 177 30.5t125 82.5q40 42 65 92t38.5 106t18 116t4.5 122v804h29v-807q0 -69 -5 -131.5t-19.5 -118.5t-40.5 -106t-68 -95q-26 -28 -60.5 -50.5t-72.5 -38.5q-43 -17 -85 -42.5t-75.5 -57t-54 -68.5t-20.5 -79
q0 -45 22.5 -67.5t60.5 -22.5q21 0 37.5 5.5t28.5 13.5q14 9 25 20v-28z" />
    <glyph glyph-name="uogonek" unicode="&#x173;" horiz-adv-x="980" 
d="M117 878h108v-560q0 -51 5.5 -105t25 -98.5t57.5 -72.5t104 -28q54 0 99.5 20t82.5 55t65 81t47 98.5t28.5 107.5t9.5 107v395h108v-878h-66q-44 -17 -82.5 -42t-67.5 -55t-46 -65.5t-17 -73.5q0 -45 22.5 -67.5t60.5 -22.5q21 0 37.5 5.5t28.5 13.5q14 9 25 20v-28
q-16 -13 -35 -24q-17 -9 -41 -16t-54 -7q-57 0 -88 28.5t-31 78.5q0 40 21.5 77t56 69.5t78.5 60t90 48.5v343q-7 -36 -20 -76.5t-32.5 -80.5t-46.5 -76t-63 -63.5t-82.5 -44t-103.5 -16.5q-72 0 -125.5 26.5t-89 71.5t-52.5 105.5t-17 128.5v560z" />
    <glyph glyph-name="Wcircumflex" unicode="&#x174;" horiz-adv-x="1992" 
d="M69 1358h125l430 -1163l426 1186l438 -1184l404 1161h31l-480 -1381l-442 1189l-423 -1189zM802 1473l224 280l224 -280l-24 -5l-200 148l-200 -148z" />
    <glyph glyph-name="wcircumflex" unicode="&#x175;" horiz-adv-x="1491" 
d="M67 878h116l277 -722l336 743l321 -738l276 717h31l-346 -899l-326 752l-339 -752zM551 1013l224 280l224 -280l-24 -5l-200 148l-200 -148z" />
    <glyph glyph-name="Ycircumflex" unicode="&#x176;" horiz-adv-x="1164" 
d="M519 584l-458 774h131l441 -745l437 745h33l-464 -792v-566h-120v584zM385 1473l224 280l224 -280l-24 -5l-200 148l-200 -148z" />
    <glyph glyph-name="ycircumflex" unicode="&#x177;" horiz-adv-x="912" 
d="M68 878h117l321 -730l321 730h31l-587 -1336h-32l208 472zM270 1013l224 280l224 -280l-24 -5l-200 148l-200 -148z" />
    <glyph glyph-name="Ydieresis" unicode="&#x178;" horiz-adv-x="1164" 
d="M519 584l-458 774h131l441 -745l437 745h33l-464 -792v-566h-120v584zM760 1518q-32 0 -54.5 22.5t-22.5 54.5t22.5 54.5t54.5 22.5t54.5 -22.5t22.5 -54.5t-22.5 -54.5t-54.5 -22.5zM458 1518q-32 0 -54.5 22.5t-22.5 54.5t22.5 54.5t54.5 22.5t54.5 -22.5t22.5 -54.5
t-22.5 -54.5t-54.5 -22.5z" />
    <glyph glyph-name="Zacute" unicode="&#x179;" horiz-adv-x="1035" 
d="M804 1330h-658v28h798l-738 -1330h758v-28h-899zM395 1473l220 259q12 14 25.5 22.5t30.5 8.5q20 0 33 -13t13 -33q0 -19 -10.5 -31.5t-22.5 -21.5l-259 -196z" />
    <glyph glyph-name="zacute" unicode="&#x17a;" horiz-adv-x="806" 
d="M587 850h-477v28h615l-520 -850h538v-28h-676zM260 1013l220 259q12 14 25.5 22.5t30.5 8.5q20 0 33 -13t13 -33q0 -19 -10.5 -31.5t-22.5 -21.5l-259 -196z" />
    <glyph glyph-name="Zdotaccent" unicode="&#x17b;" horiz-adv-x="1035" 
d="M804 1330h-658v28h798l-738 -1330h758v-28h-899zM520 1537q-32 0 -54.5 22.5t-22.5 54.5t22.5 54.5t54.5 22.5t54.5 -22.5t22.5 -54.5t-22.5 -54.5t-54.5 -22.5z" />
    <glyph glyph-name="zdotaccent" unicode="&#x17c;" horiz-adv-x="806" 
d="M587 850h-477v28h615l-520 -850h538v-28h-676zM409 1077q-32 0 -54.5 22.5t-22.5 54.5t22.5 54.5t54.5 22.5t54.5 -22.5t22.5 -54.5t-22.5 -54.5t-54.5 -22.5z" />
    <glyph glyph-name="Zcaron" unicode="&#x17d;" horiz-adv-x="1035" 
d="M804 1330h-658v28h798l-738 -1330h758v-28h-899zM296 1748l24 5l200 -148l200 148l24 -5l-224 -280z" />
    <glyph glyph-name="zcaron" unicode="&#x17e;" horiz-adv-x="806" 
d="M587 850h-477v28h615l-520 -850h538v-28h-676zM185 1288l24 5l200 -148l200 148l24 -5l-224 -280z" />
    <glyph glyph-name="florin" unicode="&#x192;" horiz-adv-x="1050" 
d="M-53 -359q13 -26 34 -45q18 -17 45.5 -30.5t67.5 -13.5q73 0 123 54.5t83.5 146t54.5 212t35 252.5t24.5 267t24.5 257h-317v28h320q18 145 45 254.5t70.5 183t106.5 110.5t153 37q42 0 71.5 -8.5t48.5 -19.5q22 -12 36 -28v-61q-12 25 -33 45q-18 17 -48.5 31t-76.5 14
q-55 0 -94.5 -26.5t-68.5 -91t-49.5 -172t-38.5 -268.5h312v-28h-315q-9 -78 -18.5 -171.5t-21.5 -193.5t-28 -202t-39 -196.5t-55 -177.5t-75.5 -144t-100 -96.5t-128.5 -35.5q-38 0 -66 8.5t-46 19.5q-21 12 -36 28v61v0z" />
    <glyph glyph-name="Aringacute" unicode="&#x1fa;" horiz-adv-x="1228" 
d="M663 1851q12 15 24.5 24t29.5 9q19 0 32 -12t13 -31q0 -17 -10.5 -29.5t-21.5 -20.5l-179 -122l-29 5zM605 1371q-32 1 -60.5 10t-49.5 25.5t-33 39t-12 51.5q0 30 13 54t35.5 40.5t52 25.5t63.5 9t64 -9t52.5 -25.5t35.5 -40.5t13 -54q0 -29 -12.5 -51.5t-34 -39
t-50 -25.5t-60.5 -10l539 -1371h-128l-166 424h-603l-166 -424h-31zM614 1393q35 0 60.5 25t25.5 79t-25.5 79.5t-60.5 25.5t-60 -25.5t-25 -79.5t25 -79t60 -25zM856 452l-290 740l-291 -740h581z" />
    <glyph glyph-name="aringacute" unicode="&#x1fb;" horiz-adv-x="964" 
d="M531 1440q12 15 24.5 24t29.5 9q19 0 32 -12t13 -31q0 -17 -10.5 -29.5t-21.5 -20.5l-179 -122l-29 5zM462 960q-34 0 -63.5 8.5t-52 25t-35.5 40t-13 52.5q0 30 13 54t35.5 40.5t52 25.5t63.5 9t64 -9t52.5 -25.5t35.5 -40.5t13 -54q0 -29 -13 -52.5t-35.5 -40
t-52.5 -25t-64 -8.5zM462 982q35 0 60.5 25t25.5 79t-25.5 79.5t-60.5 25.5t-60 -25.5t-25 -79.5t25 -79t60 -25zM904 23q-6 -7 -16 -12q-8 -5 -21.5 -8t-32.5 -3q-66 0 -107.5 49t-59.5 131q-11 -29 -33 -62.5t-58 -63t-88 -49t-125 -19.5q-62 0 -113.5 15.5t-89 45.5
t-58.5 74.5t-21 102.5q0 64 26 109t73.5 79t113 61.5t144.5 56.5q59 22 99.5 39t65 35t35 40.5t10.5 56.5t-10.5 64.5t-33 53t-58 35.5t-84.5 13q-68 0 -119 -21t-86.5 -47t-54 -48t-19.5 -25v74q30 26 72 47q36 18 90 33t127 15q70 0 119 -15t81 -39.5t50 -55.5t27 -62
t11 -59.5t2 -48.5v-363q0 -80 10.5 -125t24.5 -67t29.5 -27t24.5 -5q11 0 21 2.5t17 5.5q8 4 15 8v-21zM654 564v39t-1 37q-10 -23 -26 -39.5t-41 -32.5t-61 -32.5t-85 -37.5q-57 -25 -102.5 -51t-77.5 -58t-49 -72t-17 -93q0 -51 16 -90.5t43.5 -66t64 -40t78.5 -13.5
q48 0 90.5 16.5t77 45t59.5 65.5t37 78q-6 45 -6 98v247z" />
    <glyph glyph-name="AEacute" unicode="&#x1fc;" horiz-adv-x="1602" 
d="M929 1358h572v-28h-452v-623h355v-28h-355v-651h452v-28h-572v535h-495l-344 -535h-35zM929 563v740l-477 -740h477zM998 1473l220 259q12 14 25.5 22.5t30.5 8.5q20 0 33 -13t13 -33q0 -19 -10.5 -31.5t-22.5 -21.5l-259 -196z" />
    <glyph glyph-name="aeacute" unicode="&#x1fd;" horiz-adv-x="1470" 
d="M1323 106q-26 -34 -66 -60q-34 -23 -86 -41.5t-124 -18.5q-143 0 -232.5 67.5t-129.5 190.5q-8 -37 -28 -82t-57.5 -84t-95 -65.5t-141.5 -26.5q-62 0 -113.5 15.5t-89 46t-58.5 74.5t-21 101q0 64 26.5 109.5t74 79.5t113 61.5t143.5 56.5q59 22 99.5 39t65 35t35 40.5
t10.5 56.5t-10.5 64.5t-33 53t-58 35.5t-84.5 13q-68 0 -119 -21t-86.5 -47t-54 -48t-19.5 -25v74q30 26 72 47q36 18 90 33t127 15q62 0 107 -12t76.5 -32t51.5 -46t31 -53q51 69 124.5 106t160.5 37q80 0 146 -32t114 -88.5t74.5 -134.5t27.5 -171h-633v-30
q0 -78 15.5 -154t50 -136.5t91 -97.5t138.5 -37q74 0 125.5 25t84.5 55.5t48.5 57t17.5 29.5v-75zM1269 497q-1 83 -16.5 151.5t-46 117t-77 75t-109.5 26.5q-61 0 -108.5 -26.5t-81 -74.5t-53 -116.5t-24.5 -152.5h516zM654 564v39t-1 37q-10 -23 -26 -39.5t-41 -32.5
t-61 -32.5t-85 -37.5q-57 -25 -102.5 -51t-77.5 -58t-49 -72.5t-17 -92.5q0 -51 16 -90.5t43 -66t64 -40t79 -13.5q50 0 97 18.5t84.5 53.5t62.5 86.5t32 116.5q-18 79 -18 178v97zM625 1013l220 259q12 14 25.5 22.5t30.5 8.5q20 0 33 -13t13 -33q0 -19 -10.5 -31.5
t-22.5 -21.5l-259 -196z" />
    <glyph glyph-name="Oslashacute" unicode="&#x1fe;" horiz-adv-x="1601" 
d="M892 1732q12 14 25.5 22.5t30.5 8.5q20 0 33 -13t13 -33q0 -19 -10.5 -31.5t-22.5 -21.5l-259 -196l-30 5zM465 -147l648 1655h31l-648 -1655h-31zM1518 679q0 -102 -25.5 -194t-72 -170t-112 -141.5t-145 -107.5t-171.5 -68t-191 -24q-149 0 -280 53t-228.5 146.5
t-153.5 223t-56 282.5q0 100 25.5 190.5t72 169t112 142t145.5 109t171.5 70t191.5 24.5q149 0 280 -54t228 -149t153 -224t56 -278zM801 2q124 0 230.5 52t184.5 143t122.5 214.5t44.5 267.5q0 143 -44.5 266.5t-122.5 215t-184.5 143.5t-230.5 52t-230.5 -52
t-184.5 -143.5t-122.5 -215t-44.5 -266.5q0 -144 44.5 -267.5t122.5 -214.5t184.5 -143t230.5 -52z" />
    <glyph glyph-name="oslashacute" unicode="&#x1ff;" horiz-adv-x="992" 
d="M549 1272q12 14 25.5 22.5t30.5 8.5q20 0 33 -13t13 -33q0 -19 -10.5 -31.5t-22.5 -21.5l-259 -196l-30 5zM153 -127l653 1133h33l-653 -1133h-33zM78 437q0 95 31.5 178.5t87.5 145.5t132.5 98t166.5 36t166.5 -36t132.5 -98t87.5 -145.5t31.5 -178.5q0 -96 -31.5 -178
t-87.5 -143t-132.5 -95.5t-166.5 -34.5t-166.5 34.5t-132.5 95.5t-87.5 143t-31.5 178zM192 437q0 -92 20.5 -170t59.5 -134t95.5 -87.5t128.5 -31.5t128.5 31.5t96 87.5t60 134t20.5 170t-20.5 170.5t-60 136.5t-96 90.5t-128.5 32.5t-128.5 -32.5t-95.5 -90.5
t-59.5 -136.5t-20.5 -170.5z" />
    <glyph glyph-name="Scommaaccent" unicode="&#x218;" horiz-adv-x="982" 
d="M89 173q45 -46 103 -81q49 -30 118 -55t154 -25q69 0 130.5 19.5t108 55.5t73.5 85.5t27 109.5q0 59 -24 108t-66 93.5t-99 86t-123 85.5q-65 43 -130.5 86.5t-118.5 92.5t-86.5 107t-33.5 132q0 77 34 134.5t89 95t124 56t138 18.5q54 0 101.5 -8.5t82.5 -19.5
q41 -12 75 -28v-61q-34 25 -74 44q-35 17 -82.5 31t-104.5 14q-54 0 -107.5 -15t-97 -44.5t-70.5 -72.5t-27 -98q0 -51 24 -92.5t65.5 -79t97 -73t119.5 -73.5q79 -48 150.5 -96.5t125.5 -103t86 -118.5t32 -143q0 -65 -19.5 -117t-52.5 -91.5t-77 -67.5t-93.5 -46t-101 -26
t-99.5 -8q-86 0 -154.5 19t-116.5 42q-56 26 -100 61v67zM451 -380q20 10 37 26q14 13 25.5 33t11.5 47q0 14 -2.5 24t-5.5 16q-4 7 -7 11q-6 -9 -14 -15t-18.5 -10.5t-25.5 -4.5q-30 0 -50.5 19t-20.5 51t22.5 52.5t58.5 20.5q24 0 43.5 -10t33.5 -27t21.5 -40t7.5 -48
q0 -45 -18.5 -75t-40.5 -48q-26 -22 -58 -34v12z" />
    <glyph glyph-name="scommaaccent" unicode="&#x219;" horiz-adv-x="847" 
d="M85 158q38 -40 87 -72q42 -27 102.5 -49.5t136.5 -22.5q67 0 116 15.5t80.5 40t46.5 55.5t15 63q0 43 -25.5 77t-66 61t-90.5 49.5t-100 42.5q-67 27 -120.5 53t-90.5 56t-57 66.5t-20 84.5q0 56 25.5 97t68.5 67.5t100 39.5t119 13q63 0 113 -11t85 -25q40 -16 72 -35
v-66q-33 30 -75 54q-36 20 -86 37.5t-112 17.5q-41 0 -82.5 -9.5t-75 -28.5t-54.5 -48t-21 -68q0 -32 15 -56t44 -45t73 -41t102 -43q71 -28 135.5 -55.5t113.5 -61.5t78 -78.5t29 -105.5q0 -48 -20 -92t-63.5 -77t-111 -52.5t-161.5 -19.5q-87 0 -147.5 15t-100.5 34
q-47 21 -77 49v74zM386 -380q20 10 37 26q14 13 25.5 33t11.5 47q0 14 -2.5 24t-5.5 16q-4 7 -7 11q-6 -9 -14 -15t-18.5 -10.5t-25.5 -4.5q-30 0 -50.5 19t-20.5 51t22.5 52.5t58.5 20.5q24 0 43.5 -10t33.5 -27t21.5 -40t7.5 -48q0 -45 -18.5 -75t-40.5 -48
q-26 -22 -58 -34v12z" />
    <glyph glyph-name="uni021A" unicode="&#x21a;" horiz-adv-x="1149" 
d="M515 1330h-432v28h983v-28h-432v-1330h-119v1330zM544 -380q20 10 37 26q14 13 25.5 33t11.5 47q0 14 -2.5 24t-5.5 16q-4 7 -7 11q-6 -9 -14 -15t-18.5 -10.5t-25.5 -4.5q-30 0 -50.5 19t-20.5 51t22.5 52.5t58.5 20.5q24 0 43.5 -10t33.5 -27t21.5 -40t7.5 -48
q0 -45 -18.5 -75t-40.5 -48q-26 -22 -58 -34v12z" />
    <glyph glyph-name="uni021B" unicode="&#x21b;" horiz-adv-x="636" 
d="M215 850h-150v28h150v243l108 77v-320h254v-28h-254v-549q0 -43 2 -92t15 -91t41 -70t80 -28q30 0 52 5q11 3 20 6v-28l-22 -6q-22 -5 -50 -5q-86 0 -135 29t-74 78.5t-31 115t-6 139.5v496zM328 -380q20 10 37 26q14 13 25.5 33t11.5 47q0 14 -2.5 24t-5.5 16
q-4 7 -7 11q-6 -9 -14 -15t-18.5 -10.5t-25.5 -4.5q-30 0 -50.5 19t-20.5 51t22.5 52.5t58.5 20.5q24 0 43.5 -10t33.5 -27t21.5 -40t7.5 -48q0 -45 -18.5 -75t-40.5 -48q-26 -22 -58 -34v12z" />
    <glyph glyph-name="uni0237" unicode="&#x237;" horiz-adv-x="378" 
d="M135 878h108v-574q0 -126 -14 -225t-37 -176.5t-52.5 -134t-60.5 -96.5q-72 -94 -163 -130v22q24 19 49.5 42t50 57t46 81t38 115t26 159t9.5 212v648z" />
    <glyph glyph-name="circumflex" unicode="&#x2c6;" horiz-adv-x="654" 
d="M103 1013l224 280l224 -280l-24 -5l-200 148l-200 -148z" />
    <glyph glyph-name="caron" unicode="&#x2c7;" horiz-adv-x="654" 
d="M103 1288l24 5l200 -148l200 148l24 -5l-224 -280z" />
    <glyph glyph-name="uni02C9" unicode="&#x2c9;" horiz-adv-x="691" 
d="M103 1125h485v-53h-485v53z" />
    <glyph glyph-name="breve" unicode="&#x2d8;" horiz-adv-x="652" 
d="M549 1248q0 -54 -17.5 -98t-47.5 -75.5t-70.5 -48.5t-87.5 -17t-87.5 17t-70.5 48.5t-47.5 75.5t-17.5 98l22 -12q5 -27 20.5 -51.5t41 -44t60.5 -31t79 -11.5t79 11.5t60.5 31t41 44t20.5 51.5z" />
    <glyph glyph-name="dotaccent" unicode="&#x2d9;" horiz-adv-x="360" 
d="M180 1077q-32 0 -54.5 22.5t-22.5 54.5t22.5 54.5t54.5 22.5t54.5 -22.5t22.5 -54.5t-22.5 -54.5t-54.5 -22.5z" />
    <glyph glyph-name="ring" unicode="&#x2da;" horiz-adv-x="535" 
d="M267 1014q-34 0 -63.5 8.5t-52 25t-35.5 40t-13 52.5q0 30 13 54t35.5 40.5t52 25.5t63.5 9t64 -9t52.5 -25.5t35.5 -40.5t13 -54q0 -29 -13 -52.5t-35.5 -40t-52.5 -25t-64 -8.5zM267 1036q35 0 60.5 25t25.5 79t-25.5 79.5t-60.5 25.5t-60 -25.5t-25 -79.5t25 -79
t60 -25z" />
    <glyph glyph-name="ogonek" unicode="&#x2db;" horiz-adv-x="486" 
d="M344 -315q-16 -13 -35 -24q-17 -9 -41 -16t-54 -7q-57 0 -88 28.5t-31 78.5q0 40 21.5 77t56 69.5t78.5 60t90 48.5h42q-44 -17 -82.5 -42t-67.5 -55t-46 -65.5t-17 -73.5q0 -45 22.5 -67.5t60.5 -22.5q21 0 37.5 5.5t28.5 13.5q14 9 25 20v-28z" />
    <glyph glyph-name="tilde" unicode="&#x2dc;" horiz-adv-x="758" 
d="M103 1034q0 35 9.5 64.5t29.5 51.5t50.5 34t72.5 12q41 0 76.5 -10.5t69 -23t67 -23t71.5 -10.5q32 0 56 22t28 63h22q0 -35 -9.5 -65t-30 -52.5t-51 -35.5t-72.5 -13q-40 0 -76 10.5t-70 23t-66 23t-64 10.5q-82 0 -91 -81h-22v0z" />
    <glyph glyph-name="hungarumlaut" unicode="&#x2dd;" horiz-adv-x="773" 
d="M561 1272q12 14 25.5 22.5t30.5 8.5q20 0 33 -13t13 -33q0 -19 -10.5 -31.5t-22.5 -21.5l-259 -196l-30 5zM100 1013l220 259q12 14 25.5 22.5t30.5 8.5q20 0 33 -13t13 -33q0 -19 -10.5 -31.5t-22.5 -21.5l-259 -196z" />
    <glyph glyph-name="anoteleia" unicode="&#x387;" horiz-adv-x="381" 
d="M107 438q0 35 24 58.5t59 23.5t59.5 -23.5t24.5 -58.5q0 -17 -6.5 -32.5t-18 -26.5t-26.5 -17.5t-33 -6.5q-35 0 -59 24t-24 59z" />
    <glyph glyph-name="Delta" unicode="&#x394;" horiz-adv-x="1229" 
d="M614 1381l548 -1381h-1095zM1023 28l-457 1153l-456 -1153h913z" />
    <glyph glyph-name="Delta" unicode="&#x2206;" horiz-adv-x="1229" 
d="M614 1381l548 -1381h-1095zM1023 28l-457 1153l-456 -1153h913z" />
    <glyph glyph-name="Omega" unicode="&#x3a9;" horiz-adv-x="1576" 
d="M97 110h437l-5 64q-24 11 -63.5 33t-84.5 56t-91.5 81.5t-83.5 108.5t-60.5 137.5t-23.5 169.5q0 126 46.5 239t133 198.5t209.5 136t277 50.5t277 -50.5t209.5 -136t133 -198.5t46.5 -239q0 -93 -23.5 -169.5t-60.5 -137.5t-83.5 -108.5t-91.5 -81.5t-85 -56t-64 -33
l-5 -64h437l-41 -110h-432l15 194q83 55 149 138q28 35 54.5 79t47.5 98t34 117.5t13 137.5q0 114 -33.5 221t-100 189.5t-166 132t-230.5 49.5t-230.5 -49.5t-166 -132t-100 -189.5t-33.5 -221q0 -74 12.5 -137.5t33.5 -117.5t48 -98t55 -79q65 -83 149 -138l15 -194h-432z
" />
    <glyph glyph-name="pi" unicode="&#x3c0;" horiz-adv-x="1160" 
d="M273 867h-210v28h1024v-28h-210v-567q0 -43 2 -92t15 -91t41 -70t80 -28q30 0 52 5q11 3 20 6v-28l-22 -6q-22 -5 -50 -5q-86 0 -135 29t-74 78.5t-31 115t-6 139.5v514h-388v-867h-108v867z" />
    <glyph glyph-name="Wgrave" unicode="&#x1e80;" horiz-adv-x="1992" 
d="M69 1358h125l430 -1163l426 1186l438 -1184l404 1161h31l-480 -1381l-442 1189l-423 -1189zM1141 1468l-259 196q-12 9 -22.5 21.5t-10.5 31.5q0 20 13 33t33 13q17 0 30.5 -8.5t25.5 -22.5l220 -259z" />
    <glyph glyph-name="wgrave" unicode="&#x1e81;" horiz-adv-x="1491" 
d="M67 878h116l277 -722l336 743l321 -738l276 717h31l-346 -899l-326 752l-339 -752zM868 1008l-259 196q-12 9 -22.5 21.5t-10.5 31.5q0 20 13 33t33 13q17 0 30.5 -8.5t25.5 -22.5l220 -259z" />
    <glyph glyph-name="Wacute" unicode="&#x1e82;" horiz-adv-x="1992" 
d="M69 1358h125l430 -1163l426 1186l438 -1184l404 1161h31l-480 -1381l-442 1189l-423 -1189zM904 1473l220 259q12 14 25.5 22.5t30.5 8.5q20 0 33 -13t13 -33q0 -19 -10.5 -31.5t-22.5 -21.5l-259 -196z" />
    <glyph glyph-name="wacute" unicode="&#x1e83;" horiz-adv-x="1491" 
d="M67 878h116l277 -722l336 743l321 -738l276 717h31l-346 -899l-326 752l-339 -752zM652 1013l220 259q12 14 25.5 22.5t30.5 8.5q20 0 33 -13t13 -33q0 -19 -10.5 -31.5t-22.5 -21.5l-259 -196z" />
    <glyph glyph-name="Wdieresis" unicode="&#x1e84;" horiz-adv-x="1992" 
d="M69 1358h125l430 -1163l426 1186l438 -1184l404 1161h31l-480 -1381l-442 1189l-423 -1189zM1177 1518q-32 0 -54.5 22.5t-22.5 54.5t22.5 54.5t54.5 22.5t54.5 -22.5t22.5 -54.5t-22.5 -54.5t-54.5 -22.5zM875 1518q-32 0 -54.5 22.5t-22.5 54.5t22.5 54.5t54.5 22.5
t54.5 -22.5t22.5 -54.5t-22.5 -54.5t-54.5 -22.5z" />
    <glyph glyph-name="wdieresis" unicode="&#x1e85;" horiz-adv-x="1491" 
d="M67 878h116l277 -722l336 743l321 -738l276 717h31l-346 -899l-326 752l-339 -752zM926 1058q-32 0 -54.5 22.5t-22.5 54.5t22.5 54.5t54.5 22.5t54.5 -22.5t22.5 -54.5t-22.5 -54.5t-54.5 -22.5zM624 1058q-32 0 -54.5 22.5t-22.5 54.5t22.5 54.5t54.5 22.5t54.5 -22.5
t22.5 -54.5t-22.5 -54.5t-54.5 -22.5z" />
    <glyph glyph-name="Ygrave" unicode="&#x1ef2;" horiz-adv-x="1164" 
d="M519 584l-458 774h131l441 -745l437 745h33l-464 -792v-566h-120v584zM699 1468l-259 196q-12 9 -22.5 21.5t-10.5 31.5q0 20 13 33t33 13q17 0 30.5 -8.5t25.5 -22.5l220 -259z" />
    <glyph glyph-name="ygrave" unicode="&#x1ef3;" horiz-adv-x="912" 
d="M68 878h117l321 -730l321 730h31l-587 -1336h-32l208 472zM584 1008l-259 196q-12 9 -22.5 21.5t-10.5 31.5q0 20 13 33t33 13q17 0 30.5 -8.5t25.5 -22.5l220 -259z" />
    <glyph glyph-name="uni2011" unicode="&#x2011;" horiz-adv-x="811" 
d="M109 452h593v-28h-593v28z" />
    <glyph glyph-name="figuredash" unicode="&#x2012;" horiz-adv-x="1125" 
d="M109 452h907v-28h-907v28z" />
    <glyph glyph-name="endash" unicode="&#x2013;" horiz-adv-x="1125" 
d="M109 452h907v-28h-907v28z" />
    <glyph glyph-name="emdash" unicode="&#x2014;" horiz-adv-x="1690" 
d="M109 452h1472v-28h-1472v28z" />
    <glyph glyph-name="uni2015" unicode="&#x2015;" horiz-adv-x="1690" 
d="M109 452h1472v-28h-1472v28z" />
    <glyph glyph-name="quoteleft" unicode="&#x2018;" horiz-adv-x="407" 
d="M294 1383q-44 -24 -77 -57q-29 -29 -53 -71t-24 -99q0 -25 4.5 -41t9.5 -27q6 -12 15 -19q6 10 16 18q8 7 21 12.5t31 5.5q35 0 59 -24t24 -59q0 -33 -23.5 -59.5t-70.5 -26.5q-30 0 -55 12t-44 35t-29.5 55.5t-10.5 73.5q0 38 9 70.5t23 59.5t32.5 49t38.5 39
q46 40 104 66v-13z" />
    <glyph glyph-name="quoteright" unicode="&#x2019;" horiz-adv-x="407" 
d="M113 949q43 24 77 57q29 29 53 71t24 99q0 24 -5 40.5t-10 27.5q-6 12 -14 19q-6 -10 -16 -18q-8 -7 -21.5 -12.5t-30.5 -5.5q-35 0 -59 24t-24 59q0 33 23.5 59.5t70.5 26.5q30 0 55 -12t44 -35t29.5 -55.5t10.5 -73.5q0 -38 -9 -71t-23.5 -60t-33.5 -49t-38 -39
q-46 -40 -103 -65v13z" />
    <glyph glyph-name="quotesinglbase" unicode="&#x201a;" horiz-adv-x="407" 
d="M113 -296q43 24 77 57q29 29 53 71t24 99q0 24 -5 40.5t-10 27.5q-6 12 -14 19q-6 -10 -16 -18q-8 -7 -21.5 -12.5t-30.5 -5.5q-35 0 -59 24t-24 59q0 33 23.5 59.5t70.5 26.5q30 0 55 -12t44 -35t29.5 -55.5t10.5 -73.5q0 -38 -9 -71t-23.5 -60t-33.5 -49t-38 -39
q-46 -40 -103 -65v13z" />
    <glyph glyph-name="quotedblleft" unicode="&#x201c;" horiz-adv-x="703" 
d="M590 1383q-44 -24 -77 -57q-29 -29 -53 -71t-24 -99q0 -25 4.5 -41t9.5 -27q6 -12 15 -19q6 10 16 18q8 7 21 12.5t31 5.5q35 0 59 -24t24 -59q0 -33 -23.5 -59.5t-70.5 -26.5q-30 0 -55 12t-44 35t-29.5 55.5t-10.5 73.5q0 38 9 70.5t23 59.5t32.5 49t38.5 39
q46 40 104 66v-13zM294 1383q-44 -24 -77 -57q-29 -29 -53 -71t-24 -99q0 -25 4.5 -41t9.5 -27q6 -12 15 -19q6 10 16 18q8 7 21 12.5t31 5.5q35 0 59 -24t24 -59q0 -33 -23.5 -59.5t-70.5 -26.5q-30 0 -55 12t-44 35t-29.5 55.5t-10.5 73.5q0 38 9 70.5t23 59.5t32.5 49
t38.5 39q46 40 104 66v-13z" />
    <glyph glyph-name="quotedblright" unicode="&#x201d;" horiz-adv-x="703" 
d="M409 949q43 24 77 57q29 29 53 71t24 99q0 24 -5 40.5t-10 27.5q-6 12 -14 19q-6 -10 -16 -18q-8 -7 -21.5 -12.5t-30.5 -5.5q-35 0 -59 24t-24 59q0 33 23.5 59.5t70.5 26.5q30 0 55 -12t44 -35t29.5 -55.5t10.5 -73.5q0 -38 -9 -71t-23.5 -60t-33.5 -49t-38 -39
q-46 -40 -103 -65v13zM113 949q43 24 77 57q29 29 53 71t24 99q0 24 -5 40.5t-10 27.5q-6 12 -14 19q-6 -10 -16 -18q-8 -7 -21.5 -12.5t-30.5 -5.5q-35 0 -59 24t-24 59q0 33 23.5 59.5t70.5 26.5q30 0 55 -12t44 -35t29.5 -55.5t10.5 -73.5q0 -38 -9 -71t-23.5 -60
t-33.5 -49t-38 -39q-46 -40 -103 -65v13z" />
    <glyph glyph-name="quotedblbase" unicode="&#x201e;" horiz-adv-x="703" 
d="M409 -296q43 24 77 57q29 29 53 71t24 99q0 24 -5 40.5t-10 27.5q-6 12 -14 19q-6 -10 -16 -18q-8 -7 -21.5 -12.5t-30.5 -5.5q-35 0 -59 24t-24 59q0 33 23.5 59.5t70.5 26.5q30 0 55 -12t44 -35t29.5 -55.5t10.5 -73.5q0 -38 -9 -71t-23.5 -60t-33.5 -49t-38 -39
q-46 -40 -103 -65v13zM113 -296q43 24 77 57q29 29 53 71t24 99q0 24 -5 40.5t-10 27.5q-6 12 -14 19q-6 -10 -16 -18q-8 -7 -21.5 -12.5t-30.5 -5.5q-35 0 -59 24t-24 59q0 33 23.5 59.5t70.5 26.5q30 0 55 -12t44 -35t29.5 -55.5t10.5 -73.5q0 -38 -9 -71t-23.5 -60
t-33.5 -49t-38 -39q-46 -40 -103 -65v13z" />
    <glyph glyph-name="dagger" unicode="&#x2020;" horiz-adv-x="1045" 
d="M471 871h-388l9 28h378l-13 459h131l-13 -459h387l-9 -28h-379l-38 -1329h-27z" />
    <glyph glyph-name="daggerdbl" unicode="&#x2021;" horiz-adv-x="1045" 
d="M92 644h385l-6 227h-388l9 28h378l-13 459h131l-13 -459h387l-9 -28h-379l-6 -227h394l-9 -28h-386l-31 -1074h-27l-31 1074h-395z" />
    <glyph glyph-name="bullet" unicode="&#x2022;" horiz-adv-x="636" 
d="M318 240q-41 0 -77.5 15.5t-63.5 42.5t-42.5 63.5t-15.5 77.5t15.5 77.5t42.5 63.5t63.5 42.5t77.5 15.5t77.5 -15.5t63.5 -42.5t42.5 -63.5t15.5 -77.5t-15.5 -77.5t-42.5 -63.5t-63.5 -42.5t-77.5 -15.5z" />
    <glyph glyph-name="ellipsis" unicode="&#x2026;" horiz-adv-x="1143" 
d="M869 65q0 35 24 58.5t59 23.5t59.5 -23.5t24.5 -58.5q0 -17 -6.5 -32.5t-18 -26.5t-26.5 -17.5t-33 -6.5q-35 0 -59 24t-24 59zM488 65q0 35 24 58.5t59 23.5t59.5 -23.5t24.5 -58.5q0 -17 -6.5 -32.5t-18 -26.5t-26.5 -17.5t-33 -6.5q-35 0 -59 24t-24 59zM107 65
q0 35 24 58.5t59 23.5t59.5 -23.5t24.5 -58.5q0 -17 -6.5 -32.5t-18 -26.5t-26.5 -17.5t-33 -6.5q-35 0 -59 24t-24 59z" />
    <glyph glyph-name="perthousand" unicode="&#x2030;" horiz-adv-x="2329" 
d="M1183 1457h32l-848 -1555h-32zM390 712q-70 0 -129.5 26t-103.5 71t-69 105.5t-25 128.5t25 128.5t69 106t103.5 72t129.5 26.5t129.5 -26.5t103 -72t68.5 -106t25 -128.5t-25 -128.5t-68.5 -105.5t-103 -71t-129.5 -26zM390 738q58 0 98.5 26t66.5 68.5t38 97.5t12 113
t-12 113t-38 98t-66.5 69.5t-98.5 26.5t-98.5 -26.5t-66.5 -69.5t-38 -98t-12 -113t12 -113t38 -97.5t66.5 -68.5t98.5 -26zM1613 313q0 68 25 128.5t69 106t103.5 72t129.5 26.5t129.5 -26.5t103 -72t68.5 -106t25 -128.5t-25 -128.5t-68.5 -105.5t-103 -71t-129.5 -26
t-129.5 26t-103.5 71t-69 105.5t-25 128.5zM835 313q0 68 25 128.5t69 106t103.5 72t129.5 26.5t129.5 -26.5t103 -72t68.5 -106t25 -128.5t-25 -128.5t-68.5 -105.5t-103 -71t-129.5 -26t-129.5 26t-103.5 71t-69 105.5t-25 128.5zM1725 313q0 -58 12 -113t38 -97.5
t66.5 -68.5t98.5 -26t98.5 26t66.5 68.5t38 97.5t12 113t-12 113t-38 98t-66.5 69.5t-98.5 26.5t-98.5 -26.5t-66.5 -69.5t-38 -98t-12 -113zM947 313q0 -58 12 -113t38 -97.5t66.5 -68.5t98.5 -26t98.5 26t66.5 68.5t38 97.5t12 113t-12 113t-38 98t-66.5 69.5t-98.5 26.5
t-98.5 -26.5t-66.5 -69.5t-38 -98t-12 -113z" />
    <glyph glyph-name="guilsinglleft" unicode="&#x2039;" horiz-adv-x="528" 
d="M79 443l320 320l20 -20l-301 -300l300 -300l-20 -20z" />
    <glyph glyph-name="guilsinglright" unicode="&#x203a;" horiz-adv-x="528" 
d="M130 123l-20 20l300 300l-301 300l20 20l320 -320z" />
    <glyph glyph-name="fraction" unicode="&#x2044;" horiz-adv-x="268" 
d="M-306 -98l848 1555h32l-848 -1555h-32z" />
    <glyph glyph-name="zerosuperior" unicode="&#x2070;" horiz-adv-x="615" 
d="M307 947q-45 0 -88 24t-77 69t-54.5 111t-20.5 150t20.5 150t54.5 111t77 69t88 24t88.5 -24t77.5 -69t54.5 -111t20.5 -150t-20.5 -150t-54.5 -111t-77.5 -69t-88.5 -24zM307 971q38 0 66 22.5t46.5 65t27.5 103.5t9 139t-9 139t-27.5 103.5t-46.5 65t-66 22.5
t-66 -22.5t-46 -65t-27 -103.5t-9 -139t9 -139t27 -103.5t46 -65t66 -22.5z" />
    <glyph glyph-name="foursuperior" unicode="&#x2074;" horiz-adv-x="660" 
d="M366 1135h-317l414 521v-497h136v-24h-136v-175h-97v175zM366 1159v335l-268 -335h268z" />
    <glyph glyph-name="fivesuperior" unicode="&#x2075;" horiz-adv-x="589" 
d="M124 1375q9 9 22 19.5t31.5 19.5t42.5 15t55 6q59 0 104 -19t75.5 -51.5t46 -75.5t15.5 -91q0 -44 -14 -89t-45 -81t-80.5 -58.5t-119.5 -22.5q-43 0 -73.5 9.5t-50.5 21.5q-24 13 -40 31v43q19 -23 44 -41q21 -15 51 -27.5t68 -12.5q42 0 73.5 18t52.5 48.5t31.5 70.5
t10.5 84q0 46 -11 86t-32 69.5t-52 46.5t-71 17q-37 0 -63.5 -12.5t-44.5 -26.5q-21 -17 -36 -38h-20l45 308h325l-28 -78h-284z" />
    <glyph glyph-name="sixsuperior" unicode="&#x2076;" horiz-adv-x="601" 
d="M415 1631q-41 -11 -82.5 -37t-78 -67.5t-65 -97.5t-41.5 -126q22 64 67.5 98t108.5 34q42 0 81.5 -17t70 -48.5t49.5 -76t19 -98.5q0 -58 -21 -104t-55.5 -78t-77.5 -49t-86 -17q-45 0 -87.5 16.5t-75.5 50.5t-53.5 84.5t-20.5 119.5q0 71 17 129t44.5 104t64 80.5
t75 59.5t77 40.5t70.5 23.5v-24zM304 971q39 0 67 18t46 48.5t26.5 71t8.5 84.5q0 43 -8.5 82.5t-25.5 69.5t-44 48t-64 18q-39 0 -67.5 -19.5t-47 -52t-27.5 -73.5t-9 -84q0 -41 8 -79t25.5 -67t45 -47t66.5 -18z" />
    <glyph glyph-name="sevensuperior" unicode="&#x2077;" horiz-adv-x="568" 
d="M415 1616h-326v24h438l-308 -680h-101z" />
    <glyph glyph-name="eightsuperior" unicode="&#x2078;" horiz-adv-x="610" 
d="M304 947q-54 0 -99 13t-78 37t-51.5 59t-18.5 79q0 39 14.5 70t39 55t56 42.5t65.5 32.5q-23 15 -43 31.5t-35 36.5t-23.5 43.5t-8.5 52.5q0 37 14 66t38 49t56.5 30.5t69.5 10.5q44 0 78 -12.5t57 -33t35 -46.5t12 -54q0 -24 -8.5 -45t-23.5 -38.5t-34.5 -31.5
t-41.5 -25q34 -17 66 -37.5t57 -47t40.5 -60.5t15.5 -79q0 -43 -15.5 -79.5t-46 -62.5t-77.5 -41t-110 -15zM350 1381q36 21 59 54t23 76q0 51 -34.5 85.5t-97.5 34.5q-57 0 -88 -30t-31 -70q0 -27 15.5 -49t39.5 -39.5t54 -32.5t60 -29zM304 971q46 0 80 12t56.5 32.5
t33.5 46.5t11 53q0 40 -22 69t-55.5 52.5t-75 43.5t-80.5 43q-55 -29 -91 -75.5t-36 -112.5q0 -45 17.5 -76.5t44 -51t58 -28t59.5 -8.5z" />
    <glyph glyph-name="ninesuperior" unicode="&#x2079;" horiz-adv-x="601" 
d="M186 971q40 10 82 36.5t78.5 68t64.5 97.5t42 126q-22 -64 -67.5 -98t-108.5 -34q-42 0 -81.5 17t-70 48.5t-49.5 76t-19 98.5q0 58 21 104t55.5 78t77 49t86.5 17q45 0 87.5 -16.5t75.5 -50.5t53.5 -84.5t20.5 -119.5q0 -71 -17 -129t-44.5 -104t-64 -80.5t-75 -59.5
t-77 -40.5t-70.5 -23.5v24zM297 1631q-39 0 -67 -18t-46 -48.5t-26.5 -71t-8.5 -84.5t8.5 -83.5t25.5 -69.5t44 -47.5t64 -17.5q39 0 67.5 19.5t47 52t27.5 73.5t9 84q0 40 -8 78.5t-25.5 67.5t-45 47t-66.5 18z" />
    <glyph glyph-name="uni2080" unicode="&#x2080;" horiz-adv-x="615" 
d="M307 -15q-45 0 -88 24t-77 69t-54.5 111t-20.5 150t20.5 150t54.5 111t77 69t88 24t88.5 -24t77.5 -69t54.5 -111t20.5 -150t-20.5 -150t-54.5 -111t-77.5 -69t-88.5 -24zM307 9q38 0 66 22.5t46.5 65t27.5 103.5t9 139t-9 139t-27.5 103.5t-46.5 65t-66 22.5t-66 -22.5
t-46 -65t-27 -103.5t-9 -139t9 -139t27 -103.5t46 -65t66 -22.5z" />
    <glyph glyph-name="uni2081" unicode="&#x2081;" horiz-adv-x="633" 
d="M77 24h201v570l-126 -91v30l223 162v-671h201v-24h-499v24z" />
    <glyph glyph-name="uni2082" unicode="&#x2082;" horiz-adv-x="540" 
d="M39 0q83 77 148 162q28 36 54.5 78t47.5 87t34 92.5t13 95.5q0 78 -24.5 117t-81.5 39q-39 0 -67 -19t-47 -42q-22 -26 -36 -60v58q14 24 38 43q20 17 51.5 30.5t77.5 13.5q47 0 81 -15.5t56.5 -41t33 -58.5t10.5 -67q0 -41 -12 -81t-32 -78.5t-45.5 -73.5t-51.5 -66
q-62 -72 -141 -136h349l-28 -78h-428v0z" />
    <glyph glyph-name="uni2083" unicode="&#x2083;" horiz-adv-x="594" 
d="M125 606q12 24 34 43q19 17 51 30.5t80 13.5q43 0 75 -12.5t52 -33t30 -46.5t10 -54q0 -45 -22.5 -84t-66.5 -67q36 -8 66 -26t52 -44t34.5 -59.5t12.5 -72.5q0 -43 -16 -81t-47.5 -66.5t-78.5 -45t-108 -16.5q-51 0 -85.5 9.5t-57.5 20.5q-26 13 -43 31v44
q23 -23 51 -41q24 -15 56 -27.5t70 -12.5q80 0 123.5 49t43.5 135q0 71 -32.5 120t-86.5 60q-51 -20 -117 -21l6 27q10 6 25 11q12 4 30 7.5t41 4.5q37 20 56.5 59.5t19.5 87.5q0 54 -27.5 87t-78.5 33q-44 0 -73.5 -18.5t-46.5 -40.5q-21 -26 -32 -59v55z" />
    <glyph glyph-name="uni2084" unicode="&#x2084;" horiz-adv-x="660" 
d="M366 175h-317l414 521v-497h136v-24h-136v-175h-97v175zM366 199v335l-268 -335h268z" />
    <glyph glyph-name="uni2085" unicode="&#x2085;" horiz-adv-x="589" 
d="M124 415q9 9 22 19.5t31.5 19.5t42.5 15t55 6q59 0 104 -19t75.5 -51.5t46 -75.5t15.5 -91q0 -44 -14 -89t-45 -81t-80.5 -58.5t-119.5 -22.5q-43 0 -73.5 9.5t-50.5 21.5q-24 13 -40 31v43q19 -23 44 -41q21 -15 51 -27.5t68 -12.5q42 0 73.5 18t52.5 48.5t31.5 70.5
t10.5 84q0 46 -11 86t-32 69.5t-52 46.5t-71 17q-37 0 -63.5 -12.5t-44.5 -26.5q-21 -17 -36 -38h-20l45 308h325l-28 -78h-284z" />
    <glyph glyph-name="uni2086" unicode="&#x2086;" horiz-adv-x="601" 
d="M415 669q-41 -11 -82.5 -37t-78 -67.5t-65 -97.5t-41.5 -126q22 64 67.5 98t108.5 34q42 0 81.5 -17t70 -48.5t49.5 -76t19 -98.5q0 -58 -21 -104t-55.5 -78t-77.5 -49t-86 -17q-45 0 -87.5 16.5t-75.5 50.5t-53.5 84.5t-20.5 119.5q0 71 17 129t44.5 104t64 80.5
t75 59.5t77 40.5t70.5 23.5v-24zM304 9q39 0 67 18t46 48.5t26.5 71t8.5 84.5q0 43 -8.5 82.5t-25.5 69.5t-44 48t-64 18q-39 0 -67.5 -19.5t-47 -52t-27.5 -73.5t-9 -84q0 -41 8 -79t25.5 -67t45 -47t66.5 -18z" />
    <glyph glyph-name="uni2087" unicode="&#x2087;" horiz-adv-x="568" 
d="M415 656h-326v24h438l-308 -680h-101z" />
    <glyph glyph-name="uni2088" unicode="&#x2088;" horiz-adv-x="610" 
d="M304 -15q-54 0 -99 13t-78 37t-51.5 59t-18.5 79q0 39 14.5 70t39 55t56 42.5t65.5 32.5q-23 15 -43 31.5t-35 36.5t-23.5 43.5t-8.5 52.5q0 37 14 66t38 49t56.5 30.5t69.5 10.5q44 0 78 -12.5t57 -33t35 -46.5t12 -54q0 -24 -8.5 -45t-23.5 -38.5t-34.5 -31.5
t-41.5 -25q34 -17 66 -37.5t57 -47t40.5 -60.5t15.5 -79q0 -43 -15.5 -79.5t-46 -62.5t-77.5 -41t-110 -15zM350 419q36 21 59 54t23 76q0 51 -34.5 85.5t-97.5 34.5q-57 0 -88 -30t-31 -70q0 -27 15.5 -49t39.5 -39.5t54 -32.5t60 -29zM304 9q46 0 80 12t56.5 32.5
t33.5 46.5t11 53q0 40 -22 69t-55.5 52.5t-75 43.5t-80.5 43q-55 -29 -91 -75.5t-36 -112.5q0 -45 17.5 -76.5t44 -51t58 -28t59.5 -8.5z" />
    <glyph glyph-name="uni2089" unicode="&#x2089;" horiz-adv-x="601" 
d="M186 9q40 10 82 36.5t78.5 68t64.5 97.5t42 126q-22 -64 -67.5 -98t-108.5 -34q-42 0 -81.5 17t-70 48.5t-49.5 76t-19 98.5q0 58 21 104t55.5 78t77 49t86.5 17q45 0 87.5 -16.5t75.5 -50.5t53.5 -84.5t20.5 -119.5q0 -71 -17 -129t-44.5 -104t-64 -80.5t-75 -59.5
t-77 -40.5t-70.5 -23.5v24zM297 669q-39 0 -67 -18t-46 -48.5t-26.5 -71t-8.5 -84.5t8.5 -83.5t25.5 -69.5t44 -47.5t64 -17.5q39 0 67.5 19.5t47 52t27.5 73.5t9 84q0 40 -8 78.5t-25.5 67.5t-45 47t-66.5 18z" />
    <glyph glyph-name="Euro" unicode="&#x20ac;" horiz-adv-x="1045" 
d="M63 572h122q-2 26 -3.5 52.5t-1.5 55.5q0 27 1.5 53.5t3.5 52.5h-132l10 28h125q16 135 61 241t109 179t143 111.5t162 38.5q56 0 101.5 -15t78.5 -32q39 -21 69 -47v-80q-26 40 -63 73q-32 27 -79.5 50t-111.5 23q-71 0 -130.5 -34t-105 -101.5t-74.5 -169t-39 -237.5
h517l-10 -28h-508q-3 -51 -3 -106q0 -57 3 -108h429l-10 -28h-418q10 -137 39.5 -238.5t75 -169t105.5 -101t131 -33.5q61 0 110 21.5t83 48t52.5 49t20.5 25.5v-78q-34 -27 -75 -47q-35 -18 -82.5 -32.5t-103.5 -14.5q-83 0 -162 38.5t-143.5 111.5t-110 179t-61.5 241
h-135z" />
    <glyph glyph-name="numero" unicode="&#x2116;" horiz-adv-x="1936" 
d="M1293 1063q0 68 22 127t61 102t92.5 67.5t116.5 24.5t116.5 -24.5t92.5 -67.5t61.5 -102t22.5 -127t-22.5 -126.5t-61.5 -101t-92.5 -66.5t-116.5 -24t-116.5 24t-92.5 66.5t-61 101t-22 126.5zM127 1381l1003 -1185v1162h28v-1381l-1003 1186v-1163h-28v1381zM1403 1063
q0 -60 9.5 -113.5t31 -93.5t56 -63.5t85.5 -23.5t85.5 23.5t56.5 63.5t31.5 93.5t9.5 113.5t-9.5 114t-31.5 94.5t-56.5 64.5t-85.5 24t-85.5 -24t-56 -64.5t-31 -94.5t-9.5 -114z" />
    <glyph glyph-name="uni2117" unicode="&#x2117;" horiz-adv-x="1614" 
d="M83 679q0 102 26 194t73 170t113 141.5t146.5 107.5t173 68t192.5 24t192.5 -24t173 -68t146.5 -107.5t113 -141.5t73 -170t26 -194t-26 -194t-73 -170t-113 -141.5t-146.5 -107.5t-173 -68t-192.5 -24t-192.5 24t-173 68t-146.5 107.5t-113 141.5t-73 170t-26 194z
M112 679q0 -98 25 -187t70.5 -165t109 -138t140.5 -105.5t165.5 -67t184.5 -23.5q143 0 269.5 52t221 144t149 217.5t54.5 272.5t-54.5 272.5t-149 217.5t-221 144t-269.5 52q-96 0 -184.5 -23.5t-165.5 -67t-140.5 -105.5t-109 -138t-70.5 -165t-25 -187zM586 1090h254
q57 0 109 -13.5t91.5 -40.5t62.5 -69t23 -99q0 -58 -23 -100t-62.5 -69.5t-91.5 -41t-109 -13.5h-183v-376h-71v822zM829 662q109 0 162.5 52.5t53.5 153.5q0 100 -53.5 152t-162.5 52h-172v-410h172z" />
    <glyph glyph-name="trademark" unicode="&#x2122;" horiz-adv-x="758" 
d="M369 1363l135 -249l134 249l43 -303h-40l-31 215l-118 -220l-120 219l-32 -214h-17zM152 1342h-99v16h240v-16h-100v-282h-41v282z" />
    <glyph glyph-name="uni2126" unicode="&#x2126;" horiz-adv-x="1576" 
d="M97 110h437l-5 64q-24 11 -63.5 33t-84.5 56t-91.5 81.5t-83.5 108.5t-60.5 137.5t-23.5 169.5q0 126 46.5 239t133 198.5t209.5 136t277 50.5t277 -50.5t209.5 -136t133 -198.5t46.5 -239q0 -93 -23.5 -169.5t-60.5 -137.5t-83.5 -108.5t-91.5 -81.5t-85 -56t-64 -33
l-5 -64h437l-41 -110h-432l15 194q83 55 149 138q28 35 54.5 79t47.5 98t34 117.5t13 137.5q0 114 -33.5 221t-100 189.5t-166 132t-230.5 49.5t-230.5 -49.5t-166 -132t-100 -189.5t-33.5 -221q0 -74 12.5 -137.5t33.5 -117.5t48 -98t55 -79q65 -83 149 -138l15 -194h-432z
" />
    <glyph glyph-name="estimated" unicode="&#x212e;" horiz-adv-x="1763" 
d="M1574 266q-109 -137 -284 -214.5t-405 -77.5q-112 0 -215 23.5t-192.5 67.5t-163 106.5t-126 141t-81 170.5t-28.5 196q0 101 28.5 192.5t81 170t126 141.5t163 108t192.5 69t215 24t215 -24t192.5 -69t162.5 -108t125.5 -141.5t81 -170t28.5 -192.5v-14h-1475
q2 -154 55.5 -276.5t144.5 -208.5t212 -132t258 -46q93 0 178.5 17.5t160.5 51t137 83t108 112.5h105zM1555 693q-3 153 -56.5 276t-144 209t-211.5 132t-258 46t-258 -46t-212 -132t-144.5 -209t-55.5 -276h1340z" />
    <glyph glyph-name="partialdiff" unicode="&#x2202;" horiz-adv-x="1040" 
d="M309 1136q17 43 47.5 87t72 80t91.5 58.5t106 22.5q87 0 147.5 -39t98 -109.5t54.5 -168.5t17 -216q0 -182 -37 -342t-107.5 -279t-172.5 -187.5t-231 -68.5q-81 0 -139 25.5t-95.5 71t-55.5 108t-18 136.5q0 70 17.5 138.5t49.5 130.5t76.5 115.5t99.5 92t118.5 60.5
t132.5 22q75 0 128.5 -25.5t88.5 -67t53.5 -94.5t25.5 -109q8 54 13 112t5 121q0 243 -72 366t-223 123q-46 0 -83.5 -11.5t-70 -32.5t-60 -51.5t-53.5 -68.5h-24zM239 303q0 -53 10.5 -103.5t35 -89.5t64.5 -62.5t98 -23.5q65 0 128 32t117.5 92.5t98.5 149t70 201.5
q-6 72 -24.5 132t-50.5 103.5t-78 67.5t-107 24q-57 0 -106.5 -21t-89.5 -58t-71 -87t-52 -108.5t-32 -122t-11 -126.5z" />
    <glyph glyph-name="product" unicode="&#x220f;" horiz-adv-x="1462" 
d="M396 1330h-313v28h1296v-28h-313v-1521h-119v1521h-432v-1521h-119v1521z" />
    <glyph glyph-name="summation" unicode="&#x2211;" horiz-adv-x="1044" 
d="M1005 -81l-39 -110h-929l534 737l-534 812h871l10 -28h-717l464 -704l-512 -707h852z" />
    <glyph glyph-name="minus" unicode="&#x2212;" horiz-adv-x="1096" 
d="M109 483h878v-28h-878v28z" />
    <glyph glyph-name="radical" unicode="&#x221a;" horiz-adv-x="1197" 
d="M25 602l305 143l369 -815l433 1743h30l-477 -1923h-26l-418 923l-205 -97z" />
    <glyph glyph-name="infinity" unicode="&#x221e;" horiz-adv-x="1500" 
d="M585 334q-33 -23 -62.5 -40.5t-59 -29t-61 -17t-67.5 -5.5q-56 0 -104.5 15.5t-84.5 44.5t-56.5 71t-20.5 96t20.5 96t56.5 71t84.5 44.5t104.5 15.5q36 0 67.5 -5.5t61 -17t59 -29t62.5 -40.5l165 -118l165 118q33 23 62.5 40.5t59 29t61 17t67.5 5.5q55 0 103.5 -15.5
t84.5 -45t57 -71.5t21 -95t-21 -95.5t-57 -71.5t-84.5 -44.5t-103.5 -15.5q-36 0 -67.5 5.5t-61 17t-59 29t-62.5 40.5l-165 118zM930 357q35 -25 65 -42t56.5 -27t51 -14t48.5 -4q46 0 81.5 16t59 43t35.5 63t12 77t-12 77t-35.5 63t-59 43t-81.5 16q-24 0 -48.5 -4
t-51 -14t-56.5 -27t-65 -42l-157 -112zM570 581q-35 25 -65 42t-57 27t-51.5 14t-48.5 4q-47 0 -82 -15.5t-58 -42.5t-35 -63.5t-12 -77.5t12 -77.5t35 -63.5t58 -42.5t82 -15.5q24 0 48.5 4t51.5 14t57 27t65 42l156 112z" />
    <glyph glyph-name="integral" unicode="&#x222b;" horiz-adv-x="653" 
d="M221 756q0 151 7.5 266t31 193t68 117.5t119.5 39.5q32 0 55 -8.5t37 -19.5q17 -12 27 -27v-61q-10 25 -27 44q-14 17 -37 31t-55 14q-67 0 -93 -74t-26 -234v-893q0 -151 -10.5 -266t-37.5 -193t-75 -117.5t-123 -39.5q-32 0 -55 8t-37 19q-17 12 -27 28v61
q10 -26 27 -45q14 -17 37 -30.5t55 -13.5q67 0 103 74t36 234v893z" />
    <glyph glyph-name="approxequal" unicode="&#x2248;" horiz-adv-x="1151" 
d="M109 510q4 19 19 49.5t43 59.5t70 50t101 21q40 0 81 -11t82 -27t82 -35t80 -35t76.5 -27t71.5 -11q46 0 81 17.5t60 42t39 50t19 42.5h28q-4 -19 -19 -49.5t-43 -59.5t-70.5 -50t-100.5 -21q-40 0 -81 11t-82 27t-82 35t-80 35t-76.5 27t-71.5 11q-46 0 -81 -17.5
t-60 -42t-39.5 -50.5t-18.5 -42h-28zM109 242q4 19 19 49.5t43 59.5t70 50t101 21q40 0 81 -11t82 -27t82 -35t80 -35t76.5 -27t71.5 -11q46 0 81 17.5t60 42t39 50t19 42.5h28q-4 -19 -19 -49.5t-43 -59.5t-70.5 -50t-100.5 -21q-40 0 -81 11t-82 27t-82 35t-80 35
t-76.5 27t-71.5 11q-46 0 -81 -17.5t-60 -42t-39.5 -50.5t-18.5 -42h-28z" />
    <glyph glyph-name="notequal" unicode="&#x2260;" horiz-adv-x="1109" 
d="M119 328h364l110 281h-474v28h485l107 271h31l-107 -271h355v-28h-366l-110 -281h476v-28h-487l-106 -270h-31l106 270h-353v28z" />
    <glyph glyph-name="lessequal" unicode="&#x2264;" horiz-adv-x="1059" 
d="M79 537l871 378v-32l-833 -360l833 -361v-32l-871 378v29zM79 28h871v-28h-871v28z" />
    <glyph glyph-name="greaterequal" unicode="&#x2265;" horiz-adv-x="1059" 
d="M980 508l-871 -378v32l833 361l-833 360v32l871 -378v-29zM980 0h-871v28h871v-28z" />
    <glyph glyph-name="dotmath" unicode="&#x22c5;" horiz-adv-x="381" 
d="M107 438q0 35 24 58.5t59 23.5t59.5 -23.5t24.5 -58.5q0 -17 -6.5 -32.5t-18 -26.5t-26.5 -17.5t-33 -6.5q-35 0 -59 24t-24 59z" />
    <glyph glyph-name="lozenge" unicode="&#x25ca;" horiz-adv-x="880" 
d="M65 679l375 713l375 -713l-375 -713zM782 679l-342 649l-342 -649l342 -650z" />
    <glyph glyph-name="uniF638" unicode="&#xf638;" horiz-adv-x="1151" 
d="M338 112l20 -27l455 1161l-21 27zM575 -26q-90 0 -176 47.5t-153 138.5t-108 221.5t-41 297.5q0 166 41 297t108 221.5t153 138.5t176 48t176.5 -48t153.5 -138.5t108 -221.5t41 -297q0 -167 -41 -297.5t-108 -221.5t-153.5 -138.5t-176.5 -47.5zM575 2q79 0 144.5 42
t112 126.5t72 211.5t25.5 297q0 169 -25.5 296t-72 212t-112 127t-144.5 42t-144 -42t-111.5 -127t-72 -212t-25.5 -296q0 -170 25.5 -297t72 -211.5t111.5 -126.5t144 -42z" />
    <glyph glyph-name="commaaccent" unicode="&#xf6c3;" horiz-adv-x="393" 
d="M173 -380q20 10 37 26q14 13 25.5 33t11.5 47q0 14 -2.5 24t-5.5 16q-4 7 -7 11q-6 -9 -14 -15t-18.5 -10.5t-25.5 -4.5q-30 0 -50.5 19t-20.5 51t22.5 52.5t58.5 20.5q24 0 43.5 -10t33.5 -27t21.5 -40t7.5 -48q0 -45 -18.5 -75t-40.5 -48q-26 -22 -58 -34v12z" />
    <glyph glyph-name="ff" unicode="&#xfb00;" horiz-adv-x="1185" 
d="M215 850h-150v28h150v102q0 82 14.5 143.5t38.5 106t56 73t67.5 45t72.5 23t71 6.5q63 0 109 -16t79 -37q-4 -6 -8 -11t-8.5 -11t-8.5 -13q-20 17 -46 30q-22 11 -53 20.5t-68 9.5q-36 0 -73 -13.5t-67 -45t-49 -83.5t-19 -128v-201h414v102q0 82 14.5 143.5t38.5 106
t56 73t67.5 45t72.5 23t71 6.5q63 0 109 -16t79 -37q-4 -6 -8 -11t-8.5 -11t-8.5 -13q-20 17 -46 30q-22 11 -53 20.5t-68 9.5q-36 0 -73 -13.5t-67 -45t-49 -83.5t-19 -128v-201h264v-28h-264v-850h-108v850h-414v-850h-108v850z" />
    <glyph glyph-name="fi" unicode="&#xfb01;" horiz-adv-x="980" 
d="M215 850h-150v28h150v102q0 82 14.5 143.5t38.5 106t56 73t67.5 45t72.5 23t71 6.5q63 0 109 -16t79 -37q-4 -6 -8 -11t-8.5 -11t-8.5 -13q-20 17 -46 30q-22 11 -53 20.5t-68 9.5q-36 0 -73 -13.5t-67 -45t-49 -83.5t-19 -128v-201h522v-878h-108v850h-414v-850h-108
v850z" />
    <glyph glyph-name="fl" unicode="&#xfb02;" horiz-adv-x="980" 
d="M215 850h-150v28h150v102q0 85 15 148t41 107t60.5 71.5t72.5 43.5t78 21.5t77 5.5q66 0 118.5 -12.5t90.5 -26.5q43 -18 77 -39v-1299h-108v1323q-34 11 -73 18.5t-86 7.5q-44 0 -89 -10.5t-82 -40t-60.5 -82t-23.5 -137.5v-201h246v-28h-246v-850h-108v850z" />
    <glyph glyph-name="ffi" unicode="&#xfb03;" horiz-adv-x="1502" 
d="M215 850h-150v28h150v102q0 82 14.5 143.5t38.5 106t56 73t67.5 45t72.5 23t71 6.5q63 0 109 -16t79 -37q-4 -6 -8 -11t-8.5 -11t-8.5 -13q-20 17 -46 30q-22 11 -53 20.5t-68 9.5q-36 0 -73 -13.5t-67 -45t-49 -83.5t-19 -128v-201h414v102q0 82 14.5 143.5t38.5 106
t56 73t67.5 45t72.5 23t71 6.5q63 0 109 -16t79 -37q-4 -6 -8 -11t-8.5 -11t-8.5 -13q-20 17 -46 30q-22 11 -53 20.5t-68 9.5q-36 0 -73 -13.5t-67 -45t-49 -83.5t-19 -128v-201h522v-878h-108v850h-414v-850h-108v850h-414v-850h-108v850z" />
    <glyph glyph-name="ffl" unicode="&#xfb04;" horiz-adv-x="1502" 
d="M215 850h-150v28h150v102q0 82 14.5 143.5t38.5 106t56 73t67.5 45t72.5 23t71 6.5q63 0 109 -16t79 -37q-4 -6 -8 -11t-8.5 -11t-8.5 -13q-20 17 -46 30q-22 11 -53 20.5t-68 9.5q-36 0 -73 -13.5t-67 -45t-49 -83.5t-19 -128v-201h414v102q0 85 15 148t41 107
t60.5 71.5t72.5 43.5t78 21.5t77 5.5q66 0 118.5 -12.5t90.5 -26.5q43 -18 77 -39v-1299h-108v1323q-34 11 -73 18.5t-86 7.5q-44 0 -89 -10.5t-82 -40t-60.5 -82t-23.5 -137.5v-201h246v-28h-246v-850h-108v850h-414v-850h-108v850z" />
    <glyph glyph-name="st" unicode="&#xfb06;" horiz-adv-x="1441" 
d="M85 158q38 -40 87 -72q42 -27 102.5 -49.5t136.5 -22.5q67 0 116 15.5t80.5 40t46.5 55.5t15 63q0 43 -25.5 77t-66 61t-90.5 49.5t-100 42.5q-67 27 -120.5 53t-90.5 56t-57 66.5t-20 84.5q0 56 25.5 97t68.5 67.5t100 39.5t119 13q48 0 88.5 -6.5t72 -16t54.5 -20
t36 -17.5q-9 11 -21 29t-22.5 42t-18 54t-7.5 65q0 54 19.5 98t55 74.5t83.5 47t105 16.5q51 0 99.5 -14.5t87 -46.5t61.5 -83.5t23 -124.5v-114h254v-28h-254v-549q0 -43 2 -92t15 -91t41 -70t80 -28q30 0 52 5q11 3 20 6v-28l-22 -6q-22 -5 -50 -5q-86 0 -135 29t-74 78.5
t-31 115t-6 139.5v496h-125v28q65 7 95 46.5t30 99.5q0 46 -16.5 80.5t-43.5 56.5t-62.5 33t-73.5 11q-42 0 -79 -12.5t-64.5 -37.5t-44 -61.5t-16.5 -84.5q0 -40 9.5 -73.5t21.5 -58.5q13 -29 31 -53v-66q-33 30 -75 54q-36 20 -86 37.5t-112 17.5q-41 0 -82.5 -9.5
t-75 -28.5t-54.5 -48t-21 -68q0 -32 15 -56t44 -45t73 -41t102 -43q71 -28 135.5 -55.5t113.5 -61.5t78 -78.5t29 -105.5q0 -48 -20 -92t-63.5 -77t-111 -52.5t-161.5 -19.5q-87 0 -147.5 15t-100.5 34q-47 21 -77 49v74z" />
    <glyph glyph-name="eight.inf" horiz-adv-x="610" 
d="M304 -297q-54 0 -99 13t-78 37t-51.5 59t-18.5 79q0 39 14.5 70t39 55t56 42.5t65.5 32.5q-23 15 -43 31.5t-35 36.5t-23.5 43.5t-8.5 52.5q0 37 14 66t38 49t56.5 30.5t69.5 10.5q44 0 78 -12.5t57 -33t35 -46.5t12 -54q0 -24 -8.5 -45t-23.5 -38.5t-34.5 -31.5
t-41.5 -25q34 -17 66 -37.5t57 -47t40.5 -60.5t15.5 -79q0 -43 -15.5 -79.5t-46 -62.5t-77.5 -41t-110 -15zM350 137q36 21 59 54t23 76q0 51 -34.5 85.5t-97.5 34.5q-57 0 -88 -30t-31 -70q0 -27 15.5 -49t39.5 -39.5t54 -32.5t60 -29zM304 -273q46 0 80 12t56.5 32.5
t33.5 46.5t11 53q0 40 -22 69t-55.5 52.5t-75 43.5t-80.5 43q-55 -29 -91 -75.5t-36 -112.5q0 -45 17.5 -76.5t44 -51t58 -28t59.5 -8.5z" />
    <glyph glyph-name="eight.lt" 
d="M78 341q0 82 32.5 146.5t86 114.5t122.5 88.5t143 67.5q-53 30 -99.5 63.5t-81.5 73t-55 87t-20 105.5q0 65 27.5 119.5t75.5 94t112.5 61.5t138.5 22q91 0 159 -26.5t113.5 -67.5t68 -92.5t22.5 -101.5q0 -53 -21 -98t-57 -82t-83.5 -66.5t-99.5 -51.5q74 -36 146 -77
t128.5 -93t91.5 -120t35 -158q0 -78 -30 -146.5t-91.5 -119.5t-154.5 -80.5t-219 -29.5q-107 0 -197 25t-155 72t-101.5 115.5t-36.5 154.5zM629 814q45 19 85 45.5t70.5 61t48 78t17.5 97.5q0 56 -20 103.5t-57.5 82.5t-91 54.5t-121.5 19.5q-60 0 -109 -17.5t-84 -47.5
t-54 -70t-19 -85q0 -59 28 -105t74.5 -83.5t107 -69.5t125.5 -64zM181 348q0 -94 37.5 -159.5t95 -107t125.5 -60.5t129 -19q96 0 169 26t122.5 69t75 99.5t25.5 116.5q0 55 -20 100t-54 83t-80 70t-98 61.5t-108 57.5t-109 57q-62 -28 -118.5 -65t-99 -85.5t-67.5 -109
t-25 -134.5z" />
    <glyph glyph-name="six.inf" horiz-adv-x="601" 
d="M415 387q-41 -11 -82.5 -37t-78 -67.5t-65 -97.5t-41.5 -126q22 64 67.5 98t108.5 34q42 0 81.5 -17t70 -48.5t49.5 -76t19 -98.5q0 -58 -21 -104t-55.5 -78t-77.5 -49t-86 -17q-45 0 -87.5 16.5t-75.5 50.5t-53.5 84.5t-20.5 119.5q0 71 17 129t44.5 104t64 80.5
t75 59.5t77 40.5t70.5 23.5v-24zM304 -273q39 0 67 18t46 48.5t26.5 71t8.5 84.5q0 43 -8.5 82.5t-25.5 69.5t-44 48t-64 18q-39 0 -67.5 -19.5t-47 -52t-27.5 -73.5t-9 -84q0 -41 8 -79t25.5 -67t45 -47t66.5 -18z" />
    <glyph glyph-name="six.numr" horiz-adv-x="601" 
d="M415 1349q-41 -11 -82.5 -37t-78 -67.5t-65 -97.5t-41.5 -126q22 64 67.5 98t108.5 34q42 0 81.5 -17t70 -48.5t49.5 -76t19 -98.5q0 -58 -21 -104t-55.5 -78t-77.5 -49t-86 -17q-45 0 -87.5 16.5t-75.5 50.5t-53.5 84.5t-20.5 119.5q0 71 17 129t44.5 104t64 80.5
t75 59.5t77 40.5t70.5 23.5v-24zM304 689q39 0 67 18t46 48.5t26.5 71t8.5 84.5q0 43 -8.5 82.5t-25.5 69.5t-44 48t-64 18q-39 0 -67.5 -19.5t-47 -52t-27.5 -73.5t-9 -84q0 -41 8 -79t25.5 -67t45 -47t66.5 -18z" />
    <glyph glyph-name="six.op" horiz-adv-x="1113" 
d="M780 1356q-76 -20 -156.5 -68t-154.5 -123t-134.5 -176.5t-96.5 -228.5q57 89 145 136.5t194 47.5q87 0 169.5 -33t147 -95t103.5 -151.5t39 -203.5q0 -112 -41 -202t-107.5 -153.5t-151 -97.5t-170.5 -34q-89 0 -175 32.5t-153.5 99.5t-109 168t-41.5 239
q0 142 33.5 257t89 206.5t128 160.5t149.5 118.5t153 81t140 47.5v-28zM212 453q0 -107 24 -191t69.5 -141.5t110.5 -88t146 -30.5q78 0 142.5 32.5t110 92t71 144t25.5 188.5q0 106 -24 190.5t-69 143.5t-108.5 91t-142.5 32q-80 0 -145.5 -32.5t-112 -93t-72 -146
t-25.5 -191.5z" />
    <glyph glyph-name="eight.op" horiz-adv-x="1139" 
d="M77 341q0 82 32.5 146.5t86 114.5t122.5 88.5t143 67.5q-53 30 -99.5 63.5t-81.5 73t-55 87t-20 105.5q0 65 27.5 119.5t75.5 94t112.5 61.5t138.5 22q91 0 159 -26.5t113.5 -67.5t68 -92.5t22.5 -101.5q0 -53 -21 -98t-57 -82t-83.5 -66.5t-99.5 -51.5q74 -36 146 -77
t128.5 -93t91.5 -120t35 -158q0 -78 -30 -146.5t-91.5 -119.5t-154.5 -80.5t-219 -29.5q-107 0 -197 25t-155 72t-101.5 115.5t-36.5 154.5zM628 814q45 19 85 45.5t70.5 61t48 78t17.5 97.5q0 56 -20 103.5t-57.5 82.5t-91 54.5t-121.5 19.5q-60 0 -109 -17.5t-84 -47.5
t-54 -70t-19 -85q0 -59 28 -105t74.5 -83.5t107 -69.5t125.5 -64zM180 348q0 -94 37.5 -159.5t95 -107t125.5 -60.5t129 -19q96 0 169 26t122.5 69t75 99.5t25.5 116.5q0 55 -20 100t-54 83t-80 70t-98 61.5t-108 57.5t-109 57q-62 -28 -118.5 -65t-99 -85.5t-67.5 -109
t-25 -134.5z" />
    <glyph glyph-name="six.ot" 
d="M794 1356q-76 -20 -156.5 -68t-154.5 -123t-134.5 -176.5t-96.5 -228.5q57 89 145 136.5t194 47.5q87 0 169.5 -33t147 -95t103.5 -151.5t39 -203.5q0 -112 -41 -202t-107.5 -153.5t-151 -97.5t-170.5 -34q-89 0 -175 32.5t-153.5 99.5t-109 168t-41.5 239
q0 142 33.5 257t89 206.5t128 160.5t149.5 118.5t153 81t140 47.5v-28zM226 453q0 -107 24 -191t69.5 -141.5t110.5 -88t146 -30.5q78 0 142.5 32.5t110 92t71 144t25.5 188.5q0 106 -24 190.5t-69 143.5t-108.5 91t-142.5 32q-80 0 -145.5 -32.5t-112 -93t-72 -146
t-25.5 -191.5z" />
    <glyph glyph-name="eight.ot" 
d="M78 341q0 82 32.5 146.5t86 114.5t122.5 88.5t143 67.5q-53 30 -99.5 63.5t-81.5 73t-55 87t-20 105.5q0 65 27.5 119.5t75.5 94t112.5 61.5t138.5 22q91 0 159 -26.5t113.5 -67.5t68 -92.5t22.5 -101.5q0 -53 -21 -98t-57 -82t-83.5 -66.5t-99.5 -51.5q74 -36 146 -77
t128.5 -93t91.5 -120t35 -158q0 -78 -30 -146.5t-91.5 -119.5t-154.5 -80.5t-219 -29.5q-107 0 -197 25t-155 72t-101.5 115.5t-36.5 154.5zM629 814q45 19 85 45.5t70.5 61t48 78t17.5 97.5q0 56 -20 103.5t-57.5 82.5t-91 54.5t-121.5 19.5q-60 0 -109 -17.5t-84 -47.5
t-54 -70t-19 -85q0 -59 28 -105t74.5 -83.5t107 -69.5t125.5 -64zM181 348q0 -94 37.5 -159.5t95 -107t125.5 -60.5t129 -19q96 0 169 26t122.5 69t75 99.5t25.5 116.5q0 55 -20 100t-54 83t-80 70t-98 61.5t-108 57.5t-109 57q-62 -28 -118.5 -65t-99 -85.5t-67.5 -109
t-25 -134.5z" />
    <glyph glyph-name="space.frac" horiz-adv-x="457" 
 />
    <glyph glyph-name="space.tab" horiz-adv-x="571" 
 />
    <glyph glyph-name="space_uni0326" horiz-adv-x="393" 
d="M173 -380q20 10 37 26q14 13 25.5 33t11.5 47q0 14 -2.5 24t-5.5 16q-4 7 -7 11q-6 -9 -14 -15t-18.5 -10.5t-25.5 -4.5q-30 0 -50.5 19t-20.5 51t22.5 52.5t58.5 20.5q24 0 43.5 -10t33.5 -27t21.5 -40t7.5 -48q0 -45 -18.5 -75t-40.5 -48q-26 -22 -58 -34v12z" />
    <glyph glyph-name="emdash.cap" horiz-adv-x="1690" 
d="M109 693h1472v-28h-1472v28z" />
    <glyph glyph-name="endash.cap" horiz-adv-x="1125" 
d="M109 693h907v-28h-907v28z" />
    <glyph glyph-name="three.dnom" horiz-adv-x="594" 
d="M125 606q12 24 34 43q19 17 51 30.5t80 13.5q43 0 75 -12.5t52 -33t30 -46.5t10 -54q0 -45 -22.5 -84t-66.5 -67q36 -8 66 -26t52 -44t34.5 -59.5t12.5 -72.5q0 -43 -16 -81t-47.5 -66.5t-78.5 -45t-108 -16.5q-51 0 -85.5 9.5t-57.5 20.5q-26 13 -43 31v44
q23 -23 51 -41q24 -15 56 -27.5t70 -12.5q80 0 123.5 49t43.5 135q0 71 -32.5 120t-86.5 60q-51 -20 -117 -21l6 27q10 6 25 11q12 4 30 7.5t41 4.5q37 20 56.5 59.5t19.5 87.5q0 54 -27.5 87t-78.5 33q-44 0 -73.5 -18.5t-46.5 -40.5q-21 -26 -32 -59v55z" />
    <glyph glyph-name="three.lt" 
d="M149 163q38 -46 92 -81q46 -30 113 -55t156 -25q85 0 154.5 26t118.5 75t76 118t27 155q0 71 -18 135t-53 115t-87.5 85t-122.5 45q-52 -18 -112.5 -28t-129.5 -10l14 28q23 13 54 23q26 8 63.5 15t86.5 8q80 41 127 118.5t47 182.5q0 68 -17.5 117.5t-49 82t-75.5 48
t-96 15.5q-42 0 -78 -10t-66 -26.5t-54 -38t-43 -43.5q-44 -52 -72 -117v91q26 48 72 86q19 16 44.5 31.5t57 27.5t70 19.5t84.5 7.5q79 0 141 -23t104.5 -62.5t65 -93t22.5 -114.5q0 -102 -50 -180t-143 -127q73 -12 136 -45t109.5 -84t73 -119t26.5 -152q0 -87 -30 -161.5
t-90.5 -130t-151 -87t-210.5 -31.5q-103 0 -175.5 19t-119.5 42q-55 26 -91 61v67z" />
    <glyph glyph-name="three.numr" horiz-adv-x="594" 
d="M125 1286q12 24 34 43q19 17 51 30.5t80 13.5q43 0 75 -12.5t52 -33t30 -46.5t10 -54q0 -45 -22.5 -84t-66.5 -67q36 -8 66 -26t52 -44t34.5 -59.5t12.5 -72.5q0 -43 -16 -81t-47.5 -66.5t-78.5 -45t-108 -16.5q-51 0 -85.5 9.5t-57.5 20.5q-26 13 -43 31v44
q23 -23 51 -41q24 -15 56 -27.5t70 -12.5q80 0 123.5 49t43.5 135q0 71 -32.5 120t-86.5 60q-51 -20 -117 -21l6 27q10 6 25 11q12 4 30 7.5t41 4.5q37 20 56.5 59.5t19.5 87.5q0 54 -27.5 87t-78.5 33q-44 0 -73.5 -18.5t-46.5 -40.5q-21 -26 -32 -59v55z" />
    <glyph glyph-name="three.op" horiz-adv-x="986" 
d="M57 -256q38 -46 92 -81q46 -30 113 -55t156 -25q85 0 154.5 26t118.5 75t76 118t27 155q0 71 -18 135t-53 115t-87.5 85t-122.5 45q-52 -18 -112.5 -28t-129.5 -10l14 28q23 13 54 23q26 8 63.5 15t86.5 8q80 41 127 118.5t47 182.5q0 68 -17.5 117.5t-49 82t-75.5 48
t-96 15.5q-42 0 -78 -10t-66 -26.5t-54 -38t-43 -43.5q-44 -52 -72 -117v91q26 48 72 86q19 16 44.5 31.5t57 27.5t70 19.5t84.5 7.5q79 0 141 -23t104.5 -62.5t65 -93t22.5 -114.5q0 -102 -50 -180t-143 -127q73 -12 136 -45t109.5 -84t73 -119t26.5 -152q0 -87 -30 -161.5
t-90.5 -130t-151 -87t-210.5 -31.5q-103 0 -175.5 19t-119.5 42q-55 26 -91 61v67z" />
    <glyph glyph-name="three.ot" 
d="M149 -256q38 -46 92 -81q46 -30 113 -55t156 -25q85 0 154.5 26t118.5 75t76 118t27 155q0 71 -18 135t-53 115t-87.5 85t-122.5 45q-52 -18 -112.5 -28t-129.5 -10l14 28q23 13 54 23q26 8 63.5 15t86.5 8q80 41 127 118.5t47 182.5q0 68 -17.5 117.5t-49 82t-75.5 48
t-96 15.5q-42 0 -78 -10t-66 -26.5t-54 -38t-43 -43.5q-44 -52 -72 -117v91q26 48 72 86q19 16 44.5 31.5t57 27.5t70 19.5t84.5 7.5q79 0 141 -23t104.5 -62.5t65 -93t22.5 -114.5q0 -102 -50 -180t-143 -127q73 -12 136 -45t109.5 -84t73 -119t26.5 -152q0 -87 -30 -161.5
t-90.5 -130t-151 -87t-210.5 -31.5q-103 0 -175.5 19t-119.5 42q-55 26 -91 61v67z" />
    <glyph glyph-name="equal.cap" horiz-adv-x="1089" 
d="M109 847h871v-28h-871v28zM109 538h871v-28h-871v28z" />
    <glyph glyph-name="tilde.cap" horiz-adv-x="758" 
d="M103 1494q0 35 9.5 64.5t29.5 51.5t50.5 34t72.5 12q41 0 76.5 -10.5t69 -23t67 -23t71.5 -10.5q32 0 56 22t28 63h22q0 -35 -9.5 -65t-30 -52.5t-51 -35.5t-72.5 -13q-40 0 -76 10.5t-70 23t-66 23t-64 10.5q-82 0 -91 -81h-22v0z" />
    <glyph glyph-name="equal.op" horiz-adv-x="1089" 
d="M109 638h871v-28h-871v28zM109 329h871v-28h-871v28z" />
    <glyph glyph-name="two.dnom" horiz-adv-x="540" 
d="M39 0q83 77 148 162q28 36 54.5 78t47.5 87t34 92.5t13 95.5q0 78 -24.5 117t-81.5 39q-39 0 -67 -19t-47 -42q-22 -26 -36 -60v58q14 24 38 43q20 17 51.5 30.5t77.5 13.5q47 0 81 -15.5t56.5 -41t33 -58.5t10.5 -67q0 -41 -12 -81t-32 -78.5t-45.5 -73.5t-51.5 -66
q-62 -72 -141 -136h349l-28 -78h-428v0z" />
    <glyph glyph-name="two.lt" 
d="M117 0q181 148 324 316q61 72 119 155t104 173.5t74 187t28 195.5q0 85 -19.5 147.5t-54 102.5t-82 59.5t-103.5 19.5q-43 0 -79 -10t-65.5 -26.5t-53 -38t-41.5 -43.5q-42 -52 -68 -117v90q28 48 75 86q20 16 45.5 31.5t57.5 28t70.5 20t84.5 7.5q91 0 158.5 -30
t112 -81t66 -118.5t21.5 -141.5q0 -86 -26.5 -170t-69 -163.5t-97.5 -153t-112 -136.5q-134 -149 -304 -280h728l-41 -110h-852v0z" />
    <glyph glyph-name="two.numr" horiz-adv-x="540" 
d="M39 678q83 77 148 162q28 36 54.5 78t47.5 87t34 92.5t13 95.5q0 78 -24.5 117t-81.5 39q-39 0 -67 -19t-47 -42q-22 -26 -36 -60v58q14 24 38 43q20 17 51.5 30.5t77.5 13.5q47 0 81 -15.5t56.5 -41t33 -58.5t10.5 -67q0 -41 -12 -81t-32 -78.5t-45.5 -73.5t-51.5 -66
q-62 -72 -141 -136h349l-28 -78h-428v0z" />
    <glyph glyph-name="two.op" horiz-adv-x="846" 
d="M49 0q149 88 267 197q50 46 98 101.5t85.5 118.5t60.5 132.5t23 144.5q0 55 -13 99.5t-38.5 76.5t-65 49.5t-91.5 17.5q-40 0 -73.5 -9.5t-60.5 -25.5t-48.5 -36t-37.5 -41q-38 -49 -59 -112v90q26 45 67 81q35 30 90.5 55.5t135.5 25.5q72 0 129 -22.5t97.5 -61.5
t62 -91.5t21.5 -111.5q0 -57 -19.5 -111.5t-51 -105t-71.5 -96t-82 -84.5q-99 -92 -223 -171h554l-41 -110h-716v0z" />
    <glyph glyph-name="two.ot" 
d="M196 0q149 88 267 197q50 46 98 101.5t85.5 118.5t60.5 132.5t23 144.5q0 55 -13 99.5t-38.5 76.5t-65 49.5t-91.5 17.5q-40 0 -73.5 -9.5t-60.5 -25.5t-48.5 -36t-37.5 -41q-38 -49 -59 -112v90q26 45 67 81q35 30 90.5 55.5t135.5 25.5q72 0 129 -22.5t97.5 -61.5
t62 -91.5t21.5 -111.5q0 -57 -19.5 -111.5t-51 -105t-71.5 -96t-82 -84.5q-99 -92 -223 -171h554l-41 -110h-716v0z" />
    <glyph glyph-name="exclamdown.cap" horiz-adv-x="381" 
d="M176 1053h28l47 -1003q0 -76 -61 -76t-61 76zM107 1293q0 35 24 59t59 24q18 0 33 -6.5t26.5 -18t18 -26.5t6.5 -32q0 -35 -24.5 -58.5t-59.5 -23.5t-59 23.5t-24 58.5z" />
    <glyph glyph-name="fb" horiz-adv-x="1640" 
d="M215 850h-150v28h150v102q0 85 15 148t41 107t60.5 71.5t72.5 43.5t78 21.5t77 5.5q66 0 118.5 -12.5t90.5 -26.5q43 -18 77 -39v-588q45 85 120.5 134.5t184.5 49.5q90 0 165.5 -35.5t130 -97t85.5 -144.5t31 -179q0 -95 -31 -178t-85.5 -144t-130 -96t-165.5 -35
q-109 0 -184.5 49t-120.5 133v-168h-108v1323q-34 11 -74 18.5t-85 7.5q-44 0 -89 -10.5t-82 -40t-60.5 -82t-23.5 -137.5v-201h246v-28h-246v-850h-108v850zM845 439q0 -92 20.5 -170t60 -134.5t96 -88.5t128.5 -32t127.5 32t94 88.5t58 134.5t19.5 170t-19.5 170.5
t-58 135.5t-94 89.5t-127.5 32.5t-128.5 -32.5t-96 -89.5t-60 -135.5t-20.5 -170.5z" />
    <glyph glyph-name="ffb" horiz-adv-x="2162" 
d="M215 850h-150v28h150v102q0 82 14.5 143.5t38.5 106t56 73t67.5 45t72.5 23t71 6.5q63 0 109 -16t79 -37q-4 -6 -8 -11t-8.5 -11t-8.5 -13q-20 17 -46 30q-22 11 -53 20.5t-68 9.5q-36 0 -73 -13.5t-67 -45t-49 -83.5t-19 -128v-201h414v102q0 85 15 148t41 107
t60.5 71.5t72.5 43.5t78 21.5t77 5.5q66 0 118.5 -12.5t90.5 -26.5q43 -18 77 -39v-588q45 85 120.5 134.5t184.5 49.5q90 0 165.5 -35.5t130 -97t85.5 -144.5t31 -179q0 -95 -31 -178t-85.5 -144t-130 -96t-165.5 -35q-109 0 -184.5 49t-120.5 133v-168h-108v1323
q-34 11 -73 18.5t-86 7.5q-44 0 -89 -10.5t-82 -40t-60.5 -82t-23.5 -137.5v-201h246v-28h-246v-850h-108v850h-414v-850h-108v850zM1367 439q0 -92 20.5 -170t60 -134.5t96 -88.5t128.5 -32t127.5 32t94 88.5t58 134.5t19.5 170t-19.5 170.5t-58 135.5t-94 89.5
t-127.5 32.5t-128.5 -32.5t-96 -89.5t-60 -135.5t-20.5 -170.5z" />
    <glyph glyph-name="Agrave.alt2" horiz-adv-x="1228" 
d="M614 1393l547 -1393h-128l-210 535h-515l-210 -535h-31zM812 563l-246 629l-247 -629h493zM686 1468l-259 196q-12 9 -22.5 21.5t-10.5 31.5q0 20 13 33t33 13q17 0 30.5 -8.5t25.5 -22.5l220 -259z" />
    <glyph glyph-name="ffh" horiz-adv-x="2116" 
d="M215 850h-150v28h150v102q0 82 14.5 143.5t38.5 106t56 73t67.5 45t72.5 23t71 6.5q63 0 109 -16t79 -37q-4 -6 -8 -11t-8.5 -11t-8.5 -13q-20 17 -46 30q-22 11 -53 20.5t-68 9.5q-36 0 -73 -13.5t-67 -45t-49 -83.5t-19 -128v-201h414v102q0 85 15 148t41 107
t60.5 71.5t72.5 43.5t78 21.5t77 5.5q66 0 118.5 -12.5t90.5 -26.5q43 -18 77 -39v-764q10 55 34 118t65 117t102 89.5t147 35.5q73 0 126.5 -27t88.5 -73t52 -107t17 -128v-560h-108v560q0 51 -5.5 105.5t-25 99.5t-57.5 73.5t-104 28.5q-54 0 -99.5 -20.5t-82.5 -55.5
t-65 -81.5t-47 -99t-28.5 -108t-9.5 -107.5v-395h-108v1323q-34 11 -73 18.5t-86 7.5q-44 0 -89 -10.5t-82 -40t-60.5 -82t-23.5 -137.5v-201h246v-28h-246v-850h-108v850h-414v-850h-108v850z" />
    <glyph glyph-name="ffj" horiz-adv-x="1502" 
d="M215 850h-150v28h150v102q0 82 14.5 143.5t38.5 106t56 73t67.5 45t72.5 23t71 6.5q63 0 109 -16t79 -37q-4 -6 -8 -11t-8.5 -11t-8.5 -13q-20 17 -46 30q-22 11 -53 20.5t-68 9.5q-36 0 -73 -13.5t-67 -45t-49 -83.5t-19 -128v-201h414v102q0 82 14.5 143.5t38.5 106
t56 73t67.5 45t72.5 23t71 6.5q63 0 109 -16t79 -37q-4 -6 -8 -11t-8.5 -11t-8.5 -13q-20 17 -46 30q-22 11 -53 20.5t-68 9.5q-36 0 -73 -13.5t-67 -45t-49 -83.5t-19 -128v-201h522v-574q0 -126 -14 -225t-37 -176.5t-52.5 -134t-60.5 -96.5q-72 -94 -163 -130v22
q24 19 49.5 42t50 57t46 81t38 115t26 159t9.5 212v620h-414v-850h-108v850h-414v-850h-108v850z" />
    <glyph glyph-name="ffk" horiz-adv-x="2063" 
d="M215 850h-150v28h150v102q0 82 14.5 143.5t38.5 106t56 73t67.5 45t72.5 23t71 6.5q63 0 109 -16t79 -37q-4 -6 -8 -11t-8.5 -11t-8.5 -13q-20 17 -46 30q-22 11 -53 20.5t-68 9.5q-36 0 -73 -13.5t-67 -45t-49 -83.5t-19 -128v-201h414v102q0 85 15 148t41 107
t60.5 71.5t72.5 43.5t78 21.5t77 5.5q66 0 118.5 -12.5t90.5 -26.5q43 -18 77 -39v-1024l515 603h39l-290 -338l407 -540h-134l-344 457l-193 -227v-230h-108v1323q-34 11 -73 18.5t-86 7.5q-44 0 -89 -10.5t-82 -40t-60.5 -82t-23.5 -137.5v-201h246v-28h-246v-850h-108
v850h-414v-850h-108v850z" />
    <glyph glyph-name="fh" horiz-adv-x="1594" 
d="M215 850h-150v28h150v102q0 85 15 148t41 107t60.5 71.5t72.5 43.5t78 21.5t77 5.5q66 0 118.5 -12.5t90.5 -26.5q43 -18 77 -39v-764q10 55 34 118t65 117t102 89.5t147 35.5q73 0 126.5 -27t88.5 -73t52 -107t17 -128v-560h-108v560q0 51 -5.5 105.5t-25 99.5
t-57.5 73.5t-104 28.5q-54 0 -99.5 -20.5t-82.5 -55.5t-65 -81.5t-47 -99t-28.5 -108t-9.5 -107.5v-395h-108v1323q-34 11 -73 18.5t-86 7.5q-44 0 -89 -10.5t-82 -40t-60.5 -82t-23.5 -137.5v-201h246v-28h-246v-850h-108v850z" />
    <glyph glyph-name="five.dnom" horiz-adv-x="589" 
d="M124 415q9 9 22 19.5t31.5 19.5t42.5 15t55 6q59 0 104 -19t75.5 -51.5t46 -75.5t15.5 -91q0 -44 -14 -89t-45 -81t-80.5 -58.5t-119.5 -22.5q-43 0 -73.5 9.5t-50.5 21.5q-24 13 -40 31v43q19 -23 44 -41q21 -15 51 -27.5t68 -12.5q42 0 73.5 18t52.5 48.5t31.5 70.5
t10.5 84q0 46 -11 86t-32 69.5t-52 46.5t-71 17q-37 0 -63.5 -12.5t-44.5 -26.5q-21 -17 -36 -38h-20l45 308h325l-28 -78h-284z" />
    <glyph glyph-name="five.inf" horiz-adv-x="589" 
d="M124 133q9 9 22 19.5t31.5 19.5t42.5 15t55 6q59 0 104 -19t75.5 -51.5t46 -75.5t15.5 -91q0 -44 -14 -89t-45 -81t-80.5 -58.5t-119.5 -22.5q-43 0 -73.5 9.5t-50.5 21.5q-24 13 -40 31v43q19 -23 44 -41q21 -15 51 -27.5t68 -12.5q42 0 73.5 18t52.5 48.5t31.5 70.5
t10.5 84q0 46 -11 86t-32 69.5t-52 46.5t-71 17q-37 0 -63.5 -12.5t-44.5 -26.5q-21 -17 -36 -38h-20l45 308h325l-28 -78h-284z" />
    <glyph glyph-name="five.lt" 
d="M164 162q36 -45 87 -80q44 -30 107 -55t148 -25q87 0 156.5 31.5t117.5 90.5t74 142.5t26 188.5q0 108 -27 193.5t-77 145t-120 91t-155 31.5q-46 0 -91 -9.5t-85.5 -29t-75 -49.5t-58.5 -71h-25l88 600h647l-39 -110h-598l-60 -434q15 18 40.5 40.5t63.5 42.5t89.5 34
t117.5 14q106 0 196 -36t155 -100t102 -152t37 -191q0 -55 -11.5 -113t-36.5 -113t-64.5 -103t-94 -84t-125.5 -57t-160 -21q-91 0 -156.5 19t-108.5 42q-50 26 -84 61v66z" />
    <glyph glyph-name="five.numr" horiz-adv-x="589" 
d="M124 1091q9 9 22 19.5t31.5 19.5t42.5 15t55 6q59 0 104 -19t75.5 -51.5t46 -75.5t15.5 -91q0 -44 -14 -89t-45 -81t-80.5 -58.5t-119.5 -22.5q-43 0 -73.5 9.5t-50.5 21.5q-24 13 -40 31v43q19 -23 44 -41q21 -15 51 -27.5t68 -12.5q42 0 73.5 18t52.5 48.5t31.5 70.5
t10.5 84q0 46 -11 86t-32 69.5t-52 46.5t-71 17q-37 0 -63.5 -12.5t-44.5 -26.5q-21 -17 -36 -38h-20l45 308h325l-28 -78h-284z" />
    <glyph glyph-name="five.op" horiz-adv-x="1017" 
d="M102 -256q36 -45 87 -80q44 -30 107 -55t148 -25q87 0 156.5 31.5t117.5 90.5t74 142.5t26 188.5q0 108 -27 193.5t-77 145t-120 91t-155 31.5q-46 0 -91 -9.5t-85.5 -29t-75 -49.5t-58.5 -71h-25l88 600h647l-39 -110h-598l-60 -434q15 18 40.5 40.5t63.5 42.5t89.5 34
t117.5 14q106 0 196 -36t155 -100t102 -152t37 -191q0 -55 -11.5 -113t-36.5 -113t-64.5 -103t-94 -84t-125.5 -57t-160 -21q-91 0 -156.5 19t-108.5 42q-50 26 -84 61v66z" />
    <glyph glyph-name="five.ot" 
d="M164 -256q36 -45 87 -80q44 -30 107 -55t148 -25q87 0 156.5 31.5t117.5 90.5t74 142.5t26 188.5q0 108 -27 193.5t-77 145t-120 91t-155 31.5q-46 0 -91 -9.5t-85.5 -29t-75 -49.5t-58.5 -71h-25l88 600h647l-39 -110h-598l-60 -434q15 18 40.5 40.5t63.5 42.5t89.5 34
t117.5 14q106 0 196 -36t155 -100t102 -152t37 -191q0 -55 -11.5 -113t-36.5 -113t-64.5 -103t-94 -84t-125.5 -57t-160 -21q-91 0 -156.5 19t-108.5 42q-50 26 -84 61v66z" />
    <glyph glyph-name="fj" horiz-adv-x="980" 
d="M215 850h-150v28h150v102q0 82 14.5 143.5t38.5 106t56 73t67.5 45t72.5 23t71 6.5q63 0 109 -16t79 -37q-4 -6 -8 -11t-8.5 -11t-8.5 -13q-20 17 -46 30q-22 11 -53 20.5t-68 9.5q-36 0 -73 -13.5t-67 -45t-49 -83.5t-19 -128v-201h522v-574q0 -126 -14 -225t-37 -176.5
t-52.5 -134t-60.5 -96.5q-72 -94 -163 -130v22q24 19 49.5 42t50 57t46 81t38 115t26 159t9.5 212v620h-414v-850h-108v850z" />
    <glyph glyph-name="fk" horiz-adv-x="1541" 
d="M215 850h-150v28h150v102q0 85 15 148t41 107t60.5 71.5t72.5 43.5t78 21.5t77 5.5q66 0 118.5 -12.5t90.5 -26.5q43 -18 77 -39v-1024l515 603h39l-290 -338l407 -540h-134l-344 457l-193 -227v-230h-108v1323q-34 11 -73 18.5t-86 7.5q-44 0 -89 -10.5t-82 -40
t-60.5 -82t-23.5 -137.5v-201h246v-28h-246v-850h-108v850z" />
    <glyph glyph-name="zero.dnom" horiz-adv-x="615" 
d="M307 -15q-45 0 -88 24t-77 69t-54.5 111t-20.5 150t20.5 150t54.5 111t77 69t88 24t88.5 -24t77.5 -69t54.5 -111t20.5 -150t-20.5 -150t-54.5 -111t-77.5 -69t-88.5 -24zM307 9q38 0 66 22.5t46.5 65t27.5 103.5t9 139t-9 139t-27.5 103.5t-46.5 65t-66 22.5t-66 -22.5
t-46 -65t-27 -103.5t-9 -139t9 -139t27 -103.5t46 -65t66 -22.5z" />
    <glyph glyph-name="zero.inf" horiz-adv-x="615" 
d="M307 -297q-45 0 -88 24t-77 69t-54.5 111t-20.5 150t20.5 150t54.5 111t77 69t88 24t88.5 -24t77.5 -69t54.5 -111t20.5 -150t-20.5 -150t-54.5 -111t-77.5 -69t-88.5 -24zM307 -273q38 0 66 22.5t46.5 65t27.5 103.5t9 139t-9 139t-27.5 103.5t-46.5 65t-66 22.5
t-66 -22.5t-46 -65t-27 -103.5t-9 -139t9 -139t27 -103.5t46 -65t66 -22.5z" />
    <glyph glyph-name="zero.lt" 
d="M570 -26q-90 0 -176 47.5t-153 138.5t-108 221.5t-41 297.5q0 166 41 297t108 221.5t153 138.5t176 48t176.5 -48t153.5 -138.5t108 -221.5t41 -297q0 -167 -41 -297.5t-108 -221.5t-153.5 -138.5t-176.5 -47.5zM570 2q79 0 144.5 42t112 126.5t72 211.5t25.5 297
q0 169 -25.5 296t-72 212t-112 127t-144.5 42t-144 -42t-111.5 -127t-72 -212t-25.5 -296q0 -170 25.5 -297t72 -211.5t111.5 -126.5t144 -42z" />
    <glyph glyph-name="zero.numr" horiz-adv-x="615" 
d="M307 665q-45 0 -88 24t-77 69t-54.5 111t-20.5 150t20.5 150t54.5 111t77 69t88 24t88.5 -24t77.5 -69t54.5 -111t20.5 -150t-20.5 -150t-54.5 -111t-77.5 -69t-88.5 -24zM307 689q38 0 66 22.5t46.5 65t27.5 103.5t9 139t-9 139t-27.5 103.5t-46.5 65t-66 22.5
t-66 -22.5t-46 -65t-27 -103.5t-9 -139t9 -139t27 -103.5t46 -65t66 -22.5z" />
    <glyph glyph-name="zero.ot" 
d="M104 469q0 108 37.5 199t101 157t148 103t179.5 37q94 0 179 -37t149 -103t101.5 -157t37.5 -199t-37.5 -199t-101.5 -156.5t-149 -102.5t-179 -37q-95 0 -179.5 37t-148 102.5t-101 156.5t-37.5 199zM229 469q0 -104 22.5 -190t66 -147.5t107 -95.5t145.5 -34t145.5 34
t107 95.5t66.5 147.5t23 190t-23 190.5t-66.5 148t-107 95.5t-145.5 34t-145.5 -34t-107 -95.5t-66 -148t-22.5 -190.5z" />
    <glyph glyph-name="four.dnom" horiz-adv-x="660" 
d="M366 175h-317l414 521v-497h136v-24h-136v-175h-97v175zM366 199v335l-268 -335h268z" />
    <glyph glyph-name="zero_slash.op" horiz-adv-x="1107" 
d="M87 469q0 108 37.5 199t101 157t148 103t179.5 37q94 0 179 -37t149 -103t101.5 -157t37.5 -199t-37.5 -199t-101.5 -156.5t-149 -102.5t-179 -37q-95 0 -179.5 37t-148 102.5t-101 156.5t-37.5 199zM212 469q0 -104 22.5 -190t66 -147.5t107 -95.5t145.5 -34t145.5 34
t107 95.5t66.5 147.5t23 190t-23 190.5t-66.5 148t-107 95.5t-145.5 34t-145.5 -34t-107 -95.5t-66 -148t-22.5 -190.5zM711 914l-342 -876l25 -14l344 876z" />
    <glyph glyph-name="four.inf" horiz-adv-x="660" 
d="M366 -107h-317l414 521v-497h136v-24h-136v-175h-97v175zM366 -83v335l-268 -335h268z" />
    <glyph glyph-name="zero_slash.ot" 
d="M104 469q0 108 37.5 199t101 157t148 103t179.5 37q94 0 179 -37t149 -103t101.5 -157t37.5 -199t-37.5 -199t-101.5 -156.5t-149 -102.5t-179 -37q-95 0 -179.5 37t-148 102.5t-101 156.5t-37.5 199zM229 469q0 -104 22.5 -190t66 -147.5t107 -95.5t145.5 -34t145.5 34
t107 95.5t66.5 147.5t23 190t-23 190.5t-66.5 148t-107 95.5t-145.5 34t-145.5 -34t-107 -95.5t-66 -148t-22.5 -190.5zM728 914l-342 -876l25 -14l344 876z" />
    <glyph glyph-name="four.lt" 
d="M790 1385v-938h317v-28h-317v-419h-120v419h-648zM670 447v737l-588 -737h588z" />
    <glyph glyph-name="four.numr" horiz-adv-x="660" 
d="M366 853h-317l414 521v-497h136v-24h-136v-175h-97v175zM366 877v335l-268 -335h268z" />
    <glyph glyph-name="acute.cap" horiz-adv-x="532" 
d="M100 1473l220 259q12 14 25.5 22.5t30.5 8.5q20 0 33 -13t13 -33q0 -19 -10.5 -31.5t-22.5 -21.5l-259 -196z" />
    <glyph glyph-name="four.op" horiz-adv-x="1175" 
d="M807 966v-938h317v-28h-317v-419h-120v419h-648zM687 28v737l-588 -737h588z" />
    <glyph glyph-name="four.ot" 
d="M790 966v-938h317v-28h-317v-419h-120v419h-648zM670 28v737l-588 -737h588z" />
    <glyph glyph-name="Aacute.alt2" horiz-adv-x="1228" 
d="M614 1393l547 -1393h-128l-210 535h-515l-210 -535h-31zM812 563l-246 629l-247 -629h493zM512 1473l220 259q12 14 25.5 22.5t30.5 8.5q20 0 33 -13t13 -33q0 -19 -10.5 -31.5t-22.5 -21.5l-259 -196z" />
    <glyph glyph-name="Amacron.alt2" horiz-adv-x="1228" 
d="M614 1393l547 -1393h-128l-210 535h-515l-210 -535h-31zM812 563l-246 629l-247 -629h493zM372 1585h485v-53h-485v53z" />
    <glyph glyph-name="altcedilla" horiz-adv-x="499" 
d="M285 0h35l-89 -95q24 0 53 -9t54 -28t42 -47t17 -66q0 -65 -50 -105t-138 -40q-28 0 -48 2.5t-34 6.5q-16 4 -27 10l-5 24q14 -5 30 -9q14 -3 31.5 -5.5t37.5 -2.5q65 0 96.5 33t31.5 80q0 34 -15 59t-40 41.5t-56.5 25t-64.5 8.5z" />
    <glyph glyph-name="grave.cap" horiz-adv-x="532" 
d="M402 1468l-259 196q-12 9 -22.5 21.5t-10.5 31.5q0 20 13 33t33 13q17 0 30.5 -8.5t25.5 -22.5l220 -259z" />
    <glyph glyph-name="greater.cap" horiz-adv-x="1059" 
d="M980 664l-871 -378v32l833 361l-833 360v32l871 -378v-29z" />
    <glyph glyph-name="greater.lt" 
d="M1021 664l-871 -378v32l833 361l-833 360v32l871 -378v-29z" />
    <glyph glyph-name="greater.op" horiz-adv-x="1059" 
d="M980 454l-871 -378v32l833 361l-833 360v32l871 -378v-29z" />
    <glyph glyph-name="greater.ot" 
d="M1021 454l-871 -378v32l833 361l-833 360v32l871 -378v-29z" />
    <glyph glyph-name="anoteleia.cap" horiz-adv-x="381" 
d="M107 679q0 35 24 58.5t59 23.5t59.5 -23.5t24.5 -58.5q0 -17 -6.5 -32.5t-18 -26.5t-26.5 -17.5t-33 -6.5q-35 0 -59 24t-24 59z" />
    <glyph glyph-name="greaterequal.cap" horiz-adv-x="1059" 
d="M980 729l-871 -378v32l833 361l-833 360v32l871 -378v-29zM980 221h-871v28h871v-28z" />
    <glyph glyph-name="greaterequal.lt" 
d="M1021 729l-871 -378v32l833 361l-833 360v32l871 -378v-29zM1021 221h-871v28h871v-28z" />
    <glyph glyph-name="greaterequal.op" horiz-adv-x="1059" 
d="M980 508l-871 -378v32l833 361l-833 360v32l871 -378v-29zM980 0h-871v28h871v-28z" />
    <glyph glyph-name="apple" horiz-adv-x="1336" 
d="M285 1076h766v-766h-766v766zM864 561v32h-133v85h107v30h-107v85h133v32h-171v-264h171zM483 561l23 64h103l24 -64h38l-97 264h-34l-96 -264h39zM558 768l40 -112h-82z" />
    <glyph glyph-name="greaterequal.ot" 
d="M1021 508l-871 -378v32l833 361l-833 360v32l871 -378v-29zM1021 0h-871v28h871v-28z" />
    <glyph glyph-name="guillemotleft.cap" horiz-adv-x="904" 
d="M775 999l20 -20l-301 -300l300 -300l-20 -20l-319 320zM79 679l320 320l20 -20l-301 -300l300 -300l-20 -20z" />
    <glyph glyph-name="approxequal.cap" horiz-adv-x="1151" 
d="M109 720q4 19 19 49.5t43 59.5t70 50t101 21q40 0 81 -11t82 -27t82 -35t80 -35t76.5 -27t71.5 -11q46 0 81 17.5t60 42t39 50t19 42.5h28q-4 -19 -19 -49.5t-43 -59.5t-70.5 -50t-100.5 -21q-40 0 -81 11t-82 27t-82 35t-80 35t-76.5 27t-71.5 11q-46 0 -81 -17.5
t-60 -42t-39.5 -50.5t-18.5 -42h-28zM109 452q4 19 19 49.5t43 59.5t70 50t101 21q40 0 81 -11t82 -27t82 -35t80 -35t76.5 -27t71.5 -11q46 0 81 17.5t60 42t39 50t19 42.5h28q-4 -19 -19 -49.5t-43 -59.5t-70.5 -50t-100.5 -21q-40 0 -81 11t-82 27t-82 35t-80 35
t-76.5 27t-71.5 11q-46 0 -81 -17.5t-60 -42t-39.5 -50.5t-18.5 -42h-28z" />
    <glyph glyph-name="guillemotright.cap" horiz-adv-x="904" 
d="M449 679l-319 -320l-20 20l300 300l-301 300l20 20zM506 359l-20 20l300 300l-301 300l20 20l320 -320z" />
    <glyph glyph-name="approxequal.lt" 
d="M104 720q4 19 19 49.5t43 59.5t70 50t101 21q40 0 81 -11t82 -27t82 -35t80 -35t76.5 -27t71.5 -11q46 0 81 17.5t60 42t39 50t19 42.5h28q-4 -19 -19 -49.5t-43 -59.5t-70.5 -50t-100.5 -21q-40 0 -81 11t-82 27t-82 35t-80 35t-76.5 27t-71.5 11q-46 0 -81 -17.5
t-60 -42t-39.5 -50.5t-18.5 -42h-28zM104 452q4 19 19 49.5t43 59.5t70 50t101 21q40 0 81 -11t82 -27t82 -35t80 -35t76.5 -27t71.5 -11q46 0 81 17.5t60 42t39 50t19 42.5h28q-4 -19 -19 -49.5t-43 -59.5t-70.5 -50t-100.5 -21q-40 0 -81 11t-82 27t-82 35t-80 35
t-76.5 27t-71.5 11q-46 0 -81 -17.5t-60 -42t-39.5 -50.5t-18.5 -42h-28z" />
    <glyph glyph-name="guilsinglleft.cap" horiz-adv-x="528" 
d="M79 679l320 320l20 -20l-301 -300l300 -300l-20 -20z" />
    <glyph glyph-name="approxequal.op" horiz-adv-x="1151" 
d="M109 510q4 19 19 49.5t43 59.5t70 50t101 21q40 0 81 -11t82 -27t82 -35t80 -35t76.5 -27t71.5 -11q46 0 81 17.5t60 42t39 50t19 42.5h28q-4 -19 -19 -49.5t-43 -59.5t-70.5 -50t-100.5 -21q-40 0 -81 11t-82 27t-82 35t-80 35t-76.5 27t-71.5 11q-46 0 -81 -17.5
t-60 -42t-39.5 -50.5t-18.5 -42h-28zM109 242q4 19 19 49.5t43 59.5t70 50t101 21q40 0 81 -11t82 -27t82 -35t80 -35t76.5 -27t71.5 -11q46 0 81 17.5t60 42t39 50t19 42.5h28q-4 -19 -19 -49.5t-43 -59.5t-70.5 -50t-100.5 -21q-40 0 -81 11t-82 27t-82 35t-80 35
t-76.5 27t-71.5 11q-46 0 -81 -17.5t-60 -42t-39.5 -50.5t-18.5 -42h-28z" />
    <glyph glyph-name="guilsinglright.cap" horiz-adv-x="528" 
d="M130 359l-20 20l300 300l-301 300l20 20l320 -320z" />
    <glyph glyph-name="approxequal.ot" 
d="M104 510q4 19 19 49.5t43 59.5t70 50t101 21q40 0 81 -11t82 -27t82 -35t80 -35t76.5 -27t71.5 -11q46 0 81 17.5t60 42t39 50t19 42.5h28q-4 -19 -19 -49.5t-43 -59.5t-70.5 -50t-100.5 -21q-40 0 -81 11t-82 27t-82 35t-80 35t-76.5 27t-71.5 11q-46 0 -81 -17.5
t-60 -42t-39.5 -50.5t-18.5 -42h-28zM104 242q4 19 19 49.5t43 59.5t70 50t101 21q40 0 81 -11t82 -27t82 -35t80 -35t76.5 -27t71.5 -11q46 0 81 17.5t60 42t39 50t19 42.5h28q-4 -19 -19 -49.5t-43 -59.5t-70.5 -50t-100.5 -21q-40 0 -81 11t-82 27t-82 35t-80 35
t-76.5 27t-71.5 11q-46 0 -81 -17.5t-60 -42t-39.5 -50.5t-18.5 -42h-28z" />
    <glyph glyph-name="hcircumflex.alt5" horiz-adv-x="980" 
d="M123 1358h108v-823q7 36 19.5 77t32 81t47 76.5t64 64.5t82.5 44.5t104 16.5q72 0 125 -27t88.5 -72.5t52.5 -106.5t17 -129v-560h-108v560q0 51 -5.5 105.5t-25 99.5t-57.5 73.5t-104 28.5q-54 0 -99.5 -20.5t-82.5 -55.5t-65 -81.5t-47 -99t-28.5 -108t-9.5 -107.5
v-395h-108v1358zM237 1473l224 280l224 -280l-24 -5l-200 148l-200 -148z" />
    <glyph glyph-name="Aogonek.alt2" horiz-adv-x="1228" 
d="M614 1393l547 -1393h-86q-44 -17 -82.5 -42t-67.5 -55t-46 -65.5t-17 -73.5q0 -45 22.5 -67.5t60.5 -22.5q21 0 37.5 5.5t28.5 13.5q14 9 25 20v-28q-16 -13 -35 -24q-17 -9 -41 -16t-54 -7q-57 0 -88 28.5t-31 78.5q0 40 21.5 77t56 69.5t78.5 60t90 48.5l-210 535h-515
l-210 -535h-31zM812 563l-246 629l-247 -629h493z" />
    <glyph glyph-name="hungarumlaut.cap" horiz-adv-x="773" 
d="M561 1732q12 14 25.5 22.5t30.5 8.5q20 0 33 -13t13 -33q0 -19 -10.5 -31.5t-22.5 -21.5l-259 -196l-30 5zM100 1473l220 259q12 14 25.5 22.5t30.5 8.5q20 0 33 -13t13 -33q0 -19 -10.5 -31.5t-22.5 -21.5l-259 -196z" />
    <glyph glyph-name="hyphen.cap" horiz-adv-x="811" 
d="M109 693h593v-28h-593v28z" />
    <glyph glyph-name="asciitilde.cap" horiz-adv-x="1151" 
d="M109 586q4 19 19 49.5t43 59.5t70 50t101 21q40 0 81 -11t82 -27t82 -35t80 -35t76.5 -27t71.5 -11q46 0 81 17.5t60 42t39 50t19 42.5h28q-4 -19 -19 -49.5t-43 -59.5t-70.5 -50t-100.5 -21q-40 0 -81 11t-82 27t-82 35t-80 35t-76.5 27t-71.5 11q-46 0 -81 -17.5
t-60 -42t-39.5 -50.5t-18.5 -42h-28v0z" />
    <glyph glyph-name="infinity.cap" horiz-adv-x="1500" 
d="M585 544q-33 -23 -62.5 -40.5t-59 -29t-61 -17t-67.5 -5.5q-56 0 -104.5 15.5t-84.5 44.5t-56.5 71t-20.5 96t20.5 96t56.5 71t84.5 44.5t104.5 15.5q36 0 67.5 -5.5t61 -17t59 -29t62.5 -40.5l165 -118l165 118q33 23 62.5 40.5t59 29t61 17t67.5 5.5q55 0 103.5 -15.5
t84.5 -45t57 -71.5t21 -95t-21 -95.5t-57 -71.5t-84.5 -44.5t-103.5 -15.5q-36 0 -67.5 5.5t-61 17t-59 29t-62.5 40.5l-165 118zM930 567q35 -25 65 -42t56.5 -27t51 -14t48.5 -4q46 0 81.5 16t59 43t35.5 63t12 77t-12 77t-35.5 63t-59 43t-81.5 16q-24 0 -48.5 -4
t-51 -14t-56.5 -27t-65 -42l-157 -112zM570 791q-35 25 -65 42t-57 27t-51.5 14t-48.5 4q-47 0 -82 -15.5t-58 -42.5t-35 -63.5t-12 -77.5t12 -77.5t35 -63.5t58 -42.5t82 -15.5q24 0 48.5 4t51.5 14t57 27t65 42l156 112z" />
    <glyph glyph-name="at.cap" horiz-adv-x="1599" 
d="M1349 135q-73 -55 -165 -97q-39 -18 -85.5 -35.5t-100 -31t-113 -21.5t-123.5 -8q-145 0 -269.5 44.5t-215.5 127.5t-142.5 202t-51.5 268q0 110 28.5 213.5t81.5 194.5t126.5 166.5t164.5 130t195.5 84.5t218.5 30q144 0 258.5 -47t194.5 -128.5t122.5 -191t42.5 -234.5
q0 -102 -28 -191.5t-78.5 -155.5t-121 -104t-155.5 -38q-91 0 -136.5 43t-45.5 127v16q-21 -38 -47.5 -72t-59.5 -59.5t-72.5 -40t-87.5 -14.5q-42 0 -78.5 15.5t-63.5 47t-42.5 78.5t-15.5 109q0 92 33 177t87 150.5t123 104.5t140 39q54 0 87.5 -19.5t52 -49.5t25 -64.5
t6.5 -64.5l54 178h104l-119 -389q-13 -42 -24.5 -85.5t-11.5 -80.5q0 -21 5 -39.5t18 -32t34.5 -21t53.5 -7.5q72 0 131 38t101 101t65 145.5t23 171.5q0 124 -43.5 227t-121 176.5t-182.5 114t-228 40.5q-100 0 -192 -27t-171.5 -77t-144 -120t-110.5 -155.5t-71 -184.5
t-25 -206q0 -132 39 -245t115.5 -196t191 -130t265.5 -47q60 0 115.5 7t105 19t92.5 27.5t79 31.5q84 38 149 86zM596 568q0 -91 33 -143.5t104 -52.5q46 0 84.5 24t69 63t53 88t38 99t23 97t7.5 81q0 30 -6.5 59.5t-21.5 53t-40 37.5t-62 14q-59 0 -110.5 -37t-89.5 -96.5
t-60 -135t-22 -151.5z" />
    <glyph glyph-name="infinity.op" horiz-adv-x="1500" 
d="M585 334q-33 -23 -62.5 -40.5t-59 -29t-61 -17t-67.5 -5.5q-56 0 -104.5 15.5t-84.5 44.5t-56.5 71t-20.5 96t20.5 96t56.5 71t84.5 44.5t104.5 15.5q36 0 67.5 -5.5t61 -17t59 -29t62.5 -40.5l165 -118l165 118q33 23 62.5 40.5t59 29t61 17t67.5 5.5q55 0 103.5 -15.5
t84.5 -45t57 -71.5t21 -95t-21 -95.5t-57 -71.5t-84.5 -44.5t-103.5 -15.5q-36 0 -67.5 5.5t-61 17t-59 29t-62.5 40.5l-165 118zM930 357q35 -25 65 -42t56.5 -27t51 -14t48.5 -4q46 0 81.5 16t59 43t35.5 63t12 77t-12 77t-35.5 63t-59 43t-81.5 16q-24 0 -48.5 -4
t-51 -14t-56.5 -27t-65 -42l-157 -112zM570 581q-35 25 -65 42t-57 27t-51.5 14t-48.5 4q-47 0 -82 -15.5t-58 -42.5t-35 -63.5t-12 -77.5t12 -77.5t35 -63.5t58 -42.5t82 -15.5q24 0 48.5 4t51.5 14t57 27t65 42l156 112z" />
    </font>
</defs>
</svg>
